<svg id="svg" version="1.1" xmlns="http://www.w3.org/2000/svg" width="400"
     height="400" viewBox="0, 0, 400,400">
    <g id="svgg">
        <path id="path0"
              d="M247.029 97.829 C 246.683 98.174,246.400 98.837,246.400 99.300 C 246.400 100.086,245.902 101.926,245.182 103.800 C 245.013 104.240,244.607 105.320,244.280 106.200 C 234.849 131.583,205.305 146.976,179.200 140.109 C 175.418 139.114,173.897 138.768,173.824 138.886 C 173.415 139.543,172.800 145.739,172.800 149.200 C 172.800 168.077,181.967 185.281,197.595 195.732 L 199.789 197.200 229.206 197.200 C 258.165 197.200,258.632 197.188,259.200 196.400 C 259.517 195.960,260.025 195.600,260.328 195.600 C 260.631 195.600,261.383 195.060,262.000 194.400 C 262.617 193.740,263.321 193.200,263.565 193.200 C 264.145 193.200,272.400 184.945,272.400 184.365 C 272.400 184.121,272.940 183.417,273.600 182.800 C 274.260 182.183,274.800 181.431,274.800 181.128 C 274.800 180.825,275.160 180.317,275.600 180.000 C 276.040 179.683,276.400 179.103,276.400 178.712 C 276.400 178.320,276.580 178.000,276.800 178.000 C 277.020 178.000,277.200 177.640,277.200 177.200 C 277.200 176.760,277.380 176.400,277.600 176.400 C 277.820 176.400,278.000 176.040,278.000 175.600 C 278.000 175.160,278.180 174.800,278.400 174.800 C 278.620 174.800,278.800 174.440,278.800 174.000 C 278.800 173.560,278.980 173.200,279.200 173.200 C 279.420 173.200,279.600 172.840,279.600 172.400 C 279.600 171.960,279.780 171.600,280.000 171.600 C 280.220 171.600,280.400 171.150,280.400 170.600 C 280.400 170.050,280.580 169.600,280.800 169.600 C 281.020 169.600,281.200 169.060,281.200 168.400 C 281.200 167.740,281.380 167.200,281.600 167.200 C 281.820 167.200,282.000 166.660,282.000 166.000 C 282.000 165.340,282.180 164.800,282.400 164.800 C 282.620 164.800,282.800 163.990,282.800 163.000 C 282.800 162.010,282.980 161.200,283.200 161.200 C 283.420 161.200,283.600 160.221,283.600 159.024 C 283.600 157.827,283.780 156.736,284.000 156.600 C 284.240 156.451,284.400 153.729,284.400 149.776 C 284.400 145.659,284.250 143.200,284.000 143.200 C 283.778 143.200,283.600 142.133,283.600 140.800 C 283.600 139.467,283.422 138.400,283.200 138.400 C 282.980 138.400,282.800 137.590,282.800 136.600 C 282.800 135.610,282.620 134.800,282.400 134.800 C 282.180 134.800,282.000 134.271,282.000 133.624 C 282.000 132.977,281.820 132.336,281.600 132.200 C 281.380 132.064,281.200 131.423,281.200 130.776 C 281.200 130.129,281.020 129.600,280.800 129.600 C 280.580 129.600,280.400 129.139,280.400 128.576 C 280.400 127.996,280.227 127.660,280.000 127.800 C 279.773 127.940,279.600 127.604,279.600 127.024 C 279.600 126.461,279.420 126.000,279.200 126.000 C 278.980 126.000,278.800 125.640,278.800 125.200 C 278.800 124.760,278.620 124.400,278.400 124.400 C 278.180 124.400,278.000 124.040,278.000 123.600 C 278.000 123.160,277.820 122.800,277.600 122.800 C 277.380 122.800,277.200 122.440,277.200 122.000 C 277.200 121.560,277.020 121.200,276.800 121.200 C 276.580 121.200,276.400 120.880,276.400 120.488 C 276.400 120.097,276.040 119.517,275.600 119.200 C 275.160 118.883,274.800 118.375,274.800 118.072 C 274.800 117.769,274.260 117.017,273.600 116.400 C 272.940 115.783,272.400 115.079,272.400 114.835 C 272.400 114.256,263.344 105.200,262.765 105.200 C 262.521 105.200,261.817 104.660,261.200 104.000 C 260.583 103.340,259.791 102.800,259.440 102.800 C 259.088 102.800,258.800 102.620,258.800 102.400 C 258.800 102.180,258.480 102.000,258.088 102.000 C 257.697 102.000,257.117 101.640,256.800 101.200 C 256.483 100.760,255.903 100.400,255.512 100.400 C 255.120 100.400,254.800 100.220,254.800 100.000 C 254.800 99.780,254.350 99.600,253.800 99.600 C 253.250 99.600,252.800 99.420,252.800 99.200 C 252.800 98.980,252.440 98.800,252.000 98.800 C 251.560 98.800,251.200 98.620,251.200 98.400 C 251.200 98.180,250.840 98.000,250.400 98.000 C 249.960 98.000,249.600 97.820,249.600 97.600 C 249.600 96.968,247.723 97.135,247.029 97.829 "
              stroke="none" fill="#eb157c" fill-rule="evenodd"></path>
        <path id="path1"
              d="M175.330 197.489 C 182.898 197.635,182.875 197.618,179.000 200.238 C 153.532 217.462,139.869 226.400,139.007 226.400 C 138.379 226.400,138.000 226.625,138.000 227.000 C 138.000 227.330,138.180 227.600,138.400 227.600 C 138.620 227.600,138.800 227.960,138.800 228.400 C 138.800 228.840,138.980 229.200,139.200 229.200 C 139.420 229.200,139.600 229.751,139.600 230.424 C 139.600 231.137,139.767 231.544,140.000 231.400 C 140.233 231.256,140.400 231.663,140.400 232.376 C 140.400 233.049,140.580 233.600,140.800 233.600 C 141.020 233.600,141.200 233.791,141.200 234.024 C 141.200 234.257,141.020 234.336,140.800 234.200 C 140.044 233.733,140.400 234.624,141.200 235.200 C 141.640 235.517,142.000 236.187,142.000 236.688 C 142.000 237.190,142.180 237.600,142.400 237.600 C 142.620 237.600,142.800 238.140,142.800 238.800 C 142.800 239.460,142.980 240.000,143.200 240.000 C 143.420 240.000,143.600 240.450,143.600 241.000 C 143.600 241.550,143.780 242.000,144.000 242.000 C 144.220 242.000,144.400 242.540,144.400 243.200 C 144.400 243.860,144.580 244.400,144.800 244.400 C 145.020 244.400,145.200 244.951,145.200 245.624 C 145.200 246.337,145.367 246.744,145.600 246.600 C 145.827 246.460,146.000 246.796,146.000 247.376 C 146.000 247.939,146.180 248.400,146.400 248.400 C 146.620 248.400,146.800 248.951,146.800 249.624 C 146.800 250.337,146.967 250.744,147.200 250.600 C 147.433 250.456,147.600 250.863,147.600 251.576 C 147.600 252.249,147.780 252.800,148.000 252.800 C 148.220 252.800,148.400 253.250,148.400 253.800 C 148.400 254.350,148.580 254.800,148.800 254.800 C 149.020 254.800,149.200 255.351,149.200 256.024 C 149.200 256.737,149.367 257.144,149.600 257.000 C 149.833 256.856,150.000 257.263,150.000 257.976 C 150.000 258.649,150.180 259.200,150.400 259.200 C 150.620 259.200,150.800 259.845,150.800 260.633 C 150.800 262.300,151.679 262.354,152.000 260.707 C 152.220 259.578,153.874 258.258,163.000 251.925 C 164.320 251.009,165.490 250.143,165.600 250.000 C 165.710 249.857,166.880 248.996,168.200 248.086 C 169.520 247.176,174.110 243.897,178.400 240.800 C 182.690 237.703,187.280 234.424,188.600 233.514 C 189.920 232.604,191.090 231.743,191.200 231.600 C 191.310 231.457,192.547 230.543,193.948 229.570 C 197.311 227.234,199.964 225.341,209.599 218.400 C 214.027 215.210,218.494 212.014,219.525 211.299 C 220.556 210.583,221.687 209.754,222.038 209.456 C 222.389 209.158,223.806 208.123,225.186 207.157 C 226.567 206.191,228.823 204.590,230.200 203.600 C 231.577 202.610,233.805 201.028,235.152 200.085 C 238.702 197.598,238.701 197.598,228.100 197.619 L 218.600 197.639 216.526 199.119 C 215.385 199.934,209.570 204.110,203.602 208.400 C 190.996 217.462,188.611 219.165,185.148 221.570 C 183.747 222.543,182.510 223.457,182.400 223.600 C 182.290 223.743,181.030 224.643,179.600 225.600 C 178.170 226.557,176.910 227.457,176.800 227.600 C 176.690 227.743,175.453 228.657,174.052 229.630 C 170.615 232.017,168.022 233.865,157.320 241.548 C 146.632 249.223,147.534 248.743,146.873 247.105 C 146.584 246.387,146.179 245.487,145.974 245.105 C 145.768 244.723,145.600 244.136,145.600 243.800 C 145.600 243.464,145.420 242.832,145.200 242.395 C 144.980 241.958,144.620 241.242,144.400 240.805 C 143.229 238.479,142.935 238.772,154.200 231.046 C 157.720 228.631,163.570 224.616,167.200 222.124 C 170.830 219.631,176.770 215.581,180.400 213.123 C 184.030 210.666,187.203 208.463,187.452 208.228 C 187.701 207.993,191.076 205.671,194.952 203.069 C 202.122 198.257,202.852 197.587,200.900 197.617 C 200.295 197.626,192.780 197.571,184.200 197.496 C 175.620 197.420,171.629 197.417,175.330 197.489 M255.800 198.243 C 255.140 198.781,253.006 200.341,251.057 201.711 C 249.109 203.080,246.319 205.056,244.857 206.102 C 243.396 207.148,240.850 208.935,239.200 210.073 C 237.550 211.211,235.570 212.622,234.800 213.209 C 234.030 213.796,230.250 216.492,226.400 219.200 C 222.550 221.908,218.770 224.603,218.000 225.189 C 217.230 225.775,215.430 227.039,214.000 227.997 C 212.570 228.956,211.310 229.858,211.200 230.002 C 211.090 230.146,209.650 231.191,208.000 232.324 C 206.350 233.457,203.470 235.477,201.600 236.812 C 199.730 238.147,196.940 240.129,195.400 241.218 C 193.860 242.306,191.340 244.098,189.800 245.200 C 188.260 246.302,185.650 248.133,184.000 249.269 C 182.350 250.406,180.910 251.452,180.800 251.594 C 180.690 251.736,179.700 252.459,178.600 253.200 C 175.964 254.974,164.585 263.036,162.800 264.393 C 159.724 266.732,155.200 269.601,155.200 269.212 C 155.200 268.985,154.930 268.800,154.600 268.800 C 154.270 268.800,154.000 269.070,154.000 269.400 C 154.000 269.730,154.180 270.000,154.400 270.000 C 154.620 270.000,154.800 270.450,154.800 271.000 C 154.800 271.550,154.980 272.000,155.200 272.000 C 155.420 272.000,155.600 272.450,155.600 273.000 C 155.600 273.550,155.780 274.000,156.000 274.000 C 156.220 274.000,156.400 274.540,156.400 275.200 C 156.400 275.860,156.580 276.400,156.800 276.400 C 157.020 276.400,157.200 276.951,157.200 277.624 C 157.200 278.337,157.367 278.744,157.600 278.600 C 157.827 278.460,158.000 278.796,158.000 279.376 C 158.000 279.939,158.180 280.400,158.400 280.400 C 158.620 280.400,158.800 280.850,158.800 281.400 C 158.800 281.950,158.980 282.400,159.200 282.400 C 159.420 282.400,159.600 282.921,159.600 283.557 C 159.600 284.631,160.590 285.598,160.874 284.802 C 161.002 284.444,164.463 281.866,172.800 275.919 C 175.330 274.115,177.490 272.531,177.600 272.400 C 177.710 272.269,179.928 270.640,182.528 268.781 C 185.129 266.921,188.189 264.724,189.328 263.897 C 190.468 263.071,192.390 261.677,193.600 260.800 C 194.810 259.923,196.790 258.483,198.000 257.600 C 199.210 256.717,201.190 255.277,202.400 254.400 C 210.470 248.549,216.998 243.808,222.200 240.018 C 224.620 238.254,228.670 235.333,231.200 233.525 C 233.730 231.717,235.890 230.131,236.000 230.000 C 236.172 229.795,244.561 223.738,246.249 222.600 C 246.685 222.306,246.949 222.386,247.241 222.900 C 247.881 224.024,248.400 223.711,248.400 222.200 C 248.400 221.430,248.580 220.800,248.800 220.800 C 249.020 220.800,249.200 220.260,249.200 219.600 C 249.200 218.940,249.380 218.400,249.600 218.400 C 249.820 218.400,250.000 217.950,250.000 217.400 C 250.000 216.850,250.180 216.400,250.400 216.400 C 250.620 216.400,250.800 215.950,250.800 215.400 C 250.800 214.850,250.980 214.400,251.200 214.400 C 251.420 214.400,251.600 213.860,251.600 213.200 C 251.600 212.540,251.780 212.000,252.000 212.000 C 252.220 212.000,252.400 211.550,252.400 211.000 C 252.400 210.450,252.580 210.000,252.800 210.000 C 253.020 210.000,253.200 209.550,253.200 209.000 C 253.200 208.450,253.380 208.000,253.600 208.000 C 253.820 208.000,254.000 207.449,254.000 206.776 C 254.000 206.063,254.167 205.656,254.400 205.800 C 254.633 205.944,254.800 205.537,254.800 204.824 C 254.800 204.151,254.980 203.600,255.200 203.600 C 255.420 203.600,255.600 203.139,255.600 202.576 C 255.600 201.996,255.773 201.660,256.000 201.800 C 256.232 201.944,256.400 201.549,256.400 200.857 C 256.400 200.202,256.596 199.601,256.835 199.522 C 257.074 199.442,257.209 198.902,257.135 198.321 L 257.000 197.265 255.800 198.243 M127.600 198.600 C 127.600 199.150,127.780 199.600,128.000 199.600 C 128.220 199.600,128.400 200.039,128.400 200.576 C 128.400 201.113,128.580 201.664,128.800 201.800 C 129.020 201.936,129.200 202.397,129.200 202.824 C 129.200 203.251,129.380 203.600,129.600 203.600 C 129.820 203.600,130.000 204.140,130.000 204.800 C 130.000 205.460,130.180 206.000,130.400 206.000 C 130.620 206.000,130.800 206.540,130.800 207.200 C 130.800 207.860,130.980 208.400,131.200 208.400 C 131.420 208.400,131.600 208.760,131.600 209.200 C 131.600 209.640,131.780 210.000,132.000 210.000 C 132.220 210.000,132.400 210.540,132.400 211.200 C 132.400 211.860,132.580 212.400,132.800 212.400 C 133.020 212.400,133.200 212.850,133.200 213.400 C 133.200 213.950,133.380 214.400,133.600 214.400 C 133.820 214.400,134.000 214.835,134.000 215.367 C 134.000 215.898,134.172 216.393,134.382 216.467 C 134.593 216.540,134.808 217.256,134.861 218.057 C 134.959 219.532,136.000 219.884,136.000 218.442 C 136.000 218.049,136.958 217.196,138.300 216.392 C 139.565 215.635,142.940 213.501,145.800 211.651 C 148.660 209.800,152.890 207.079,155.200 205.604 C 157.510 204.128,161.268 201.724,163.551 200.261 L 167.703 197.600 147.651 197.600 L 127.600 197.600 127.600 198.600 M135.600 220.524 C 135.600 220.849,135.883 221.223,136.229 221.356 C 136.668 221.524,136.819 221.396,136.729 220.932 C 136.565 220.085,135.600 219.737,135.600 220.524 M136.564 222.550 C 136.225 223.433,136.676 223.884,137.287 223.273 C 137.647 222.913,137.649 222.689,137.293 222.333 C 136.937 221.977,136.764 222.029,136.564 222.550 M137.200 224.508 C 137.200 224.842,137.470 225.218,137.800 225.345 C 138.130 225.471,138.400 225.423,138.400 225.236 C 138.400 225.050,138.130 224.674,137.800 224.400 C 137.312 223.995,137.200 224.015,137.200 224.508 M246.400 224.987 C 246.400 225.345,246.635 225.485,247.000 225.345 C 247.330 225.218,247.600 224.954,247.600 224.757 C 247.600 224.561,247.330 224.400,247.000 224.400 C 246.670 224.400,246.400 224.664,246.400 224.987 M245.878 226.656 C 245.558 226.975,245.919 227.600,246.424 227.600 C 246.631 227.600,246.800 227.330,246.800 227.000 C 246.800 226.381,246.328 226.205,245.878 226.656 M245.000 228.800 C 244.708 229.272,245.087 230.000,245.624 230.000 C 245.831 230.000,246.000 229.640,246.000 229.200 C 246.000 228.356,245.418 228.124,245.000 228.800 M244.267 230.667 C 243.753 231.181,243.999 231.975,244.600 231.745 C 244.930 231.618,245.200 231.264,245.200 230.957 C 245.200 230.369,244.715 230.218,244.267 230.667 M243.200 233.400 C 243.200 233.730,243.470 234.000,243.800 234.000 C 244.130 234.000,244.400 233.730,244.400 233.400 C 244.400 233.070,244.130 232.800,243.800 232.800 C 243.470 232.800,243.200 233.070,243.200 233.400 M242.600 235.200 C 242.308 235.672,242.687 236.400,243.224 236.400 C 243.431 236.400,243.600 236.040,243.600 235.600 C 243.600 234.756,243.018 234.524,242.600 235.200 M241.600 237.114 C 241.600 237.286,241.067 237.743,240.415 238.128 C 239.763 238.513,238.998 239.053,238.715 239.327 C 238.432 239.602,237.570 240.263,236.800 240.798 C 235.109 241.971,227.641 247.443,226.800 248.125 C 226.470 248.392,225.570 249.050,224.800 249.587 C 224.030 250.123,221.690 251.819,219.600 253.355 C 217.510 254.890,214.540 257.070,213.000 258.198 C 211.460 259.326,208.760 261.305,207.000 262.595 C 205.240 263.885,202.900 265.596,201.800 266.397 C 200.700 267.199,198.000 269.180,195.800 270.800 C 191.829 273.724,190.198 274.917,185.200 278.553 C 183.770 279.593,182.330 280.662,182.000 280.928 C 181.670 281.194,180.770 281.852,180.000 282.390 C 178.192 283.655,170.781 289.091,170.000 289.726 C 166.384 292.667,164.375 293.719,163.820 292.964 C 163.267 292.213,163.252 292.213,162.957 292.976 C 162.770 293.458,162.835 293.812,163.128 293.909 C 163.388 293.996,163.600 294.322,163.600 294.633 C 163.600 294.945,163.780 295.200,164.000 295.200 C 164.220 295.200,164.400 295.740,164.400 296.400 C 164.400 297.060,164.580 297.600,164.800 297.600 C 165.020 297.600,165.200 297.791,165.200 298.024 C 165.200 298.257,165.020 298.336,164.800 298.200 C 164.044 297.733,164.400 298.624,165.200 299.200 C 165.677 299.544,166.000 300.235,166.000 300.912 C 166.000 301.567,166.169 301.943,166.400 301.800 C 166.639 301.653,166.800 302.137,166.800 303.000 C 166.800 303.863,166.961 304.347,167.200 304.200 C 167.427 304.060,167.600 304.396,167.600 304.976 C 167.600 305.539,167.780 306.000,168.000 306.000 C 168.220 306.000,168.400 306.450,168.400 307.000 C 168.400 307.550,168.567 308.000,168.771 308.000 C 168.975 308.000,169.200 308.276,169.271 308.614 C 169.380 309.134,169.553 309.107,170.400 308.437 C 174.313 305.340,176.451 303.665,177.597 302.800 C 178.325 302.250,182.809 298.785,187.561 295.100 C 192.312 291.415,197.426 287.455,198.924 286.300 C 200.423 285.145,202.043 283.893,202.524 283.519 C 206.845 280.157,221.578 268.758,223.745 267.100 C 225.255 265.945,226.697 264.820,226.950 264.600 C 229.922 262.010,234.433 259.115,233.222 260.573 C 232.952 260.899,232.847 261.353,232.989 261.582 C 233.417 262.274,234.000 262.053,234.000 261.200 C 234.000 260.760,234.180 260.400,234.400 260.400 C 234.620 260.400,234.800 260.209,234.800 259.976 C 234.800 259.743,234.620 259.664,234.400 259.800 C 234.180 259.936,234.000 259.857,234.000 259.624 C 234.000 259.391,234.180 259.200,234.400 259.200 C 234.620 259.200,234.800 258.649,234.800 257.976 C 234.800 257.263,234.967 256.856,235.200 257.000 C 235.433 257.144,235.600 256.737,235.600 256.024 C 235.600 255.351,235.780 254.800,236.000 254.800 C 236.220 254.800,236.400 254.339,236.400 253.776 C 236.400 253.196,236.573 252.860,236.800 253.000 C 237.039 253.147,237.200 252.663,237.200 251.800 C 237.200 250.937,237.361 250.453,237.600 250.600 C 237.831 250.743,238.000 250.367,238.000 249.712 C 238.000 249.035,238.323 248.344,238.800 248.000 C 239.600 247.424,239.956 246.533,239.200 247.000 C 238.980 247.136,238.800 247.057,238.800 246.824 C 238.800 246.591,238.980 246.400,239.200 246.400 C 239.420 246.400,239.600 245.849,239.600 245.176 C 239.600 244.463,239.767 244.056,240.000 244.200 C 240.233 244.344,240.400 243.937,240.400 243.224 C 240.400 242.551,240.580 242.000,240.800 242.000 C 241.020 242.000,241.200 241.539,241.200 240.976 C 241.200 240.396,241.373 240.060,241.600 240.200 C 241.833 240.344,242.000 239.937,242.000 239.224 C 242.000 238.551,242.180 238.000,242.400 238.000 C 242.620 238.000,242.800 237.730,242.800 237.400 C 242.800 237.070,242.530 236.800,242.200 236.800 C 241.870 236.800,241.600 236.941,241.600 237.114 M151.600 262.924 C 151.600 263.249,151.883 263.623,152.229 263.756 C 152.668 263.924,152.819 263.796,152.729 263.332 C 152.565 262.485,151.600 262.137,151.600 262.924 M232.267 263.067 C 231.781 263.553,231.990 263.979,232.600 263.745 C 232.930 263.618,233.200 263.354,233.200 263.157 C 233.200 262.738,232.649 262.684,232.267 263.067 M152.400 265.400 C 152.400 265.730,152.670 266.000,153.000 266.000 C 153.330 266.000,153.600 265.730,153.600 265.400 C 153.600 265.070,153.330 264.800,153.000 264.800 C 152.670 264.800,152.400 265.070,152.400 265.400 M231.467 265.067 C 231.006 265.527,231.175 266.000,231.800 266.000 C 232.130 266.000,232.400 265.730,232.400 265.400 C 232.400 264.775,231.927 264.606,231.467 265.067 M153.200 267.314 C 153.200 268.419,153.733 268.756,154.224 267.962 C 154.373 267.721,154.203 267.232,153.847 266.876 C 153.251 266.279,153.200 266.314,153.200 267.314 M230.492 267.675 C 230.739 268.417,231.600 268.540,231.600 267.833 C 231.600 267.485,231.315 267.200,230.967 267.200 C 230.618 267.200,230.405 267.414,230.492 267.675 M229.800 269.600 C 229.508 270.072,229.887 270.800,230.424 270.800 C 230.631 270.800,230.800 270.440,230.800 270.000 C 230.800 269.156,230.218 268.924,229.800 269.600 M229.067 271.467 C 228.553 271.981,228.799 272.775,229.400 272.545 C 229.730 272.418,230.000 272.064,230.000 271.757 C 230.000 271.169,229.515 271.018,229.067 271.467 M228.278 273.856 C 227.958 274.175,228.319 274.800,228.824 274.800 C 229.031 274.800,229.200 274.530,229.200 274.200 C 229.200 273.581,228.728 273.405,228.278 273.856 M226.975 276.536 C 226.337 277.306,217.084 284.815,210.629 289.800 C 209.774 290.460,208.521 291.450,207.843 292.000 C 205.417 293.969,189.550 306.560,187.428 308.200 C 186.574 308.860,185.321 309.850,184.643 310.400 C 183.965 310.950,183.138 311.617,182.805 311.882 C 174.491 318.495,173.931 318.891,173.496 318.456 C 172.814 317.774,172.400 317.904,172.400 318.800 C 172.400 319.240,172.580 319.600,172.800 319.600 C 173.020 319.600,173.200 319.870,173.200 320.200 C 173.200 320.530,173.380 320.800,173.600 320.800 C 173.820 320.800,174.000 321.250,174.000 321.800 C 174.000 322.350,174.180 322.800,174.400 322.800 C 174.620 322.800,174.800 323.340,174.800 324.000 C 174.800 324.660,174.980 325.200,175.200 325.200 C 175.420 325.200,175.600 325.751,175.600 326.424 C 175.600 327.137,175.767 327.544,176.000 327.400 C 176.227 327.260,176.400 327.596,176.400 328.176 C 176.400 328.739,176.580 329.200,176.800 329.200 C 177.020 329.200,177.200 329.740,177.200 330.400 C 177.200 331.060,177.380 331.600,177.600 331.600 C 177.820 331.600,178.000 332.028,178.000 332.551 C 178.000 333.074,178.270 333.726,178.600 334.000 C 179.093 334.409,179.200 334.377,179.200 333.820 C 179.200 333.006,178.985 333.214,185.200 328.024 C 191.321 322.913,194.935 319.867,195.200 319.595 C 195.310 319.481,196.390 318.584,197.600 317.600 C 198.810 316.616,199.890 315.716,200.000 315.600 C 200.110 315.484,203.530 312.606,207.600 309.206 C 211.670 305.806,215.448 302.613,215.996 302.112 C 217.151 301.054,217.600 300.964,217.600 301.787 C 217.600 302.145,217.835 302.285,218.200 302.145 C 218.542 302.013,218.800 301.417,218.800 300.757 C 218.800 300.121,218.980 299.600,219.200 299.600 C 219.420 299.600,219.600 299.060,219.600 298.400 C 219.600 297.740,219.780 297.200,220.000 297.200 C 220.220 297.200,220.400 296.750,220.400 296.200 C 220.400 295.650,220.580 295.200,220.800 295.200 C 221.020 295.200,221.200 294.750,221.200 294.200 C 221.200 293.650,221.380 293.200,221.600 293.200 C 221.820 293.200,222.000 292.660,222.000 292.000 C 222.000 291.340,222.180 290.800,222.400 290.800 C 222.620 290.800,222.800 290.350,222.800 289.800 C 222.800 289.250,222.980 288.800,223.200 288.800 C 223.420 288.800,223.600 288.350,223.600 287.800 C 223.600 287.250,223.780 286.800,224.000 286.800 C 224.220 286.800,224.400 286.260,224.400 285.600 C 224.400 284.940,224.580 284.400,224.800 284.400 C 225.020 284.400,225.200 283.950,225.200 283.400 C 225.200 282.850,225.380 282.400,225.600 282.400 C 225.820 282.400,226.000 281.950,226.000 281.400 C 226.000 280.850,226.180 280.400,226.400 280.400 C 226.620 280.400,226.800 279.939,226.800 279.376 C 226.800 278.796,226.973 278.460,227.200 278.600 C 227.420 278.736,227.600 278.477,227.600 278.024 C 227.600 277.571,227.780 277.200,228.000 277.200 C 228.220 277.200,228.400 276.840,228.400 276.400 C 228.400 275.344,227.924 275.389,226.975 276.536 M160.400 286.800 C 160.400 287.316,160.603 287.599,160.900 287.500 C 161.175 287.408,161.400 287.093,161.400 286.800 C 161.400 286.507,161.175 286.192,160.900 286.100 C 160.603 286.001,160.400 286.284,160.400 286.800 M161.200 288.757 C 161.200 288.954,161.470 289.218,161.800 289.345 C 162.165 289.485,162.400 289.345,162.400 288.987 C 162.400 288.664,162.130 288.400,161.800 288.400 C 161.470 288.400,161.200 288.561,161.200 288.757 M162.000 290.967 C 162.000 291.315,162.285 291.600,162.633 291.600 C 163.340 291.600,163.217 290.739,162.475 290.492 C 162.214 290.405,162.000 290.618,162.000 290.967 M217.078 303.456 C 216.758 303.775,217.119 304.400,217.624 304.400 C 217.831 304.400,218.000 304.130,218.000 303.800 C 218.000 303.181,217.528 303.005,217.078 303.456 M216.200 305.600 C 215.908 306.072,216.287 306.800,216.824 306.800 C 217.031 306.800,217.200 306.440,217.200 306.000 C 217.200 305.156,216.618 304.924,216.200 305.600 M215.467 307.467 C 214.953 307.981,215.199 308.775,215.800 308.545 C 216.130 308.418,216.400 308.064,216.400 307.757 C 216.400 307.169,215.915 307.018,215.467 307.467 M169.200 310.233 C 169.200 310.940,170.061 310.817,170.308 310.075 C 170.395 309.814,170.182 309.600,169.833 309.600 C 169.485 309.600,169.200 309.885,169.200 310.233 M214.492 310.075 C 214.739 310.817,215.600 310.940,215.600 310.233 C 215.600 309.885,215.315 309.600,214.967 309.600 C 214.618 309.600,214.405 309.814,214.492 310.075 M170.000 312.400 C 170.000 312.916,170.203 313.199,170.500 313.100 C 170.775 313.008,171.000 312.693,171.000 312.400 C 171.000 312.107,170.775 311.792,170.500 311.700 C 170.203 311.601,170.000 311.884,170.000 312.400 M213.800 312.000 C 213.508 312.472,213.887 313.200,214.424 313.200 C 214.631 313.200,214.800 312.840,214.800 312.400 C 214.800 311.556,214.218 311.324,213.800 312.000 M170.800 314.124 C 170.800 314.449,171.083 314.823,171.429 314.956 C 171.868 315.124,172.019 314.996,171.929 314.532 C 171.765 313.685,170.800 313.337,170.800 314.124 M213.067 313.867 C 212.553 314.381,212.799 315.175,213.400 314.945 C 213.730 314.818,214.000 314.464,214.000 314.157 C 214.000 313.569,213.515 313.418,213.067 313.867 M171.600 316.600 C 171.600 316.967,171.793 317.202,172.030 317.123 C 172.267 317.045,172.460 316.809,172.460 316.600 C 172.460 316.391,172.267 316.156,172.030 316.077 C 171.793 315.998,171.600 316.233,171.600 316.600 M212.000 316.571 C 212.000 316.885,211.529 317.512,210.954 317.965 C 209.651 318.989,200.854 326.731,200.000 327.604 C 199.890 327.717,196.830 330.409,193.200 333.587 C 189.570 336.765,185.880 340.046,185.000 340.878 C 183.438 342.356,182.400 342.803,182.400 342.000 C 182.400 341.780,182.130 341.600,181.800 341.600 C 181.470 341.600,181.200 341.870,181.200 342.200 C 181.200 342.530,181.380 342.800,181.600 342.800 C 181.820 342.800,182.000 343.160,182.000 343.600 C 182.000 344.040,182.180 344.400,182.400 344.400 C 182.620 344.400,182.800 344.951,182.800 345.624 C 182.800 346.337,182.967 346.744,183.200 346.600 C 183.427 346.460,183.600 346.796,183.600 347.376 C 183.600 347.939,183.780 348.400,184.000 348.400 C 184.220 348.400,184.400 348.940,184.400 349.600 C 184.400 350.260,184.580 350.800,184.800 350.800 C 185.020 350.800,185.200 351.239,185.200 351.776 C 185.200 352.313,185.380 352.864,185.600 353.000 C 185.820 353.136,186.000 353.597,186.000 354.024 C 186.000 354.451,186.180 354.800,186.400 354.800 C 186.620 354.800,186.800 355.340,186.800 356.000 C 186.800 356.660,186.980 357.200,187.200 357.200 C 187.420 357.200,187.600 357.650,187.600 358.200 C 187.600 358.750,187.780 359.200,188.000 359.200 C 188.220 359.200,188.400 359.650,188.400 360.200 C 188.400 360.750,188.580 361.200,188.800 361.200 C 189.020 361.200,189.200 361.740,189.200 362.400 C 189.200 363.060,189.380 363.600,189.600 363.600 C 189.820 363.600,190.000 364.050,190.000 364.600 C 190.000 365.150,190.180 365.600,190.400 365.600 C 190.620 365.600,190.800 366.050,190.800 366.600 C 190.800 367.150,190.980 367.600,191.200 367.600 C 191.420 367.600,191.600 367.960,191.600 368.400 C 191.600 368.933,191.867 369.200,192.400 369.200 C 192.933 369.200,193.200 368.933,193.200 368.400 C 193.200 367.960,193.380 367.600,193.600 367.600 C 193.820 367.600,194.000 367.150,194.000 366.600 C 194.000 366.050,194.180 365.600,194.400 365.600 C 194.620 365.600,194.800 365.060,194.800 364.400 C 194.800 363.740,194.980 363.200,195.200 363.200 C 195.420 363.200,195.600 362.750,195.600 362.200 C 195.600 361.650,195.780 361.200,196.000 361.200 C 196.220 361.200,196.400 360.750,196.400 360.200 C 196.400 359.650,196.580 359.200,196.800 359.200 C 197.020 359.200,197.200 358.750,197.200 358.200 C 197.200 357.650,197.380 357.200,197.600 357.200 C 197.820 357.200,198.000 356.660,198.000 356.000 C 198.000 355.340,198.180 354.800,198.400 354.800 C 198.620 354.800,198.800 354.350,198.800 353.800 C 198.800 353.250,198.980 352.800,199.200 352.800 C 199.420 352.800,199.600 352.350,199.600 351.800 C 199.600 351.250,199.780 350.800,200.000 350.800 C 200.220 350.800,200.400 350.260,200.400 349.600 C 200.400 348.940,200.580 348.400,200.800 348.400 C 201.020 348.400,201.200 347.950,201.200 347.400 C 201.200 346.850,201.380 346.400,201.600 346.400 C 201.820 346.400,202.000 345.950,202.000 345.400 C 202.000 344.850,202.180 344.400,202.400 344.400 C 202.620 344.400,202.800 343.860,202.800 343.200 C 202.800 342.540,202.980 342.000,203.200 342.000 C 203.420 342.000,203.600 341.550,203.600 341.000 C 203.600 340.450,203.780 340.000,204.000 340.000 C 204.220 340.000,204.400 339.550,204.400 339.000 C 204.400 338.450,204.580 338.000,204.800 338.000 C 205.020 338.000,205.200 337.460,205.200 336.800 C 205.200 336.140,205.380 335.600,205.600 335.600 C 205.820 335.600,206.000 335.150,206.000 334.600 C 206.000 334.050,206.180 333.600,206.400 333.600 C 206.620 333.600,206.800 333.150,206.800 332.600 C 206.800 332.050,206.980 331.600,207.200 331.600 C 207.420 331.600,207.600 331.060,207.600 330.400 C 207.600 329.740,207.780 329.200,208.000 329.200 C 208.220 329.200,208.400 328.739,208.400 328.176 C 208.400 327.596,208.573 327.260,208.800 327.400 C 209.033 327.544,209.200 327.137,209.200 326.424 C 209.200 325.751,209.380 325.200,209.600 325.200 C 209.820 325.200,210.000 324.660,210.000 324.000 C 210.000 323.340,210.180 322.800,210.400 322.800 C 210.620 322.800,210.800 322.350,210.800 321.800 C 210.800 321.250,210.980 320.800,211.200 320.800 C 211.420 320.800,211.600 320.476,211.600 320.080 C 211.600 319.186,212.494 317.207,212.900 317.203 C 213.065 317.201,213.200 316.930,213.200 316.600 C 213.200 316.270,212.930 316.000,212.600 316.000 C 212.270 316.000,212.000 316.257,212.000 316.571 M178.800 335.833 C 178.800 336.182,179.014 336.395,179.275 336.308 C 180.017 336.061,180.140 335.200,179.433 335.200 C 179.085 335.200,178.800 335.485,178.800 335.833 M179.600 338.000 C 179.600 338.516,179.803 338.799,180.100 338.700 C 180.375 338.608,180.600 338.293,180.600 338.000 C 180.600 337.707,180.375 337.392,180.100 337.300 C 179.803 337.201,179.600 337.484,179.600 338.000 M180.400 339.724 C 180.400 340.049,180.683 340.423,181.029 340.556 C 181.468 340.724,181.619 340.596,181.529 340.132 C 181.365 339.285,180.400 338.937,180.400 339.724 "
              stroke="none" fill="#fba42d" fill-rule="evenodd"></path>
        <path id="path2"
              d="M183.600 31.540 C 183.600 31.935,183.116 32.042,181.805 31.938 C 180.543 31.837,179.948 31.959,179.798 32.349 C 179.649 32.739,179.174 32.835,178.193 32.676 C 177.144 32.506,176.800 32.592,176.800 33.025 C 176.800 33.395,176.380 33.600,175.624 33.600 C 174.977 33.600,174.325 33.797,174.177 34.038 C 174.028 34.278,173.477 34.393,172.953 34.293 C 172.326 34.173,172.000 34.297,172.000 34.655 C 172.000 34.970,171.577 35.200,171.000 35.200 C 170.450 35.200,170.000 35.380,170.000 35.600 C 170.000 35.820,169.640 36.000,169.200 36.000 C 168.760 36.000,168.400 36.180,168.400 36.400 C 168.400 36.620,168.147 36.800,167.838 36.800 C 167.081 36.800,164.000 38.465,164.000 38.874 C 164.000 39.053,163.640 39.200,163.200 39.200 C 162.760 39.200,162.400 39.380,162.400 39.600 C 162.400 39.820,162.128 40.000,161.796 40.000 C 161.464 40.000,160.628 40.540,159.937 41.200 C 159.246 41.860,158.515 42.400,158.311 42.400 C 157.827 42.400,148.800 51.427,148.800 51.911 C 148.800 52.115,148.260 52.846,147.600 53.537 C 146.940 54.228,146.400 54.982,146.400 55.213 C 146.400 55.444,146.040 56.020,145.600 56.492 C 145.160 56.964,144.800 57.587,144.800 57.875 C 144.800 58.164,144.620 58.400,144.400 58.400 C 144.180 58.400,144.000 58.760,144.000 59.200 C 144.000 59.640,143.820 60.000,143.600 60.000 C 143.380 60.000,143.200 60.360,143.200 60.800 C 143.200 61.240,143.020 61.600,142.800 61.600 C 142.580 61.600,142.400 61.960,142.400 62.400 C 142.400 62.840,142.220 63.200,142.000 63.200 C 141.780 63.200,141.600 63.560,141.600 64.000 C 141.600 64.440,141.336 64.800,141.013 64.800 C 140.643 64.800,140.515 65.033,140.666 65.427 C 140.882 65.992,140.631 66.777,139.553 68.895 C 139.359 69.277,139.200 70.047,139.200 70.607 C 139.200 71.167,138.944 71.723,138.630 71.844 C 138.226 71.999,138.125 72.458,138.281 73.424 C 138.450 74.464,138.344 74.846,137.834 75.042 C 137.291 75.251,137.215 75.626,137.428 77.044 C 137.723 79.014,137.374 80.954,136.788 80.593 C 136.047 80.134,136.302 89.959,137.051 90.708 C 137.577 91.234,137.658 91.887,137.475 94.080 C 137.281 96.384,137.343 96.800,137.876 96.800 C 138.378 96.800,138.462 97.119,138.294 98.373 C 138.136 99.553,138.236 100.005,138.693 100.180 C 139.143 100.353,139.243 100.778,139.076 101.807 C 138.900 102.896,138.986 103.200,139.471 103.200 C 139.930 103.200,140.046 103.506,139.918 104.379 C 139.823 105.027,139.893 105.466,140.075 105.354 C 140.257 105.241,140.511 105.476,140.639 105.875 C 141.230 107.711,143.246 112.031,144.276 113.670 C 145.000 114.822,144.532 116.000,143.351 116.000 C 143.048 116.000,142.800 116.180,142.800 116.400 C 142.800 116.620,142.599 116.800,142.353 116.800 C 141.024 116.800,128.000 128.489,128.000 129.682 C 128.000 129.848,127.281 130.932,126.402 132.092 C 125.523 133.251,124.803 134.403,124.802 134.651 C 124.801 134.899,124.539 135.319,124.219 135.584 C 123.539 136.149,121.600 139.920,121.600 140.679 C 121.600 140.965,121.420 141.200,121.200 141.200 C 120.980 141.200,120.800 141.650,120.800 142.200 C 120.800 142.750,120.620 143.200,120.400 143.200 C 120.180 143.200,120.000 143.650,120.000 144.200 C 120.000 144.750,119.820 145.200,119.600 145.200 C 119.380 145.200,119.200 145.639,119.200 146.176 C 119.200 146.713,119.020 147.264,118.800 147.400 C 118.580 147.536,118.400 148.256,118.400 149.000 C 118.400 149.744,118.220 150.464,118.000 150.600 C 117.780 150.736,117.600 151.737,117.600 152.824 C 117.600 154.138,117.433 154.800,117.100 154.800 C 116.716 154.800,116.600 156.787,116.600 163.400 C 116.600 170.014,116.715 172.000,117.100 172.000 C 117.433 172.000,117.600 172.667,117.600 174.000 C 117.600 175.100,117.780 176.000,118.000 176.000 C 118.220 176.000,118.400 176.720,118.400 177.600 C 118.400 178.480,118.580 179.200,118.800 179.200 C 119.020 179.200,119.200 179.740,119.200 180.400 C 119.200 181.060,119.380 181.600,119.600 181.600 C 119.820 181.600,120.000 182.039,120.000 182.576 C 120.000 183.113,120.180 183.664,120.400 183.800 C 120.620 183.936,120.800 184.382,120.800 184.790 C 120.800 185.199,120.936 185.593,121.102 185.667 C 121.268 185.740,122.031 187.060,122.799 188.600 C 123.566 190.140,124.735 192.183,125.397 193.141 C 126.059 194.098,126.780 195.178,127.000 195.541 C 127.220 195.903,127.580 196.333,127.800 196.496 C 128.117 196.730,197.600 196.794,197.600 196.560 C 197.600 196.525,196.271 195.497,194.648 194.275 C 182.788 185.348,175.724 173.524,172.843 157.776 C 171.925 152.754,172.451 140.022,173.633 138.654 C 173.798 138.463,175.703 138.769,177.866 139.333 C 203.764 146.082,229.565 134.568,241.759 110.818 C 243.669 107.098,245.801 101.217,246.238 98.466 C 246.389 97.512,246.747 96.642,247.034 96.532 C 247.408 96.388,247.490 95.789,247.326 94.403 C 247.060 92.163,247.468 89.471,248.020 89.812 C 248.740 90.258,248.480 83.765,247.754 83.162 C 247.229 82.726,247.141 82.043,247.287 79.530 C 247.429 77.065,247.347 76.388,246.881 76.210 C 246.452 76.045,246.353 75.568,246.507 74.420 C 246.664 73.247,246.564 72.795,246.107 72.620 C 245.657 72.447,245.557 72.022,245.724 70.993 C 245.900 69.904,245.814 69.600,245.329 69.600 C 244.868 69.600,244.754 69.293,244.885 68.400 C 245.006 67.581,244.893 67.200,244.531 67.200 C 244.231 67.200,244.000 66.764,244.000 66.200 C 244.000 65.650,243.799 65.200,243.553 65.200 C 243.293 65.200,243.186 64.784,243.298 64.200 C 243.426 63.529,243.310 63.200,242.945 63.200 C 242.645 63.200,242.400 62.840,242.400 62.400 C 242.400 61.960,242.220 61.600,242.000 61.600 C 241.780 61.600,241.600 61.240,241.600 60.800 C 241.600 60.360,241.420 60.000,241.200 60.000 C 240.980 60.000,240.800 59.764,240.800 59.475 C 240.800 59.187,240.440 58.564,240.000 58.092 C 239.560 57.620,239.200 56.956,239.200 56.617 C 239.200 56.278,239.050 56.000,238.868 56.000 C 238.685 56.000,238.281 55.505,237.970 54.900 C 237.660 54.295,237.089 53.509,236.703 53.153 C 236.316 52.797,236.000 52.308,236.000 52.066 C 236.000 51.522,226.925 42.400,226.384 42.400 C 226.169 42.400,225.428 41.860,224.737 41.200 C 224.046 40.540,223.238 40.000,222.941 40.000 C 222.643 40.000,222.400 39.820,222.400 39.600 C 222.400 39.380,222.040 39.200,221.600 39.200 C 221.160 39.200,220.800 39.054,220.800 38.875 C 220.800 38.696,220.170 38.302,219.400 38.000 C 218.630 37.698,218.000 37.304,218.000 37.125 C 218.000 36.946,217.735 36.800,217.412 36.800 C 217.089 36.800,216.183 36.440,215.400 36.000 C 214.617 35.560,213.711 35.200,213.388 35.200 C 213.065 35.200,212.800 34.934,212.800 34.610 C 212.800 34.168,212.499 34.080,211.600 34.260 C 210.707 34.439,210.400 34.351,210.400 33.919 C 210.400 33.502,210.063 33.388,209.200 33.515 C 208.307 33.646,208.000 33.532,208.000 33.071 C 208.000 32.586,207.696 32.500,206.607 32.676 C 205.586 32.842,205.153 32.742,204.984 32.303 C 204.810 31.850,204.320 31.752,202.977 31.904 C 201.636 32.055,201.200 31.969,201.200 31.552 C 201.200 31.099,199.616 31.000,192.400 31.000 C 185.277 31.000,183.600 31.103,183.600 31.540 M217.458 41.748 C 220.444 44.317,217.033 49.037,213.541 47.169 C 212.332 46.522,211.606 44.501,212.087 43.122 C 212.910 40.762,215.532 40.091,217.458 41.748 M205.571 43.785 C 208.685 45.395,207.216 50.000,203.589 50.000 C 202.379 50.000,200.400 47.890,200.400 46.600 C 200.400 44.181,203.293 42.607,205.571 43.785 M226.328 47.324 C 228.792 49.947,226.169 53.914,222.757 52.725 C 221.382 52.246,220.229 50.151,220.664 48.922 C 221.558 46.394,224.638 45.525,226.328 47.324 M216.142 52.581 C 218.406 54.679,216.778 58.400,213.596 58.400 C 213.124 58.400,212.212 57.874,211.569 57.231 C 208.511 54.172,212.968 49.639,216.142 52.581 M208.089 58.711 C 210.120 60.743,208.614 64.400,205.746 64.400 C 202.233 64.400,201.132 59.890,204.200 58.067 C 205.201 57.472,207.177 57.799,208.089 58.711 M227.631 60.769 C 229.339 62.478,229.000 65.016,226.937 65.956 C 223.270 67.627,220.185 63.198,223.231 60.636 C 224.843 59.279,226.181 59.319,227.631 60.769 M216.612 67.432 C 220.104 69.089,218.109 74.999,214.489 73.724 C 210.876 72.450,211.325 67.695,215.140 66.832 C 215.216 66.814,215.879 67.085,216.612 67.432 "
              stroke="none" fill="#46beab" fill-rule="evenodd"></path>
        <path id="path3"
              d="M200.900 197.487 C 202.704 197.760,202.305 198.133,194.952 203.069 C 191.076 205.671,187.701 207.993,187.452 208.228 C 187.203 208.463,184.030 210.666,180.400 213.123 C 176.770 215.581,170.830 219.631,167.200 222.124 C 163.570 224.616,157.720 228.631,154.200 231.046 C 142.935 238.772,143.229 238.479,144.400 240.805 C 144.620 241.242,144.980 241.958,145.200 242.395 C 145.420 242.832,145.600 243.464,145.600 243.800 C 145.600 244.136,145.768 244.723,145.974 245.105 C 146.179 245.487,146.584 246.387,146.873 247.105 C 147.534 248.743,146.632 249.223,157.320 241.548 C 168.022 233.865,170.615 232.017,174.052 229.630 C 175.453 228.657,176.690 227.743,176.800 227.600 C 176.910 227.457,178.170 226.557,179.600 225.600 C 181.030 224.643,182.290 223.743,182.400 223.600 C 182.510 223.457,183.747 222.543,185.148 221.570 C 188.611 219.165,190.996 217.462,203.602 208.400 C 209.570 204.110,215.385 199.934,216.526 199.119 L 218.600 197.639 228.100 197.619 C 238.701 197.598,238.702 197.598,235.152 200.085 C 233.805 201.028,231.577 202.610,230.200 203.600 C 228.823 204.590,226.567 206.191,225.186 207.157 C 223.806 208.123,222.389 209.158,222.038 209.456 C 221.687 209.754,220.556 210.583,219.525 211.299 C 218.494 212.014,214.027 215.210,209.599 218.400 C 199.964 225.341,197.311 227.234,193.948 229.570 C 192.547 230.543,191.310 231.457,191.200 231.600 C 191.090 231.743,189.920 232.604,188.600 233.514 C 187.280 234.424,182.690 237.703,178.400 240.800 C 174.110 243.897,169.520 247.176,168.200 248.086 C 166.880 248.996,165.710 249.855,165.600 249.996 C 165.490 250.137,164.500 250.864,163.400 251.610 C 162.300 252.357,160.663 253.515,159.763 254.184 C 158.863 254.853,156.765 256.370,155.100 257.557 C 151.933 259.814,150.859 261.713,152.283 262.539 C 152.664 262.760,152.783 263.212,152.626 263.839 C 152.445 264.560,152.548 264.800,153.039 264.800 C 153.492 264.800,153.630 265.041,153.488 265.585 C 153.375 266.017,153.538 266.583,153.850 266.842 C 154.168 267.106,154.314 267.640,154.182 268.056 C 154.021 268.565,154.144 268.800,154.573 268.800 C 154.918 268.800,155.200 268.985,155.200 269.212 C 155.200 269.601,159.724 266.732,162.800 264.393 C 164.585 263.036,175.964 254.974,178.600 253.200 C 179.700 252.459,180.690 251.736,180.800 251.594 C 180.910 251.452,182.350 250.406,184.000 249.269 C 185.650 248.133,188.260 246.302,189.800 245.200 C 191.340 244.098,193.860 242.306,195.400 241.218 C 196.940 240.129,199.730 238.147,201.600 236.812 C 203.470 235.477,206.350 233.457,208.000 232.324 C 209.650 231.191,211.090 230.146,211.200 230.002 C 211.310 229.858,212.570 228.956,214.000 227.997 C 215.430 227.039,217.230 225.775,218.000 225.189 C 218.770 224.603,222.550 221.908,226.400 219.200 C 230.250 216.492,234.030 213.796,234.800 213.209 C 235.570 212.622,237.550 211.211,239.200 210.073 C 240.850 208.935,243.396 207.148,244.857 206.102 C 246.319 205.056,249.109 203.080,251.057 201.711 C 253.006 200.341,255.140 198.773,255.800 198.225 L 257.000 197.229 228.400 197.274 C 212.670 197.299,200.295 197.395,200.900 197.487 M163.551 200.261 C 161.268 201.724,157.510 204.128,155.200 205.604 C 152.890 207.079,148.660 209.800,145.800 211.651 C 142.940 213.501,139.581 215.626,138.334 216.371 C 135.939 217.805,135.040 219.444,136.268 220.139 C 136.665 220.363,136.786 220.803,136.625 221.441 C 136.459 222.104,136.543 222.373,136.892 222.303 C 137.173 222.246,137.400 222.573,137.400 223.035 C 137.400 223.495,137.628 224.147,137.907 224.485 C 138.186 224.822,138.301 225.391,138.164 225.749 C 137.230 228.185,143.093 224.521,179.000 200.238 C 182.932 197.579,182.965 197.600,174.885 197.600 L 167.703 197.600 163.551 200.261 M245.831 222.750 C 245.712 222.943,243.496 224.600,240.907 226.431 C 238.318 228.263,236.110 229.869,236.000 230.000 C 235.890 230.131,233.730 231.717,231.200 233.525 C 228.670 235.333,224.620 238.254,222.200 240.018 C 216.998 243.808,210.470 248.549,202.400 254.400 C 201.190 255.277,199.210 256.717,198.000 257.600 C 196.790 258.483,194.810 259.923,193.600 260.800 C 192.390 261.677,190.468 263.071,189.328 263.897 C 188.189 264.724,185.129 266.921,182.528 268.781 C 179.928 270.640,177.710 272.269,177.600 272.400 C 177.490 272.531,175.330 274.115,172.800 275.919 C 160.350 284.800,159.686 285.369,160.951 286.077 C 161.404 286.330,161.529 286.743,161.359 287.421 C 161.170 288.175,161.271 288.400,161.800 288.400 C 162.325 288.400,162.430 288.626,162.246 289.358 C 162.082 290.012,162.199 290.391,162.613 290.550 C 163.049 290.717,163.144 291.084,162.951 291.851 C 162.770 292.573,162.824 292.832,163.117 292.651 C 163.356 292.504,163.725 292.695,163.938 293.076 C 164.310 293.740,166.663 292.440,170.000 289.726 C 170.781 289.091,178.192 283.655,180.000 282.390 C 180.770 281.852,181.670 281.194,182.000 280.928 C 182.330 280.662,183.770 279.593,185.200 278.553 C 190.198 274.917,191.829 273.724,195.800 270.800 C 198.000 269.180,200.700 267.199,201.800 266.397 C 202.900 265.596,205.240 263.885,207.000 262.595 C 208.760 261.305,211.460 259.326,213.000 258.198 C 214.540 257.070,217.510 254.890,219.600 253.355 C 221.690 251.819,224.030 250.123,224.800 249.587 C 225.570 249.050,226.470 248.392,226.800 248.125 C 227.641 247.443,235.109 241.971,236.800 240.798 C 237.570 240.263,238.432 239.602,238.715 239.327 C 238.998 239.053,239.763 238.513,240.415 238.128 C 241.067 237.743,241.600 237.286,241.600 237.114 C 241.600 236.941,241.882 236.800,242.227 236.800 C 242.672 236.800,242.780 236.568,242.599 235.998 C 242.431 235.466,242.555 235.115,242.970 234.956 C 243.401 234.791,243.520 234.420,243.354 233.758 C 243.174 233.041,243.277 232.800,243.764 232.800 C 244.258 232.800,244.355 232.560,244.165 231.804 C 243.986 231.089,244.100 230.736,244.569 230.556 C 244.982 230.398,245.139 230.038,244.994 229.582 C 244.853 229.136,245.025 228.714,245.444 228.479 C 245.865 228.244,246.026 227.846,245.869 227.434 C 245.714 227.031,245.846 226.681,246.204 226.543 C 246.602 226.391,246.716 226.004,246.554 225.358 C 246.375 224.645,246.478 224.400,246.957 224.400 C 247.644 224.400,247.747 224.048,247.357 223.033 C 247.095 222.350,246.183 222.181,245.831 222.750 M232.800 260.292 C 232.283 260.490,228.308 263.416,226.950 264.600 C 226.697 264.820,225.255 265.945,223.745 267.100 C 221.578 268.758,206.845 280.157,202.524 283.519 C 202.043 283.893,200.423 285.145,198.924 286.300 C 197.426 287.455,192.312 291.415,187.561 295.100 C 182.809 298.785,178.325 302.250,177.597 302.800 C 176.122 303.914,172.046 307.117,170.200 308.613 C 169.276 309.362,169.163 309.587,169.708 309.593 C 170.251 309.598,170.360 309.820,170.178 310.546 C 170.012 311.208,170.137 311.567,170.598 311.744 C 171.025 311.908,171.171 312.260,171.016 312.751 C 170.860 313.241,171.006 313.593,171.431 313.756 C 171.890 313.933,172.014 314.292,171.845 314.962 C 171.687 315.591,171.799 315.991,172.172 316.134 C 172.484 316.254,172.654 316.676,172.552 317.076 C 171.942 319.448,173.945 318.917,178.124 315.600 C 183.563 311.281,183.246 311.534,184.643 310.400 C 185.321 309.850,186.574 308.860,187.428 308.200 C 189.550 306.560,205.417 293.969,207.843 292.000 C 208.521 291.450,209.774 290.460,210.629 289.800 C 223.371 279.960,228.580 275.446,228.234 274.544 C 228.113 274.228,228.279 273.868,228.604 273.743 C 229.001 273.591,229.116 273.204,228.955 272.562 C 228.786 271.892,228.910 271.533,229.369 271.356 C 229.794 271.193,229.940 270.841,229.784 270.351 C 229.629 269.860,229.775 269.508,230.202 269.344 C 230.663 269.167,230.788 268.808,230.622 268.146 C 230.445 267.442,230.551 267.200,231.036 267.200 C 231.532 267.200,231.627 266.960,231.434 266.191 C 231.255 265.478,231.363 265.112,231.802 264.944 C 232.186 264.797,232.336 264.429,232.194 263.982 C 232.053 263.536,232.225 263.114,232.644 262.879 C 233.083 262.634,233.228 262.251,233.055 261.799 C 232.907 261.414,232.991 260.851,233.242 260.549 C 233.733 259.958,233.710 259.945,232.800 260.292 M215.996 302.112 C 215.448 302.613,211.670 305.806,207.600 309.206 C 203.530 312.606,200.110 315.484,200.000 315.600 C 199.890 315.716,198.810 316.616,197.600 317.600 C 196.390 318.584,195.310 319.481,195.200 319.595 C 194.935 319.867,191.321 322.913,185.200 328.024 C 178.937 333.253,179.384 332.811,179.060 334.104 C 178.849 334.943,178.929 335.200,179.400 335.200 C 179.847 335.200,179.950 335.458,179.778 336.146 C 179.612 336.808,179.737 337.167,180.198 337.344 C 180.625 337.508,180.771 337.860,180.616 338.351 C 180.460 338.841,180.606 339.193,181.031 339.356 C 181.500 339.536,181.614 339.889,181.435 340.604 C 181.251 341.338,181.345 341.600,181.792 341.600 C 182.127 341.600,182.400 341.780,182.400 342.000 C 182.400 342.803,183.438 342.356,185.000 340.878 C 185.880 340.046,189.570 336.765,193.200 333.587 C 196.830 330.409,199.890 327.717,200.000 327.604 C 200.854 326.731,209.651 318.989,210.954 317.965 C 211.529 317.512,212.000 316.885,212.000 316.571 C 212.000 316.257,212.273 316.000,212.608 316.000 C 213.055 316.000,213.149 315.738,212.965 315.004 C 212.786 314.289,212.900 313.936,213.369 313.756 C 213.794 313.593,213.940 313.241,213.784 312.751 C 213.629 312.260,213.775 311.908,214.202 311.744 C 214.663 311.567,214.788 311.208,214.622 310.546 C 214.450 309.858,214.553 309.600,215.000 309.600 C 215.456 309.600,215.550 309.342,215.365 308.604 C 215.186 307.889,215.300 307.536,215.769 307.356 C 216.182 307.198,216.339 306.838,216.194 306.382 C 216.053 305.936,216.225 305.514,216.644 305.279 C 217.051 305.052,217.225 304.642,217.078 304.260 C 216.941 303.902,217.084 303.481,217.403 303.302 C 217.759 303.103,217.886 302.649,217.740 302.092 C 217.448 300.975,217.235 300.978,215.996 302.112 "
              stroke="none" fill="#f4581c" fill-rule="evenodd"></path>
        <path id="path4"
              d="M213.680 42.480 C 212.770 43.390,213.091 45.806,214.200 46.400 C 216.278 47.512,218.290 44.962,216.962 42.900 C 216.321 41.906,214.488 41.672,213.680 42.480 M201.899 45.522 C 200.803 47.720,202.965 49.897,204.951 48.595 C 206.097 47.844,206.414 45.774,205.520 44.880 C 204.573 43.933,202.509 44.299,201.899 45.522 M222.009 48.577 C 221.189 50.732,222.892 52.402,225.066 51.575 C 225.926 51.248,226.031 50.993,225.923 49.501 C 225.765 47.312,222.759 46.603,222.009 48.577 M212.500 53.070 C 210.655 54.357,211.625 57.200,213.909 57.200 C 216.346 57.200,217.206 54.629,215.238 53.227 C 213.871 52.254,213.685 52.243,212.500 53.070 M204.098 59.262 C 203.199 60.161,203.479 62.600,204.547 63.172 C 206.682 64.314,208.763 62.211,207.588 60.100 C 206.906 58.876,204.953 58.407,204.098 59.262 M223.855 61.455 C 222.620 62.689,222.588 62.905,223.446 64.214 C 224.157 65.299,226.252 65.588,227.120 64.720 C 228.092 63.748,227.700 61.672,226.420 61.010 C 224.933 60.241,225.096 60.213,223.855 61.455 M213.467 68.667 C 212.705 69.429,213.215 72.025,214.200 72.400 C 216.321 73.207,217.997 71.497,217.184 69.357 C 216.825 68.412,214.207 67.926,213.467 68.667 "
              stroke="none" fill="#246c64" fill-rule="evenodd"></path>
        <path id="path5"
              d="M184.500 30.500 C 184.626 30.877,186.569 31.000,192.400 31.000 C 198.231 31.000,200.174 30.877,200.300 30.500 C 200.430 30.111,198.676 30.000,192.400 30.000 C 186.124 30.000,184.370 30.111,184.500 30.500 M179.800 31.200 C 179.664 31.420,179.008 31.600,178.343 31.600 C 177.554 31.600,177.190 31.774,177.298 32.100 C 177.527 32.797,179.556 32.979,179.808 32.324 C 179.947 31.962,180.578 31.840,181.805 31.938 C 183.244 32.052,183.600 31.953,183.600 31.440 C 183.600 30.705,180.237 30.492,179.800 31.200 M201.200 31.424 C 201.200 31.899,201.552 32.019,202.669 31.924 C 204.779 31.746,204.917 30.800,202.833 30.800 C 201.620 30.800,201.200 30.961,201.200 31.424 M204.900 32.100 C 204.992 32.375,205.577 32.600,206.200 32.600 C 206.823 32.600,207.408 32.375,207.500 32.100 C 207.613 31.761,207.196 31.600,206.200 31.600 C 205.204 31.600,204.787 31.761,204.900 32.100 M174.000 32.800 C 174.000 33.020,173.561 33.200,173.024 33.200 C 172.487 33.200,171.936 33.380,171.800 33.600 C 171.664 33.820,171.203 34.000,170.776 34.000 C 170.349 34.000,170.000 34.180,170.000 34.400 C 170.000 34.620,169.640 34.800,169.200 34.800 C 168.760 34.800,168.400 34.980,168.400 35.200 C 168.400 35.420,168.040 35.600,167.600 35.600 C 167.160 35.600,166.800 35.780,166.800 36.000 C 166.800 36.220,166.440 36.400,166.000 36.400 C 165.560 36.400,165.200 36.580,165.200 36.800 C 165.200 37.020,164.840 37.200,164.400 37.200 C 163.960 37.200,163.600 37.380,163.600 37.600 C 163.600 37.820,163.240 38.000,162.800 38.000 C 162.360 38.000,162.000 38.180,162.000 38.400 C 162.000 38.620,161.757 38.800,161.459 38.800 C 161.162 38.800,160.354 39.340,159.663 40.000 C 158.972 40.660,158.224 41.200,158.000 41.200 C 157.468 41.200,147.600 51.068,147.600 51.600 C 147.600 51.824,147.060 52.572,146.400 53.263 C 145.740 53.954,145.200 54.762,145.200 55.059 C 145.200 55.357,145.020 55.600,144.800 55.600 C 144.580 55.600,144.400 55.920,144.400 56.312 C 144.400 56.703,144.040 57.283,143.600 57.600 C 143.160 57.917,142.800 58.497,142.800 58.888 C 142.800 59.280,142.620 59.600,142.400 59.600 C 142.180 59.600,142.000 59.960,142.000 60.400 C 142.000 60.840,141.820 61.200,141.600 61.200 C 141.380 61.200,141.200 61.560,141.200 62.000 C 141.200 62.440,141.020 62.800,140.800 62.800 C 140.580 62.800,140.400 63.149,140.400 63.576 C 140.400 64.003,140.220 64.464,140.000 64.600 C 139.780 64.736,139.600 65.287,139.600 65.824 C 139.600 66.361,139.420 66.800,139.200 66.800 C 138.980 66.800,138.800 67.340,138.800 68.000 C 138.800 68.660,138.620 69.200,138.400 69.200 C 138.180 69.200,138.000 69.845,138.000 70.633 C 138.000 72.269,138.923 72.381,139.117 70.769 C 139.225 69.869,139.471 69.190,140.507 66.927 C 140.726 66.447,140.798 65.772,140.666 65.427 C 140.515 65.033,140.643 64.800,141.013 64.800 C 141.336 64.800,141.600 64.440,141.600 64.000 C 141.600 63.560,141.780 63.200,142.000 63.200 C 142.220 63.200,142.400 62.840,142.400 62.400 C 142.400 61.960,142.580 61.600,142.800 61.600 C 143.020 61.600,143.200 61.240,143.200 60.800 C 143.200 60.360,143.380 60.000,143.600 60.000 C 143.820 60.000,144.000 59.640,144.000 59.200 C 144.000 58.760,144.180 58.400,144.400 58.400 C 144.620 58.400,144.800 58.164,144.800 57.875 C 144.800 57.587,145.160 56.964,145.600 56.492 C 146.040 56.020,146.400 55.444,146.400 55.213 C 146.400 54.982,146.940 54.228,147.600 53.537 C 148.260 52.846,148.800 52.115,148.800 51.911 C 148.800 51.427,157.827 42.400,158.311 42.400 C 158.515 42.400,159.246 41.860,159.937 41.200 C 160.628 40.540,161.464 40.000,161.796 40.000 C 162.128 40.000,162.400 39.820,162.400 39.600 C 162.400 39.380,162.760 39.200,163.200 39.200 C 163.640 39.200,164.000 39.053,164.000 38.874 C 164.000 38.465,167.081 36.800,167.838 36.800 C 168.147 36.800,168.400 36.620,168.400 36.400 C 168.400 36.180,168.760 36.000,169.200 36.000 C 169.640 36.000,170.000 35.820,170.000 35.600 C 170.000 35.380,170.450 35.200,171.000 35.200 C 171.577 35.200,172.000 34.970,172.000 34.655 C 172.000 34.297,172.326 34.173,172.953 34.293 C 173.477 34.393,174.028 34.278,174.177 34.038 C 174.325 33.797,174.977 33.600,175.624 33.600 C 176.403 33.600,176.800 33.397,176.800 33.000 C 176.800 32.581,176.378 32.400,175.400 32.400 C 174.630 32.400,174.000 32.580,174.000 32.800 M208.000 33.045 C 208.000 33.535,208.290 33.648,209.200 33.515 C 210.045 33.391,210.400 33.504,210.400 33.897 C 210.400 34.243,210.731 34.407,211.269 34.328 C 212.398 34.162,212.729 33.200,211.657 33.200 C 211.212 33.200,210.736 33.020,210.600 32.800 C 210.175 32.112,208.000 32.317,208.000 33.045 M212.800 34.600 C 212.800 34.930,213.065 35.200,213.388 35.200 C 213.711 35.200,214.617 35.560,215.400 36.000 C 216.183 36.440,217.089 36.800,217.412 36.800 C 217.735 36.800,218.000 36.946,218.000 37.125 C 218.000 37.304,218.630 37.698,219.400 38.000 C 220.170 38.302,220.800 38.696,220.800 38.875 C 220.800 39.054,221.160 39.200,221.600 39.200 C 222.040 39.200,222.400 39.380,222.400 39.600 C 222.400 39.820,222.643 40.000,222.941 40.000 C 223.238 40.000,224.046 40.540,224.737 41.200 C 225.428 41.860,226.169 42.400,226.384 42.400 C 226.925 42.400,236.000 51.522,236.000 52.066 C 236.000 52.308,236.316 52.797,236.703 53.153 C 237.089 53.509,237.660 54.295,237.970 54.900 C 238.281 55.505,238.685 56.000,238.868 56.000 C 239.050 56.000,239.200 56.278,239.200 56.617 C 239.200 56.956,239.560 57.620,240.000 58.092 C 240.440 58.564,240.800 59.187,240.800 59.475 C 240.800 59.764,240.980 60.000,241.200 60.000 C 241.420 60.000,241.600 60.360,241.600 60.800 C 241.600 61.240,241.780 61.600,242.000 61.600 C 242.220 61.600,242.400 61.960,242.400 62.400 C 242.400 62.844,242.667 63.200,243.000 63.200 C 243.330 63.200,243.600 62.947,243.600 62.638 C 243.600 61.881,241.935 58.800,241.526 58.800 C 241.347 58.800,241.200 58.440,241.200 58.000 C 241.200 57.560,241.020 57.200,240.800 57.200 C 240.580 57.200,240.400 56.880,240.400 56.488 C 240.400 56.097,240.040 55.517,239.600 55.200 C 239.160 54.883,238.800 54.391,238.800 54.108 C 238.800 53.825,238.260 53.028,237.600 52.337 C 236.940 51.646,236.400 50.919,236.400 50.722 C 236.400 50.178,227.217 41.200,226.660 41.200 C 226.394 41.200,225.917 40.840,225.600 40.400 C 225.283 39.960,224.743 39.600,224.400 39.600 C 224.057 39.600,223.517 39.240,223.200 38.800 C 222.883 38.360,222.303 38.000,221.912 38.000 C 221.520 38.000,221.200 37.820,221.200 37.600 C 221.200 37.380,220.840 37.200,220.400 37.200 C 219.960 37.200,219.600 37.020,219.600 36.800 C 219.600 36.580,219.240 36.400,218.800 36.400 C 218.360 36.400,218.000 36.220,218.000 36.000 C 218.000 35.780,217.640 35.600,217.200 35.600 C 216.760 35.600,216.400 35.420,216.400 35.200 C 216.400 34.980,216.040 34.800,215.600 34.800 C 215.160 34.800,214.800 34.620,214.800 34.400 C 214.800 34.180,214.350 34.000,213.800 34.000 C 213.178 34.000,212.800 34.227,212.800 34.600 M243.200 64.400 C 243.200 64.840,243.380 65.200,243.600 65.200 C 243.820 65.200,244.000 65.650,244.000 66.200 C 244.000 66.822,244.227 67.200,244.600 67.200 C 244.973 67.200,245.200 66.822,245.200 66.200 C 245.200 65.650,245.020 65.200,244.800 65.200 C 244.580 65.200,244.400 64.840,244.400 64.400 C 244.400 63.956,244.133 63.600,243.800 63.600 C 243.467 63.600,243.200 63.956,243.200 64.400 M244.800 68.600 C 244.800 69.222,245.027 69.600,245.400 69.600 C 245.773 69.600,246.000 69.222,246.000 68.600 C 246.000 67.978,245.773 67.600,245.400 67.600 C 245.027 67.600,244.800 67.978,244.800 68.600 M245.754 70.577 C 245.435 71.407,245.718 72.506,246.300 72.700 C 246.638 72.813,246.800 72.402,246.800 71.433 C 246.800 70.001,246.172 69.487,245.754 70.577 M137.200 73.800 C 137.200 74.796,137.361 75.213,137.700 75.100 C 137.975 75.008,138.200 74.423,138.200 73.800 C 138.200 73.177,137.975 72.592,137.700 72.500 C 137.361 72.387,137.200 72.804,137.200 73.800 M246.556 73.771 C 246.222 74.642,246.539 76.117,247.100 76.302 C 247.445 76.416,247.600 75.961,247.600 74.833 C 247.600 73.241,246.995 72.626,246.556 73.771 M136.687 75.846 C 136.273 76.261,136.333 80.311,136.758 80.574 C 136.955 80.696,137.225 80.512,137.358 80.165 C 137.895 78.766,137.340 75.193,136.687 75.846 M247.467 77.467 C 246.912 78.021,247.184 82.689,247.800 83.200 C 248.325 83.636,248.400 83.292,248.400 80.449 C 248.400 77.465,248.178 76.755,247.467 77.467 M135.867 84.267 C 135.442 84.691,135.558 87.600,136.000 87.600 C 136.220 87.600,136.400 86.790,136.400 85.800 C 136.400 83.969,136.339 83.794,135.867 84.267 M247.391 90.906 C 247.035 92.803,247.313 95.310,247.900 95.502 C 248.268 95.623,248.400 94.926,248.400 92.857 C 248.400 89.859,247.804 88.706,247.391 90.906 M136.400 93.033 C 136.400 94.961,136.534 95.623,136.900 95.502 C 137.462 95.318,137.780 92.771,137.420 91.338 C 136.960 89.505,136.400 90.436,136.400 93.033 M246.667 96.667 C 246.520 96.813,246.400 97.276,246.400 97.695 C 246.400 98.388,246.457 98.400,247.029 97.829 C 247.374 97.483,247.824 97.200,248.029 97.200 C 248.233 97.200,248.400 97.020,248.400 96.800 C 248.400 96.353,247.082 96.252,246.667 96.667 M137.200 98.233 C 137.200 100.041,138.144 99.903,138.325 98.069 C 138.418 97.131,138.287 96.800,137.825 96.800 C 137.375 96.800,137.200 97.200,137.200 98.233 M249.600 97.600 C 249.600 97.820,249.870 98.000,250.200 98.000 C 250.530 98.000,250.800 97.820,250.800 97.600 C 250.800 97.380,250.530 97.200,250.200 97.200 C 249.870 97.200,249.600 97.380,249.600 97.600 M251.200 98.400 C 251.200 98.620,251.470 98.800,251.800 98.800 C 252.130 98.800,252.400 98.620,252.400 98.400 C 252.400 98.180,252.130 98.000,251.800 98.000 C 251.470 98.000,251.200 98.180,251.200 98.400 M252.800 99.200 C 252.800 99.420,253.070 99.600,253.400 99.600 C 253.730 99.600,254.000 99.420,254.000 99.200 C 254.000 98.980,253.730 98.800,253.400 98.800 C 253.070 98.800,252.800 98.980,252.800 99.200 M245.829 100.229 C 245.681 100.815,245.651 101.384,245.761 101.494 C 245.871 101.604,246.081 101.215,246.229 100.629 C 246.376 100.042,246.406 99.473,246.296 99.363 C 246.186 99.253,245.976 99.642,245.829 100.229 M138.000 101.400 C 138.000 102.396,138.161 102.813,138.500 102.700 C 138.775 102.608,139.000 102.023,139.000 101.400 C 139.000 100.777,138.775 100.192,138.500 100.100 C 138.161 99.987,138.000 100.404,138.000 101.400 M256.400 100.625 C 256.400 100.925,257.473 102.000,257.771 102.000 C 258.280 102.000,257.951 101.362,257.200 100.893 C 256.760 100.618,256.400 100.498,256.400 100.625 M245.246 102.267 C 245.221 102.524,245.084 103.064,244.941 103.467 C 244.740 104.036,244.794 104.097,245.179 103.742 C 245.452 103.491,245.589 102.951,245.484 102.542 C 245.379 102.134,245.272 102.010,245.246 102.267 M138.800 104.200 C 138.800 104.777,139.030 105.200,139.345 105.200 C 139.703 105.200,139.827 105.526,139.707 106.153 C 139.607 106.677,139.722 107.228,139.962 107.377 C 140.203 107.525,140.400 107.997,140.400 108.424 C 140.400 108.851,140.580 109.200,140.800 109.200 C 141.020 109.200,141.200 109.560,141.200 110.000 C 141.200 110.440,141.380 110.800,141.600 110.800 C 141.820 110.800,142.000 111.160,142.000 111.600 C 142.000 112.040,142.180 112.400,142.400 112.400 C 142.620 112.400,142.800 112.760,142.800 113.200 C 142.800 113.640,142.980 114.000,143.200 114.000 C 143.420 114.000,143.600 114.180,143.600 114.400 C 143.600 114.620,143.364 114.800,143.075 114.800 C 142.787 114.800,142.164 115.160,141.692 115.600 C 141.220 116.040,140.596 116.400,140.305 116.400 C 140.014 116.400,139.517 116.760,139.200 117.200 C 138.883 117.640,138.415 118.000,138.160 118.000 C 137.905 118.000,137.000 118.676,136.148 119.502 C 135.297 120.328,133.970 121.452,133.200 121.999 C 131.681 123.078,130.033 124.801,130.013 125.331 C 130.006 125.514,129.280 126.354,128.400 127.200 C 127.520 128.046,126.800 128.933,126.800 129.172 C 126.800 129.412,126.260 130.172,125.600 130.863 C 124.940 131.554,124.400 132.362,124.400 132.659 C 124.400 132.957,124.220 133.200,124.000 133.200 C 123.780 133.200,123.600 133.520,123.600 133.912 C 123.600 134.303,123.240 134.883,122.800 135.200 C 122.360 135.517,122.000 136.097,122.000 136.488 C 122.000 136.880,121.820 137.200,121.600 137.200 C 121.380 137.200,121.200 137.560,121.200 138.000 C 121.200 138.440,121.020 138.800,120.800 138.800 C 120.580 138.800,120.400 139.160,120.400 139.600 C 120.400 140.040,120.220 140.400,120.000 140.400 C 119.780 140.400,119.600 140.940,119.600 141.600 C 119.600 142.260,119.420 142.800,119.200 142.800 C 118.980 142.800,118.800 143.340,118.800 144.000 C 118.800 144.660,118.620 145.200,118.400 145.200 C 118.180 145.200,118.000 145.740,118.000 146.400 C 118.000 147.060,117.820 147.600,117.600 147.600 C 117.380 147.600,117.200 148.320,117.200 149.200 C 117.200 150.080,117.020 150.800,116.800 150.800 C 116.580 150.800,116.400 151.689,116.400 152.776 C 116.400 153.863,116.220 154.864,116.000 155.000 C 115.365 155.392,115.464 171.712,116.100 171.500 C 116.478 171.373,116.600 169.324,116.600 163.066 C 116.600 156.719,116.716 154.800,117.100 154.800 C 117.433 154.800,117.600 154.138,117.600 152.824 C 117.600 151.737,117.780 150.736,118.000 150.600 C 118.220 150.464,118.400 149.744,118.400 149.000 C 118.400 148.256,118.580 147.536,118.800 147.400 C 119.020 147.264,119.200 146.713,119.200 146.176 C 119.200 145.639,119.380 145.200,119.600 145.200 C 119.820 145.200,120.000 144.750,120.000 144.200 C 120.000 143.650,120.180 143.200,120.400 143.200 C 120.620 143.200,120.800 142.750,120.800 142.200 C 120.800 141.650,120.980 141.200,121.200 141.200 C 121.420 141.200,121.600 140.965,121.600 140.679 C 121.600 139.920,123.539 136.149,124.219 135.584 C 124.539 135.319,124.801 134.899,124.802 134.651 C 124.803 134.403,125.523 133.251,126.402 132.092 C 127.281 130.932,128.000 129.848,128.000 129.682 C 128.000 128.489,141.024 116.800,142.353 116.800 C 142.599 116.800,142.800 116.620,142.800 116.400 C 142.800 116.180,143.048 116.000,143.351 116.000 C 144.532 116.000,145.000 114.822,144.276 113.670 C 143.590 112.579,141.842 109.004,141.111 107.200 C 140.889 106.650,140.548 105.887,140.353 105.505 C 140.159 105.123,140.000 104.448,140.000 104.005 C 140.000 103.556,139.735 103.200,139.400 103.200 C 139.027 103.200,138.800 103.578,138.800 104.200 M261.200 103.825 C 261.200 104.125,262.273 105.200,262.571 105.200 C 263.080 105.200,262.751 104.562,262.000 104.093 C 261.560 103.818,261.200 103.698,261.200 103.825 M264.400 106.157 C 264.400 106.590,271.248 113.285,271.467 113.066 C 271.580 112.953,270.345 111.542,268.723 109.930 C 265.490 106.720,264.400 105.768,264.400 106.157 M241.989 110.315 C 239.762 114.690,239.817 114.560,240.304 114.259 C 240.764 113.975,244.115 107.182,243.901 106.968 C 243.825 106.892,242.965 108.398,241.989 110.315 M238.933 115.900 C 238.556 116.505,238.057 117.260,237.824 117.577 C 237.516 117.996,237.525 118.079,237.860 117.878 C 238.346 117.587,240.099 114.800,239.796 114.800 C 239.698 114.800,239.310 115.295,238.933 115.900 M272.400 115.018 C 272.400 115.432,274.449 117.284,274.667 117.067 C 274.787 116.947,274.424 116.388,273.861 115.824 C 272.865 114.828,272.400 114.572,272.400 115.018 M274.800 118.229 C 274.800 118.653,276.036 119.697,276.267 119.467 C 276.392 119.341,276.217 118.960,275.876 118.619 C 275.241 117.984,274.800 117.824,274.800 118.229 M234.490 121.917 C 232.754 124.034,230.010 126.694,227.602 128.598 C 223.605 131.758,222.445 132.856,224.900 131.153 C 229.054 128.273,234.161 123.387,236.453 120.100 C 238.277 117.484,237.654 118.061,234.490 121.917 M278.000 124.000 C 278.000 124.220,278.180 124.400,278.400 124.400 C 278.620 124.400,278.800 124.760,278.800 125.200 C 278.800 125.640,278.980 126.000,279.200 126.000 C 279.757 126.000,279.677 125.135,279.043 124.300 C 278.452 123.521,278.000 123.391,278.000 124.000 M281.200 131.376 C 281.200 131.693,281.380 132.064,281.600 132.200 C 281.820 132.336,282.000 132.077,282.000 131.624 C 282.000 131.171,281.820 130.800,281.600 130.800 C 281.380 130.800,281.200 131.059,281.200 131.376 M221.400 133.034 C 219.071 134.503,214.040 137.011,212.273 137.584 C 211.433 137.857,210.842 138.175,210.959 138.292 C 211.556 138.890,223.200 133.044,223.200 132.147 C 223.200 131.914,223.091 131.968,221.400 133.034 M282.000 134.000 C 282.000 134.440,282.180 134.800,282.400 134.800 C 282.620 134.800,282.800 134.440,282.800 134.000 C 282.800 133.560,282.620 133.200,282.400 133.200 C 282.180 133.200,282.000 133.560,282.000 134.000 M282.800 137.400 C 282.800 137.950,282.980 138.400,283.200 138.400 C 283.420 138.400,283.600 137.950,283.600 137.400 C 283.600 136.850,283.420 136.400,283.200 136.400 C 282.980 136.400,282.800 136.850,282.800 137.400 M173.423 138.900 C 172.317 142.542,171.992 153.121,172.843 157.776 C 175.724 173.524,182.788 185.348,194.648 194.275 C 196.271 195.497,197.600 196.525,197.600 196.560 C 197.600 196.794,128.117 196.730,127.800 196.496 C 127.580 196.333,127.220 195.903,127.000 195.541 C 126.780 195.178,126.059 194.098,125.397 193.141 C 124.735 192.183,123.566 190.140,122.799 188.600 C 122.031 187.060,121.268 185.740,121.102 185.667 C 120.936 185.593,120.800 185.199,120.800 184.790 C 120.800 184.382,120.620 183.936,120.400 183.800 C 120.180 183.664,120.000 183.113,120.000 182.576 C 120.000 182.039,119.820 181.600,119.600 181.600 C 119.380 181.600,119.200 181.060,119.200 180.400 C 119.200 179.740,119.020 179.200,118.800 179.200 C 118.580 179.200,118.400 178.480,118.400 177.600 C 118.400 176.720,118.220 176.000,118.000 176.000 C 117.780 176.000,117.600 175.100,117.600 174.000 C 117.600 172.489,117.453 172.000,117.000 172.000 C 116.539 172.000,116.400 172.511,116.400 174.200 C 116.400 175.410,116.580 176.400,116.800 176.400 C 117.020 176.400,117.200 177.120,117.200 178.000 C 117.200 178.880,117.380 179.600,117.600 179.600 C 117.820 179.600,118.000 180.039,118.000 180.576 C 118.000 181.113,118.180 181.664,118.400 181.800 C 118.620 181.936,118.800 182.476,118.800 183.000 C 118.800 183.524,118.980 184.064,119.200 184.200 C 119.420 184.336,119.600 184.797,119.600 185.224 C 119.600 185.651,119.780 186.000,120.000 186.000 C 120.220 186.000,120.400 186.360,120.400 186.800 C 120.400 187.240,120.580 187.600,120.800 187.600 C 121.020 187.600,121.200 187.960,121.200 188.400 C 121.200 188.840,121.380 189.200,121.600 189.200 C 121.820 189.200,122.000 189.560,122.000 190.000 C 122.000 190.440,122.180 190.800,122.400 190.800 C 122.620 190.800,122.800 191.120,122.800 191.512 C 122.800 191.903,123.160 192.483,123.600 192.800 C 124.040 193.117,124.400 193.657,124.400 194.000 C 124.400 194.343,124.760 194.883,125.200 195.200 C 125.640 195.517,126.000 196.020,126.000 196.317 C 126.000 197.785,126.408 197.806,150.400 197.555 C 163.270 197.421,179.605 197.405,186.700 197.520 C 200.435 197.743,200.709 197.701,197.774 195.847 C 180.430 184.890,170.105 162.136,173.290 141.891 L 173.780 138.776 174.990 139.012 C 175.902 139.190,176.052 139.145,175.600 138.830 C 174.777 138.257,173.607 138.294,173.423 138.900 M177.200 139.582 C 177.530 139.805,178.145 139.991,178.567 139.994 C 179.590 140.002,179.271 139.773,177.800 139.444 C 176.924 139.248,176.762 139.285,177.200 139.582 M206.000 139.600 C 205.196 139.857,205.157 139.923,205.800 139.932 C 206.240 139.938,206.960 139.789,207.400 139.600 C 208.419 139.162,207.368 139.162,206.000 139.600 M283.600 141.376 C 283.600 142.379,283.780 143.200,284.000 143.200 C 284.220 143.200,284.400 142.491,284.400 141.624 C 284.400 140.757,284.220 139.936,284.000 139.800 C 283.756 139.649,283.600 140.263,283.600 141.376 M180.200 140.397 C 180.964 140.728,183.914 140.955,183.567 140.656 C 183.475 140.577,182.500 140.409,181.400 140.282 C 180.113 140.133,179.685 140.174,180.200 140.397 M202.400 140.400 L 201.000 140.695 202.400 140.741 C 203.170 140.767,204.070 140.613,204.400 140.400 C 205.127 139.930,204.633 139.930,202.400 140.400 M185.000 141.195 C 186.200 141.505,191.481 141.728,191.167 141.456 C 191.075 141.376,189.380 141.215,187.400 141.098 C 185.384 140.979,184.328 141.021,185.000 141.195 M196.000 141.200 L 193.400 141.462 196.000 141.491 C 197.430 141.507,199.050 141.376,199.600 141.200 L 200.600 140.880 199.600 140.909 C 199.050 140.925,197.430 141.056,196.000 141.200 M283.867 156.667 C 283.443 157.090,283.557 159.600,284.000 159.600 C 284.220 159.600,284.400 158.880,284.400 158.000 C 284.400 156.365,284.334 156.200,283.867 156.667 M282.800 162.424 C 282.800 163.137,282.967 163.544,283.200 163.400 C 283.420 163.264,283.600 162.713,283.600 162.176 C 283.600 161.639,283.420 161.200,283.200 161.200 C 282.980 161.200,282.800 161.751,282.800 162.424 M282.000 165.400 C 282.000 165.730,282.180 166.000,282.400 166.000 C 282.620 166.000,282.800 165.730,282.800 165.400 C 282.800 165.070,282.620 164.800,282.400 164.800 C 282.180 164.800,282.000 165.070,282.000 165.400 M281.200 167.800 C 281.200 168.130,281.380 168.400,281.600 168.400 C 281.820 168.400,282.000 168.130,282.000 167.800 C 282.000 167.470,281.820 167.200,281.600 167.200 C 281.380 167.200,281.200 167.470,281.200 167.800 M280.400 170.200 C 280.400 170.530,280.580 170.800,280.800 170.800 C 281.020 170.800,281.200 170.530,281.200 170.200 C 281.200 169.870,281.020 169.600,280.800 169.600 C 280.580 169.600,280.400 169.870,280.400 170.200 M272.860 183.442 C 272.131 184.266,272.600 184.657,273.381 183.876 C 273.721 183.536,274.000 183.154,274.000 183.029 C 274.000 182.609,273.406 182.824,272.860 183.442 M268.463 188.660 C 266.034 191.150,265.167 192.546,267.217 190.667 C 269.184 188.864,271.757 186.001,271.383 186.030 C 271.172 186.047,269.858 187.231,268.463 188.660 M262.500 193.798 C 261.757 194.642,261.894 194.873,262.800 194.307 C 263.240 194.032,263.600 193.671,263.600 193.504 C 263.600 193.027,263.049 193.175,262.500 193.798 M259.300 196.198 C 258.557 197.042,258.694 197.273,259.600 196.707 C 260.040 196.432,260.400 196.071,260.400 195.904 C 260.400 195.427,259.849 195.575,259.300 196.198 M251.600 212.600 C 251.600 212.930,251.780 213.200,252.000 213.200 C 252.220 213.200,252.400 212.930,252.400 212.600 C 252.400 212.270,252.220 212.000,252.000 212.000 C 251.780 212.000,251.600 212.270,251.600 212.600 M133.200 215.000 C 133.200 215.330,133.380 215.600,133.600 215.600 C 133.820 215.600,134.000 215.330,134.000 215.000 C 134.000 214.670,133.820 214.400,133.600 214.400 C 133.380 214.400,133.200 214.670,133.200 215.000 M249.200 219.000 C 249.200 219.330,249.380 219.600,249.600 219.600 C 249.820 219.600,250.000 219.330,250.000 219.000 C 250.000 218.670,249.820 218.400,249.600 218.400 C 249.380 218.400,249.200 218.670,249.200 219.000 M248.400 221.400 C 248.400 221.730,248.580 222.000,248.800 222.000 C 249.020 222.000,249.200 221.730,249.200 221.400 C 249.200 221.070,249.020 220.800,248.800 220.800 C 248.580 220.800,248.400 221.070,248.400 221.400 M142.000 238.200 C 142.000 238.530,142.180 238.800,142.400 238.800 C 142.620 238.800,142.800 238.530,142.800 238.200 C 142.800 237.870,142.620 237.600,142.400 237.600 C 142.180 237.600,142.000 237.870,142.000 238.200 M147.600 253.400 C 147.600 253.730,147.780 254.000,148.000 254.000 C 148.220 254.000,148.400 253.730,148.400 253.400 C 148.400 253.070,148.220 252.800,148.000 252.800 C 147.780 252.800,147.600 253.070,147.600 253.400 M150.000 259.800 C 150.000 260.130,150.180 260.400,150.400 260.400 C 150.620 260.400,150.800 260.130,150.800 259.800 C 150.800 259.470,150.620 259.200,150.400 259.200 C 150.180 259.200,150.000 259.470,150.000 259.800 M154.800 272.600 C 154.800 272.930,154.980 273.200,155.200 273.200 C 155.420 273.200,155.600 272.930,155.600 272.600 C 155.600 272.270,155.420 272.000,155.200 272.000 C 154.980 272.000,154.800 272.270,154.800 272.600 M158.800 283.000 C 158.800 283.330,158.980 283.600,159.200 283.600 C 159.420 283.600,159.600 283.330,159.600 283.000 C 159.600 282.670,159.420 282.400,159.200 282.400 C 158.980 282.400,158.800 282.670,158.800 283.000 M225.200 283.000 C 225.200 283.330,225.380 283.600,225.600 283.600 C 225.820 283.600,226.000 283.330,226.000 283.000 C 226.000 282.670,225.820 282.400,225.600 282.400 C 225.380 282.400,225.200 282.670,225.200 283.000 M222.800 289.400 C 222.800 289.730,222.980 290.000,223.200 290.000 C 223.420 290.000,223.600 289.730,223.600 289.400 C 223.600 289.070,223.420 288.800,223.200 288.800 C 222.980 288.800,222.800 289.070,222.800 289.400 M220.400 295.800 C 220.400 296.130,220.580 296.400,220.800 296.400 C 221.020 296.400,221.200 296.130,221.200 295.800 C 221.200 295.470,221.020 295.200,220.800 295.200 C 220.580 295.200,220.400 295.470,220.400 295.800 M168.400 308.600 C 168.400 308.930,168.580 309.200,168.800 309.200 C 169.020 309.200,169.200 308.930,169.200 308.600 C 169.200 308.270,169.020 308.000,168.800 308.000 C 168.580 308.000,168.400 308.270,168.400 308.600 M173.200 321.400 C 173.200 321.730,173.380 322.000,173.600 322.000 C 173.820 322.000,174.000 321.730,174.000 321.400 C 174.000 321.070,173.820 320.800,173.600 320.800 C 173.380 320.800,173.200 321.070,173.200 321.400 M210.800 321.400 C 210.800 321.730,210.980 322.000,211.200 322.000 C 211.420 322.000,211.600 321.730,211.600 321.400 C 211.600 321.070,211.420 320.800,211.200 320.800 C 210.980 320.800,210.800 321.070,210.800 321.400 M210.000 323.624 C 210.000 324.077,210.180 324.336,210.400 324.200 C 210.620 324.064,210.800 323.693,210.800 323.376 C 210.800 323.059,210.620 322.800,210.400 322.800 C 210.180 322.800,210.000 323.171,210.000 323.624 M206.000 334.200 C 206.000 334.530,206.180 334.800,206.400 334.800 C 206.620 334.800,206.800 334.530,206.800 334.200 C 206.800 333.870,206.620 333.600,206.400 333.600 C 206.180 333.600,206.000 333.870,206.000 334.200 M203.600 340.600 C 203.600 340.930,203.780 341.200,204.000 341.200 C 204.220 341.200,204.400 340.930,204.400 340.600 C 204.400 340.270,204.220 340.000,204.000 340.000 C 203.780 340.000,203.600 340.270,203.600 340.600 M201.200 347.000 C 201.200 347.330,201.380 347.600,201.600 347.600 C 201.820 347.600,202.000 347.330,202.000 347.000 C 202.000 346.670,201.820 346.400,201.600 346.400 C 201.380 346.400,201.200 346.670,201.200 347.000 M198.800 353.400 C 198.800 353.730,198.980 354.000,199.200 354.000 C 199.420 354.000,199.600 353.730,199.600 353.400 C 199.600 353.070,199.420 352.800,199.200 352.800 C 198.980 352.800,198.800 353.070,198.800 353.400 M187.600 359.800 C 187.600 360.130,187.780 360.400,188.000 360.400 C 188.220 360.400,188.400 360.130,188.400 359.800 C 188.400 359.470,188.220 359.200,188.000 359.200 C 187.780 359.200,187.600 359.470,187.600 359.800 M196.400 359.800 C 196.400 360.130,196.580 360.400,196.800 360.400 C 197.020 360.400,197.200 360.130,197.200 359.800 C 197.200 359.470,197.020 359.200,196.800 359.200 C 196.580 359.200,196.400 359.470,196.400 359.800 M194.800 363.800 C 194.800 364.130,194.980 364.400,195.200 364.400 C 195.420 364.400,195.600 364.130,195.600 363.800 C 195.600 363.470,195.420 363.200,195.200 363.200 C 194.980 363.200,194.800 363.470,194.800 363.800 M190.000 366.200 C 190.000 366.530,190.180 366.800,190.400 366.800 C 190.620 366.800,190.800 366.530,190.800 366.200 C 190.800 365.870,190.620 365.600,190.400 365.600 C 190.180 365.600,190.000 365.870,190.000 366.200 M194.000 366.200 C 194.000 366.530,194.180 366.800,194.400 366.800 C 194.620 366.800,194.800 366.530,194.800 366.200 C 194.800 365.870,194.620 365.600,194.400 365.600 C 194.180 365.600,194.000 365.870,194.000 366.200 M191.920 369.680 C 192.293 370.053,192.507 370.053,192.880 369.680 C 193.253 369.307,193.147 369.200,192.400 369.200 C 191.653 369.200,191.547 369.307,191.920 369.680 "
              stroke="none" fill="#76c4a9" fill-rule="evenodd"></path>
        <path id="path6"
              d="M216.711 42.223 C 217.790 42.978,217.909 44.996,216.938 46.069 C 216.130 46.961,216.495 47.048,217.371 46.171 C 218.616 44.927,217.748 41.600,216.180 41.600 C 215.983 41.600,216.222 41.880,216.711 42.223 M201.344 45.348 C 200.837 46.411,200.800 46.854,201.170 47.448 C 201.601 48.141,201.619 48.131,201.397 47.315 C 201.152 46.416,201.761 44.840,202.560 44.306 C 202.863 44.104,202.842 44.010,202.494 44.006 C 202.215 44.003,201.698 44.606,201.344 45.348 M206.400 46.524 C 206.400 47.805,205.614 48.752,204.200 49.174 C 203.183 49.477,203.140 49.536,203.918 49.566 C 205.128 49.611,206.800 47.901,206.800 46.618 C 206.800 46.058,206.710 45.600,206.600 45.600 C 206.490 45.600,206.400 46.016,206.400 46.524 M222.000 47.600 C 220.269 49.331,221.547 52.400,224.000 52.400 C 225.540 52.400,226.800 51.140,226.800 49.600 C 226.800 48.060,225.540 46.800,224.000 46.800 C 223.333 46.800,222.444 47.156,222.000 47.600 M225.771 47.829 C 227.270 49.328,226.136 52.000,224.000 52.000 C 222.542 52.000,221.600 51.058,221.600 49.600 C 221.600 48.142,222.542 47.200,224.000 47.200 C 224.629 47.200,225.426 47.483,225.771 47.829 M212.100 52.670 C 211.605 53.015,211.200 53.463,211.200 53.664 C 211.200 53.866,211.594 53.664,212.075 53.216 C 213.747 51.658,216.225 52.601,216.511 54.905 L 216.672 56.200 216.736 54.929 C 216.853 52.614,214.102 51.273,212.100 52.670 M203.592 59.010 C 203.314 59.345,203.202 59.735,203.343 59.876 C 203.484 60.018,203.600 59.918,203.600 59.654 C 203.600 59.390,204.005 59.011,204.500 58.812 C 205.109 58.568,205.190 58.443,204.749 58.425 C 204.391 58.411,203.870 58.674,203.592 59.010 M207.460 59.424 C 208.169 60.132,208.427 60.745,208.300 61.412 C 208.198 61.942,208.270 62.281,208.458 62.164 C 209.316 61.634,207.883 58.400,206.789 58.400 C 206.595 58.400,206.897 58.861,207.460 59.424 M224.223 60.363 C 224.100 60.562,224.371 60.628,224.826 60.509 C 225.868 60.237,227.590 61.132,227.632 61.968 C 227.656 62.461,227.712 62.477,227.884 62.042 C 228.341 60.889,224.879 59.301,224.223 60.363 M222.667 61.867 C 221.577 62.957,223.540 66.032,225.282 65.964 C 226.014 65.935,225.939 65.852,224.909 65.555 C 223.432 65.128,222.641 63.943,222.906 62.555 C 223.103 61.528,223.078 61.456,222.667 61.867 M203.762 63.100 C 204.701 64.209,206.860 64.320,207.632 63.300 C 208.082 62.704,208.078 62.675,207.601 63.100 C 206.793 63.821,204.799 63.715,203.831 62.900 C 203.001 62.201,203.001 62.201,203.762 63.100 M213.200 68.400 C 211.469 70.131,212.747 73.200,215.200 73.200 C 216.740 73.200,218.000 71.940,218.000 70.400 C 218.000 68.860,216.740 67.600,215.200 67.600 C 214.533 67.600,213.644 67.956,213.200 68.400 M216.971 68.629 C 218.470 70.128,217.336 72.800,215.200 72.800 C 213.742 72.800,212.800 71.858,212.800 70.400 C 212.800 68.942,213.742 68.000,215.200 68.000 C 215.829 68.000,216.626 68.283,216.971 68.629 "
              stroke="none" fill="#2c8074" fill-rule="evenodd"></path>
        <path id="path7"
              d="M213.280 42.480 C 213.016 42.744,212.829 43.599,212.864 44.380 L 212.928 45.800 213.097 44.402 C 213.189 43.632,213.453 42.777,213.682 42.502 C 214.212 41.862,213.914 41.846,213.280 42.480 M205.465 44.800 C 205.720 45.130,206.008 45.940,206.105 46.600 L 206.280 47.800 206.340 46.549 C 206.377 45.777,206.132 45.088,205.700 44.749 C 205.091 44.271,205.060 44.278,205.465 44.800 M223.300 47.476 C 223.685 47.576,224.315 47.576,224.700 47.476 C 225.085 47.375,224.770 47.293,224.000 47.293 C 223.230 47.293,222.915 47.375,223.300 47.476 M226.093 49.600 C 226.093 50.370,226.175 50.685,226.276 50.300 C 226.376 49.915,226.376 49.285,226.276 48.900 C 226.175 48.515,226.093 48.830,226.093 49.600 M207.494 59.900 C 208.169 61.142,208.169 61.258,207.494 62.500 L 206.788 63.800 207.594 62.856 C 208.037 62.336,208.400 61.591,208.400 61.200 C 208.400 60.809,208.037 60.064,207.594 59.544 L 206.788 58.600 207.494 59.900 M203.293 61.200 C 203.293 61.970,203.375 62.285,203.476 61.900 C 203.576 61.515,203.576 60.885,203.476 60.500 C 203.375 60.115,203.293 60.430,203.293 61.200 M224.095 60.666 C 223.818 60.778,223.403 61.259,223.173 61.735 C 222.816 62.476,222.833 62.514,223.296 62.000 C 223.593 61.670,224.089 61.175,224.398 60.900 C 224.987 60.376,224.929 60.331,224.095 60.666 M214.500 68.276 C 214.885 68.376,215.515 68.376,215.900 68.276 C 216.285 68.175,215.970 68.093,215.200 68.093 C 214.430 68.093,214.115 68.175,214.500 68.276 M212.893 70.400 C 212.893 71.170,212.975 71.485,213.076 71.100 C 213.176 70.715,213.176 70.085,213.076 69.700 C 212.975 69.315,212.893 69.630,212.893 70.400 "
              stroke="none" fill="#247464" fill-rule="evenodd"></path>
        <path id="path8"
              d="M213.330 41.394 C 212.053 42.288,211.586 44.005,212.213 45.497 C 213.157 47.741,215.573 48.273,217.458 46.652 C 220.550 43.992,216.673 39.053,213.330 41.394 M217.300 42.309 C 218.175 43.077,218.217 45.326,217.372 46.171 C 215.074 48.469,211.398 45.917,212.746 42.959 C 213.541 41.214,215.702 40.906,217.300 42.309 M201.569 44.369 C 198.770 47.168,202.012 51.255,205.571 49.415 C 208.685 47.805,207.216 43.200,203.589 43.200 C 203.121 43.200,202.212 43.726,201.569 44.369 M206.100 44.879 C 207.081 46.013,206.971 47.465,205.818 48.618 C 203.486 50.951,199.843 48.212,201.364 45.269 C 202.301 43.457,204.699 43.259,206.100 44.879 M221.729 47.300 C 220.527 48.636,220.346 49.497,220.961 50.968 C 222.404 54.421,227.593 53.045,227.283 49.292 C 227.065 46.660,223.467 45.370,221.729 47.300 M226.000 47.600 C 227.731 49.331,226.453 52.400,224.000 52.400 C 222.460 52.400,221.200 51.140,221.200 49.600 C 221.200 48.060,222.460 46.800,224.000 46.800 C 224.667 46.800,225.556 47.156,226.000 47.600 M211.569 52.769 C 208.907 55.432,212.012 59.700,215.326 57.935 C 217.486 56.784,217.881 54.193,216.142 52.581 C 214.686 51.232,213.039 51.300,211.569 52.769 M215.746 52.829 C 217.868 54.498,216.597 57.798,213.862 57.721 C 212.038 57.669,211.131 56.766,211.080 54.951 C 211.007 52.395,213.661 51.189,215.746 52.829 M204.200 58.067 C 201.132 59.890,202.233 64.400,205.746 64.400 C 208.614 64.400,210.120 60.743,208.089 58.711 C 207.177 57.799,205.201 57.472,204.200 58.067 M207.971 59.454 C 209.011 60.776,209.011 61.380,207.973 62.838 C 206.249 65.259,202.387 63.566,202.971 60.644 C 203.478 58.112,206.373 57.423,207.971 59.454 M223.231 60.636 C 220.185 63.198,223.270 67.627,226.937 65.956 C 229.000 65.016,229.339 62.478,227.631 60.769 C 226.181 59.319,224.843 59.279,223.231 60.636 M227.138 60.739 C 228.244 61.590,228.498 64.073,227.574 64.997 C 226.413 66.159,224.552 66.188,223.427 65.063 C 220.867 62.503,224.272 58.535,227.138 60.739 M214.400 67.082 C 211.179 68.260,211.237 72.577,214.489 73.724 C 216.752 74.521,219.210 71.694,218.363 69.267 C 218.022 68.286,215.875 66.665,215.140 66.832 C 215.063 66.849,214.730 66.962,214.400 67.082 M217.200 68.400 C 218.931 70.131,217.653 73.200,215.200 73.200 C 213.660 73.200,212.400 71.940,212.400 70.400 C 212.400 68.860,213.660 67.600,215.200 67.600 C 215.867 67.600,216.756 67.956,217.200 68.400 "
              stroke="none" fill="#349a84" fill-rule="evenodd"></path>
    </g>
</svg>