<svg id="svg" version="1.1" xmlns="http://www.w3.org/2000/svg" width="400"
     height="400" viewBox="0, 0, 400,400">
    <g id="svgg">
        <path id="path0"
              d="M224.878 53.559 C 215.314 56.862,215.374 71.846,224.962 74.447 C 236.176 77.488,242.343 63.141,233.407 54.800 C 232.088 53.569,231.398 54.203,230.974 57.036 C 230.625 59.361,229.884 60.345,228.923 59.760 C 227.899 59.136,227.829 57.258,228.741 54.859 L 229.523 52.800 228.262 52.813 C 227.568 52.820,226.045 53.156,224.878 53.559 M224.720 57.280 C 225.425 57.985,225.304 59.188,224.500 59.471 C 223.365 59.869,222.418 61.308,222.409 62.651 C 222.398 64.226,221.471 65.122,220.600 64.400 C 219.355 63.367,220.273 59.315,222.101 57.776 C 223.395 56.688,224.011 56.571,224.720 57.280 M222.469 67.462 C 223.360 68.269,223.410 69.328,222.588 70.010 C 222.081 70.431,221.808 70.359,220.988 69.589 C 219.004 67.725,220.455 65.640,222.469 67.462 M247.687 162.700 C 247.462 163.305,246.518 166.050,245.590 168.800 C 242.190 178.870,239.950 183.307,236.848 186.109 C 224.591 197.183,208.794 194.197,196.422 178.467 C 194.980 176.633,193.771 175.373,193.737 175.667 C 190.265 204.838,172.884 213.516,155.471 194.773 L 152.546 191.624 150.979 193.712 C 150.117 194.860,148.364 196.906,147.082 198.259 C 144.915 200.546,143.699 203.200,144.819 203.200 C 145.029 203.200,145.200 203.650,145.200 204.200 C 145.200 204.750,145.380 205.200,145.600 205.200 C 145.820 205.200,146.000 205.650,146.000 206.200 C 146.000 206.750,146.180 207.200,146.400 207.200 C 146.620 207.200,146.800 207.650,146.800 208.200 C 146.800 208.750,146.980 209.200,147.200 209.200 C 147.420 209.200,147.600 209.650,147.600 210.200 C 147.600 210.750,147.780 211.200,148.000 211.200 C 148.220 211.200,148.400 211.650,148.400 212.200 C 148.400 212.750,148.580 213.200,148.800 213.200 C 149.020 213.200,149.200 213.650,149.200 214.200 C 149.200 214.750,149.380 215.200,149.600 215.200 C 149.820 215.200,150.000 215.650,150.000 216.200 C 150.000 216.750,150.180 217.200,150.400 217.200 C 150.620 217.200,150.800 217.650,150.800 218.200 C 150.800 218.750,150.980 219.200,151.200 219.200 C 151.420 219.200,151.600 219.650,151.600 220.200 C 151.600 220.750,151.780 221.200,152.000 221.200 C 152.220 221.200,152.400 221.650,152.400 222.200 C 152.400 222.750,152.580 223.200,152.800 223.200 C 153.020 223.200,153.200 223.740,153.200 224.400 C 153.200 225.060,153.380 225.600,153.600 225.600 C 153.820 225.600,154.000 225.960,154.000 226.400 C 154.000 226.840,154.180 227.200,154.400 227.200 C 154.620 227.200,154.800 227.650,154.800 228.200 C 154.800 228.750,154.980 229.200,155.200 229.200 C 155.420 229.200,155.600 229.740,155.600 230.400 C 155.600 231.060,155.780 231.600,156.000 231.600 C 156.220 231.600,156.400 232.050,156.400 232.600 C 156.400 233.150,156.580 233.600,156.800 233.600 C 157.020 233.600,157.200 234.050,157.200 234.600 C 157.200 235.150,157.380 235.600,157.600 235.600 C 157.820 235.600,158.000 236.050,158.000 236.600 C 158.000 237.150,158.180 237.600,158.400 237.600 C 158.620 237.600,158.800 238.050,158.800 238.600 C 158.800 239.150,158.980 239.600,159.200 239.600 C 159.420 239.600,159.600 240.050,159.600 240.600 C 159.600 241.150,159.780 241.600,160.000 241.600 C 160.220 241.600,160.400 242.050,160.400 242.600 C 160.400 243.150,160.580 243.600,160.800 243.600 C 161.020 243.600,161.200 244.050,161.200 244.600 C 161.200 245.150,161.380 245.600,161.600 245.600 C 161.820 245.600,162.000 246.140,162.000 246.800 C 162.000 247.460,162.180 248.000,162.400 248.000 C 162.620 248.000,162.800 248.450,162.800 249.000 C 162.800 249.550,162.980 250.000,163.200 250.000 C 163.420 250.000,163.600 250.450,163.600 251.000 C 163.600 251.550,163.780 252.000,164.000 252.000 C 164.220 252.000,164.400 252.450,164.400 253.000 C 164.400 253.550,164.580 254.000,164.800 254.000 C 165.020 254.000,165.200 254.450,165.200 255.000 C 165.200 255.550,165.380 256.000,165.600 256.000 C 165.820 256.000,166.000 256.450,166.000 257.000 C 166.000 257.550,166.180 258.000,166.400 258.000 C 166.620 258.000,166.800 258.450,166.800 259.000 C 166.800 259.550,166.980 260.000,167.200 260.000 C 167.420 260.000,167.600 260.450,167.600 261.000 C 167.600 261.550,167.780 262.000,168.000 262.000 C 168.220 262.000,168.400 262.450,168.400 263.000 C 168.400 263.550,168.580 264.000,168.800 264.000 C 169.020 264.000,169.200 264.373,169.200 264.829 C 169.200 265.284,169.462 265.919,169.783 266.240 C 170.104 266.561,170.273 267.065,170.160 267.360 C 170.047 267.655,170.231 268.003,170.570 268.133 C 170.926 268.270,171.087 268.629,170.950 268.985 C 170.821 269.323,170.914 269.600,171.157 269.600 C 171.401 269.600,171.600 270.140,171.600 270.800 C 171.600 271.460,171.780 272.000,172.000 272.000 C 172.220 272.000,172.400 272.450,172.400 273.000 C 172.400 273.550,172.580 274.000,172.800 274.000 C 173.020 274.000,173.200 274.450,173.200 275.000 C 173.200 275.550,173.380 276.000,173.600 276.000 C 173.820 276.000,174.000 276.450,174.000 277.000 C 174.000 277.550,174.180 278.000,174.400 278.000 C 174.620 278.000,174.800 278.450,174.800 279.000 C 174.800 279.550,174.980 280.000,175.200 280.000 C 175.420 280.000,175.600 280.450,175.600 281.000 C 175.600 281.550,175.780 282.000,176.000 282.000 C 176.220 282.000,176.400 282.439,176.400 282.976 C 176.400 283.513,176.580 284.064,176.800 284.200 C 177.020 284.336,177.200 284.887,177.200 285.424 C 177.200 285.961,177.380 286.400,177.600 286.400 C 177.820 286.400,178.000 286.850,178.000 287.400 C 178.000 287.950,178.180 288.400,178.400 288.400 C 178.620 288.400,178.800 288.850,178.800 289.400 C 178.800 289.950,178.980 290.400,179.200 290.400 C 179.420 290.400,179.600 290.940,179.600 291.600 C 179.600 292.260,179.780 292.800,180.000 292.800 C 180.220 292.800,180.400 293.250,180.400 293.800 C 180.400 294.350,180.580 294.800,180.800 294.800 C 181.020 294.800,181.200 295.250,181.200 295.800 C 181.200 296.350,181.380 296.800,181.600 296.800 C 181.820 296.800,182.000 297.250,182.000 297.800 C 182.000 298.350,182.180 298.800,182.400 298.800 C 182.620 298.800,182.800 299.250,182.800 299.800 C 182.800 300.350,182.980 300.800,183.200 300.800 C 183.420 300.800,183.600 301.340,183.600 302.000 C 183.600 302.660,183.780 303.200,184.000 303.200 C 184.220 303.200,184.400 303.740,184.400 304.400 C 184.400 305.060,184.580 305.600,184.800 305.600 C 185.020 305.600,185.200 305.960,185.200 306.400 C 185.200 306.840,185.380 307.200,185.600 307.200 C 185.820 307.200,186.000 307.650,186.000 308.200 C 186.000 308.750,186.180 309.200,186.400 309.200 C 186.620 309.200,186.800 309.650,186.800 310.200 C 186.800 310.750,186.980 311.200,187.200 311.200 C 187.420 311.200,187.600 311.650,187.600 312.200 C 187.600 312.750,187.780 313.200,188.000 313.200 C 188.220 313.200,188.400 313.650,188.400 314.200 C 188.400 314.750,188.580 315.200,188.800 315.200 C 189.020 315.200,189.200 315.751,189.200 316.424 C 189.200 317.137,189.367 317.544,189.600 317.400 C 189.827 317.260,190.000 317.596,190.000 318.176 C 190.000 318.739,190.180 319.200,190.400 319.200 C 190.620 319.200,190.800 319.650,190.800 320.200 C 190.800 320.750,190.980 321.200,191.200 321.200 C 191.420 321.200,191.600 321.650,191.600 322.200 C 191.600 322.750,191.780 323.200,192.000 323.200 C 192.220 323.200,192.400 323.650,192.400 324.200 C 192.400 324.750,192.580 325.200,192.800 325.200 C 193.020 325.200,193.200 325.650,193.200 326.200 C 193.200 326.750,193.380 327.200,193.600 327.200 C 193.820 327.200,194.000 327.650,194.000 328.200 C 194.000 328.750,194.180 329.200,194.400 329.200 C 194.620 329.200,194.800 329.650,194.800 330.200 C 194.800 330.750,194.980 331.200,195.200 331.200 C 195.420 331.200,195.600 331.650,195.600 332.200 C 195.600 332.750,195.780 333.200,196.000 333.200 C 196.220 333.200,196.400 333.483,196.400 333.829 C 196.400 334.174,196.662 334.719,196.983 335.040 C 197.304 335.361,197.464 335.888,197.340 336.212 C 197.216 336.535,197.314 336.800,197.557 336.800 C 197.801 336.800,198.000 337.250,198.000 337.800 C 198.000 338.350,198.180 338.800,198.400 338.800 C 198.620 338.800,198.800 339.340,198.800 340.000 C 198.800 340.660,198.980 341.200,199.200 341.200 C 199.420 341.200,199.600 341.470,199.600 341.800 C 199.600 342.130,199.780 342.400,200.000 342.400 C 200.220 342.400,200.400 342.850,200.400 343.400 C 200.400 343.950,200.580 344.400,200.800 344.400 C 201.020 344.400,201.200 344.760,201.200 345.200 C 201.200 345.640,201.380 346.000,201.600 346.000 C 201.820 346.000,202.000 346.450,202.000 347.000 C 202.000 347.550,202.180 348.000,202.400 348.000 C 202.620 348.000,202.800 348.360,202.800 348.800 C 202.800 349.240,202.980 349.600,203.200 349.600 C 203.420 349.600,203.600 349.949,203.600 350.376 C 203.600 350.803,203.780 351.264,204.000 351.400 C 204.220 351.536,204.400 351.997,204.400 352.424 C 204.400 352.851,204.580 353.200,204.800 353.200 C 205.020 353.200,205.200 353.560,205.200 354.000 C 205.200 354.440,205.335 354.801,205.500 354.803 C 205.851 354.807,206.800 356.737,206.800 357.446 C 206.800 357.714,206.935 357.993,207.100 358.067 C 207.265 358.140,207.847 359.100,208.394 360.200 C 208.941 361.300,209.620 362.346,209.903 362.525 C 210.186 362.703,210.307 363.028,210.172 363.246 C 210.037 363.464,210.348 364.012,210.863 364.465 C 211.378 364.917,211.753 365.453,211.696 365.655 C 211.566 366.118,214.585 369.200,215.169 369.200 C 215.406 369.200,215.600 369.380,215.600 369.600 C 215.600 369.822,216.667 370.000,218.000 370.000 C 219.333 370.000,220.400 369.822,220.400 369.600 C 220.400 369.380,220.574 369.200,220.786 369.200 C 221.389 369.200,223.347 367.119,223.891 365.900 C 224.162 365.295,224.567 364.800,224.791 364.800 C 225.016 364.800,225.200 364.440,225.200 364.000 C 225.200 363.560,225.380 363.200,225.600 363.200 C 225.820 363.200,226.000 362.750,226.000 362.200 C 226.000 361.650,226.180 361.200,226.400 361.200 C 226.620 361.200,226.800 360.750,226.800 360.200 C 226.800 359.650,226.980 359.200,227.200 359.200 C 227.420 359.200,227.600 358.660,227.600 358.000 C 227.600 357.340,227.804 356.800,228.052 356.800 C 228.346 356.800,228.425 356.309,228.278 355.403 C 228.121 354.433,228.240 353.817,228.669 353.388 C 229.040 353.017,229.210 352.363,229.093 351.753 C 228.970 351.107,229.103 350.659,229.459 350.522 C 229.817 350.385,229.985 349.810,229.926 348.929 C 229.874 348.163,230.055 347.413,230.334 347.241 C 230.623 347.062,230.792 346.303,230.734 345.441 C 230.675 344.579,230.844 343.820,231.134 343.641 C 231.423 343.462,231.592 342.703,231.534 341.841 C 231.472 340.925,231.642 340.221,231.975 340.016 C 232.337 339.792,232.435 339.276,232.271 338.456 C 232.108 337.639,232.221 337.036,232.611 336.646 C 232.969 336.288,233.171 335.397,233.130 334.353 C 233.090 333.349,233.256 332.581,233.531 332.490 C 233.789 332.404,234.000 331.718,234.000 330.967 C 234.000 330.215,234.185 329.600,234.412 329.600 C 234.658 329.600,234.795 328.616,234.751 327.161 C 234.702 325.525,234.849 324.617,235.198 324.401 C 235.546 324.186,235.641 323.606,235.484 322.643 C 235.320 321.629,235.435 321.022,235.875 320.582 C 236.306 320.151,236.429 319.535,236.275 318.582 C 236.120 317.630,236.243 317.014,236.675 316.582 C 237.119 316.138,237.238 315.499,237.087 314.370 C 236.937 313.252,237.055 312.602,237.487 312.170 C 237.919 311.738,238.037 311.089,237.887 309.970 C 237.737 308.852,237.855 308.202,238.287 307.770 C 238.714 307.343,238.837 306.689,238.692 305.608 C 238.561 304.630,238.687 303.768,239.035 303.271 C 239.350 302.822,239.552 301.684,239.505 300.620 C 239.452 299.403,239.614 298.639,239.970 298.419 C 240.360 298.177,240.442 297.624,240.258 296.469 C 240.066 295.271,240.162 294.695,240.634 294.223 C 241.029 293.828,241.234 293.027,241.178 292.095 C 241.037 289.750,241.152 289.123,241.663 289.439 C 242.002 289.649,242.061 289.175,241.883 287.671 C 241.703 286.152,241.791 285.466,242.221 285.036 C 242.610 284.647,242.772 283.761,242.711 282.357 C 242.652 280.987,242.790 280.203,243.110 280.097 C 243.385 280.005,243.600 279.247,243.600 278.367 C 243.600 277.463,243.792 276.800,244.055 276.800 C 244.370 276.800,244.445 275.994,244.300 274.184 C 244.145 272.259,244.236 271.421,244.645 271.012 C 244.950 270.707,245.200 269.724,245.200 268.829 C 245.200 267.933,245.379 267.200,245.599 267.200 C 245.830 267.200,245.979 266.006,245.954 264.351 C 245.929 262.693,246.091 261.391,246.343 261.235 C 246.585 261.086,246.737 260.039,246.688 258.869 C 246.628 257.429,246.775 256.663,247.158 256.426 C 247.554 256.181,247.652 255.602,247.495 254.432 C 247.337 253.250,247.448 252.609,247.888 252.169 C 248.341 251.716,248.439 251.092,248.261 249.796 C 248.080 248.475,248.180 247.877,248.661 247.396 C 249.143 246.914,249.242 246.317,249.061 244.996 C 248.887 243.722,248.983 243.074,249.411 242.646 C 249.808 242.250,249.973 241.379,249.913 240.005 C 249.858 238.729,250.009 237.841,250.315 237.652 C 250.626 237.461,250.772 236.559,250.713 235.204 C 250.652 233.796,250.788 233.004,251.110 232.897 C 251.399 232.800,251.600 232.000,251.600 230.943 C 251.600 229.697,251.740 229.239,252.060 229.437 C 252.396 229.645,252.462 229.003,252.304 227.044 C 252.145 225.061,252.234 224.223,252.646 223.811 C 253.005 223.452,253.171 222.527,253.113 221.205 C 253.053 219.826,253.202 219.046,253.570 218.819 C 253.960 218.577,254.042 218.024,253.858 216.869 C 253.664 215.659,253.762 215.096,254.250 214.607 C 254.720 214.137,254.841 213.519,254.687 212.370 C 254.537 211.250,254.655 210.602,255.088 210.169 C 255.541 209.716,255.639 209.092,255.461 207.796 C 255.281 206.476,255.380 205.877,255.860 205.397 C 256.320 204.937,256.440 204.311,256.287 203.170 C 256.137 202.052,256.255 201.402,256.686 200.971 C 257.101 200.556,257.228 199.926,257.080 199.014 C 256.944 198.175,257.071 197.393,257.418 196.934 C 257.724 196.530,257.980 195.525,257.987 194.700 C 257.994 193.854,258.198 193.200,258.455 193.200 C 258.770 193.200,258.845 192.394,258.700 190.584 C 258.538 188.572,258.629 187.828,259.094 187.363 C 259.506 186.951,259.627 186.321,259.475 185.382 C 259.343 184.572,259.446 183.793,259.726 183.487 C 260.439 182.708,261.315 181.082,260.875 181.354 C 260.415 181.638,259.965 180.156,260.270 179.361 C 260.389 179.053,260.646 178.800,260.843 178.800 C 262.136 178.800,261.072 176.479,259.200 175.219 C 255.847 172.960,251.645 168.019,249.405 163.700 C 248.132 161.245,248.212 161.292,247.687 162.700 "
              stroke="none" fill="#de8617" fill-rule="evenodd"></path>
        <path id="path1"
              d="M198.299 36.900 C 198.182 37.250,197.065 37.399,194.566 37.398 C 191.978 37.396,190.880 37.550,190.562 37.957 C 190.279 38.320,189.764 38.427,189.104 38.262 C 188.375 38.079,188.014 38.186,187.842 38.635 C 187.665 39.095,187.293 39.196,186.451 39.011 C 185.588 38.822,185.237 38.926,185.045 39.428 C 184.854 39.924,184.488 40.038,183.630 39.866 C 182.796 39.699,182.405 39.809,182.232 40.260 C 182.067 40.691,181.696 40.810,181.038 40.645 C 180.393 40.483,180.009 40.599,179.854 41.003 C 179.728 41.331,179.270 41.600,178.836 41.600 C 178.402 41.600,177.927 41.795,177.780 42.032 C 177.633 42.270,177.101 42.362,176.598 42.235 C 175.982 42.081,175.605 42.210,175.444 42.630 C 175.291 43.029,174.931 43.168,174.449 43.016 C 173.972 42.864,173.608 43.001,173.460 43.388 C 173.331 43.725,172.870 44.000,172.436 44.000 C 172.002 44.000,171.531 44.187,171.390 44.416 C 171.248 44.645,170.788 44.723,170.366 44.589 C 169.818 44.415,169.600 44.538,169.600 45.020 C 169.600 45.496,169.366 45.632,168.800 45.484 C 168.360 45.369,168.000 45.420,168.000 45.598 C 168.000 45.775,165.885 46.965,163.300 48.243 C 160.715 49.520,158.483 50.735,158.340 50.941 C 158.198 51.148,157.793 51.206,157.440 51.071 C 157.046 50.920,156.800 51.035,156.800 51.370 C 156.800 51.901,155.711 52.594,155.089 52.460 C 154.918 52.423,154.673 52.664,154.546 52.996 C 154.419 53.328,154.105 53.600,153.848 53.600 C 153.592 53.600,152.702 54.161,151.871 54.846 C 151.039 55.531,150.261 55.994,150.142 55.875 C 150.022 55.756,149.383 56.274,148.722 57.028 C 148.061 57.781,147.380 58.311,147.209 58.206 C 146.822 57.967,135.031 69.694,133.742 71.600 C 133.222 72.370,132.133 73.900,131.324 75.000 C 130.515 76.100,129.881 77.043,129.915 77.096 C 130.130 77.424,129.422 78.400,128.970 78.400 C 128.651 78.400,128.520 78.648,128.654 78.997 C 128.785 79.339,128.606 79.699,128.234 79.842 C 127.878 79.979,127.618 80.296,127.657 80.546 C 127.768 81.256,126.864 83.200,126.422 83.200 C 126.204 83.200,126.128 83.468,126.254 83.797 C 126.386 84.140,126.205 84.500,125.830 84.644 C 125.406 84.806,125.260 85.160,125.415 85.647 C 125.580 86.168,125.459 86.400,125.019 86.400 C 124.543 86.400,124.447 86.648,124.635 87.396 C 124.814 88.111,124.700 88.464,124.231 88.644 C 123.806 88.807,123.660 89.159,123.816 89.649 C 123.968 90.131,123.829 90.491,123.430 90.644 C 123.000 90.809,122.880 91.180,123.045 91.838 C 123.214 92.512,123.090 92.867,122.622 93.047 C 122.126 93.237,122.022 93.591,122.211 94.451 C 122.396 95.293,122.295 95.665,121.834 95.842 C 121.346 96.029,121.260 96.434,121.452 97.635 C 121.645 98.842,121.559 99.241,121.063 99.431 C 120.564 99.623,120.476 100.043,120.657 101.365 C 120.815 102.516,120.715 103.237,120.343 103.627 C 119.528 104.484,119.545 127.601,120.362 128.240 C 120.786 128.572,120.860 129.226,120.664 130.898 C 120.447 132.737,120.514 133.158,121.056 133.366 C 121.585 133.569,121.665 133.991,121.478 135.574 C 121.293 137.130,121.375 137.581,121.873 137.773 C 122.358 137.959,122.444 138.366,122.252 139.565 C 122.060 140.768,122.146 141.170,122.637 141.359 C 123.136 141.550,123.213 141.941,123.000 143.201 C 122.773 144.545,122.838 144.800,123.409 144.800 C 123.965 144.800,124.043 145.047,123.835 146.154 C 123.639 147.199,123.731 147.565,124.239 147.760 C 124.724 147.946,124.836 148.318,124.666 149.170 C 124.505 149.977,124.611 150.395,125.017 150.551 C 125.367 150.686,125.600 151.310,125.600 152.115 C 125.600 153.718,123.139 156.905,122.185 156.539 C 121.815 156.397,121.600 156.561,121.600 156.984 C 121.600 157.458,121.380 157.584,120.847 157.415 C 120.359 157.260,120.006 157.406,119.844 157.831 C 119.664 158.300,119.311 158.414,118.596 158.235 C 117.837 158.044,117.600 158.141,117.600 158.642 C 117.600 159.155,117.344 159.249,116.436 159.067 C 115.596 158.899,115.206 159.008,115.032 159.460 C 114.864 159.900,114.498 160.011,113.796 159.835 C 113.048 159.647,112.800 159.743,112.800 160.219 C 112.800 160.659,112.568 160.780,112.047 160.615 C 111.564 160.462,111.207 160.605,111.050 161.013 C 110.916 161.364,110.612 161.531,110.376 161.385 C 110.140 161.239,109.694 161.453,109.386 161.860 C 109.078 162.267,108.820 162.431,108.813 162.225 C 108.806 162.019,108.275 162.354,107.633 162.969 C 106.923 163.649,106.271 163.968,105.971 163.782 C 105.652 163.585,105.578 163.641,105.764 163.941 C 105.921 164.197,105.793 164.505,105.478 164.625 C 104.657 164.940,102.400 168.556,102.400 169.556 C 102.400 170.040,102.144 170.400,101.800 170.400 C 101.303 170.400,101.200 171.156,101.200 174.800 C 101.200 177.322,101.363 179.200,101.581 179.200 C 101.791 179.200,102.279 179.875,102.666 180.700 C 103.054 181.525,103.871 182.740,104.483 183.400 C 105.095 184.060,105.597 184.747,105.598 184.927 C 105.599 185.107,105.960 185.140,106.400 185.000 C 106.977 184.817,107.200 184.928,107.200 185.400 C 107.200 185.858,107.425 185.982,107.953 185.815 C 108.410 185.670,108.790 185.797,108.921 186.139 C 109.064 186.511,109.507 186.630,110.231 186.492 C 110.955 186.354,111.480 186.495,111.784 186.910 C 112.156 187.419,113.032 187.525,116.421 187.469 L 120.600 187.400 120.522 190.572 C 120.461 193.075,120.579 193.843,121.081 194.210 C 121.517 194.529,121.637 194.996,121.463 195.692 C 121.294 196.366,121.412 196.878,121.813 197.211 C 122.146 197.487,122.319 198.026,122.197 198.409 C 122.063 198.831,122.227 199.202,122.613 199.350 C 122.964 199.484,123.144 199.767,123.014 199.978 C 122.748 200.408,126.079 203.642,127.247 204.087 C 127.661 204.245,128.000 204.563,128.000 204.795 C 128.000 205.043,128.408 205.113,128.996 204.965 C 129.706 204.787,130.064 204.900,130.239 205.358 C 130.594 206.282,134.609 206.275,134.964 205.349 C 135.153 204.857,135.547 204.752,136.576 204.919 C 137.542 205.075,138.001 204.974,138.156 204.570 C 138.277 204.256,138.741 204.000,139.187 204.000 C 139.634 204.000,140.000 203.820,140.000 203.600 C 140.000 203.380,140.235 203.200,140.522 203.200 C 140.809 203.200,141.731 202.570,142.572 201.800 C 143.413 201.030,143.992 200.400,143.859 200.400 C 143.726 200.400,144.565 199.455,145.724 198.300 C 148.171 195.860,150.194 193.461,151.120 191.900 C 152.103 190.243,152.644 190.493,156.371 194.334 C 159.794 197.863,163.861 201.200,164.737 201.200 C 164.992 201.200,165.200 201.336,165.200 201.502 C 165.200 201.669,165.785 202.040,166.500 202.329 C 167.215 202.617,168.113 203.021,168.495 203.226 C 168.877 203.432,169.549 203.600,169.989 203.600 C 170.429 203.600,171.608 203.819,172.609 204.087 C 174.040 204.470,174.597 204.470,175.209 204.087 C 175.638 203.819,176.256 203.600,176.582 203.600 C 177.633 203.600,181.781 201.048,183.400 199.406 C 184.407 198.385,186.464 195.663,187.029 194.604 C 189.199 190.539,190.000 188.754,190.000 187.986 C 190.000 187.580,190.180 187.136,190.400 187.000 C 190.620 186.864,190.800 186.234,190.800 185.600 C 190.800 184.966,190.961 184.348,191.158 184.226 C 191.557 183.979,191.893 182.057,192.316 177.600 C 192.472 175.950,192.735 174.392,192.900 174.138 C 193.271 173.566,194.800 173.915,194.800 174.571 C 194.800 174.834,195.115 175.398,195.500 175.825 C 195.885 176.252,196.737 177.321,197.394 178.200 C 198.958 180.297,202.982 184.326,205.000 185.815 C 205.880 186.464,206.690 187.086,206.800 187.198 C 207.633 188.040,213.272 190.800,214.161 190.800 C 214.644 190.800,215.211 190.963,215.420 191.163 C 216.440 192.138,225.160 192.138,226.180 191.163 C 226.389 190.963,226.879 190.800,227.268 190.800 C 227.997 190.800,230.192 189.680,232.062 188.353 C 232.646 187.939,233.276 187.597,233.462 187.594 C 234.088 187.584,238.349 183.584,238.904 182.487 C 239.206 181.889,239.646 181.040,239.883 180.600 C 240.380 179.674,241.919 176.260,242.497 174.800 C 242.715 174.250,243.052 173.487,243.247 173.105 C 243.441 172.723,243.600 172.136,243.600 171.800 C 243.600 171.464,243.759 170.877,243.953 170.495 C 244.578 169.267,245.097 167.844,245.593 166.000 C 245.860 165.010,246.240 163.887,246.439 163.505 C 246.638 163.123,246.800 162.476,246.800 162.067 C 246.800 161.153,248.193 159.825,248.775 160.184 C 249.009 160.329,249.200 160.701,249.200 161.011 C 249.200 163.102,255.537 171.512,258.735 173.666 C 259.761 174.357,261.074 175.423,261.654 176.035 C 262.389 176.811,262.963 177.082,263.549 176.929 C 264.102 176.785,264.475 176.930,264.638 177.355 C 264.997 178.289,270.860 178.291,271.636 177.357 C 272.036 176.875,272.587 176.772,273.847 176.944 C 275.152 177.123,275.578 177.034,275.766 176.543 C 275.952 176.060,276.335 175.974,277.404 176.174 C 278.541 176.388,278.800 176.314,278.800 175.775 C 278.800 175.277,279.037 175.173,279.758 175.354 C 280.407 175.517,280.791 175.401,280.946 174.997 C 281.072 174.669,281.530 174.400,281.964 174.400 C 282.398 174.400,282.869 174.213,283.010 173.984 C 283.152 173.755,283.612 173.677,284.034 173.811 C 284.575 173.983,284.800 173.862,284.800 173.400 C 284.800 172.928,285.023 172.817,285.600 173.000 C 286.168 173.180,286.400 173.072,286.400 172.627 C 286.400 172.282,286.656 172.000,286.969 172.000 C 287.282 172.000,288.073 171.550,288.727 171.000 C 289.381 170.450,290.102 170.000,290.329 170.000 C 291.167 170.000,294.796 165.726,296.017 163.300 C 296.710 161.925,297.435 160.800,297.628 160.800 C 297.822 160.800,297.873 160.263,297.741 159.606 C 297.564 158.722,297.671 158.348,298.151 158.163 C 299.105 157.797,299.110 151.004,298.156 150.639 C 297.664 150.450,297.572 150.074,297.766 149.042 C 297.958 148.015,297.867 147.634,297.382 147.448 C 296.972 147.291,296.830 146.934,296.984 146.449 C 297.135 145.974,296.999 145.609,296.619 145.463 C 296.286 145.335,296.111 144.977,296.230 144.667 C 296.349 144.357,296.154 143.991,295.798 143.854 C 295.441 143.718,295.266 143.417,295.408 143.187 C 295.551 142.956,295.210 142.408,294.652 141.969 C 294.093 141.530,293.700 140.952,293.777 140.685 C 294.000 139.914,285.642 132.813,284.500 132.804 C 284.225 132.802,284.000 132.518,284.000 132.173 C 284.000 131.728,283.768 131.620,283.200 131.800 C 282.617 131.985,282.400 131.872,282.400 131.384 C 282.400 130.950,282.187 130.796,281.794 130.947 C 281.461 131.075,280.555 130.824,279.782 130.390 C 279.008 129.955,278.105 129.600,277.775 129.600 C 277.445 129.600,277.070 129.327,276.942 128.993 C 276.814 128.659,276.437 128.434,276.104 128.493 C 275.224 128.649,274.934 125.677,275.797 125.346 C 276.265 125.166,276.356 124.774,276.166 123.758 C 275.970 122.712,276.063 122.351,276.579 122.153 C 277.135 121.939,277.200 121.543,276.977 119.754 C 276.755 117.980,276.822 117.567,277.360 117.360 C 277.916 117.147,277.974 116.659,277.755 114.035 C 277.556 111.646,277.626 110.829,278.068 110.379 C 278.881 109.552,278.871 93.284,278.056 92.427 C 277.685 92.037,277.585 91.315,277.743 90.165 C 277.922 88.860,277.834 88.422,277.355 88.238 C 276.905 88.065,276.805 87.687,276.989 86.851 C 277.178 85.991,277.074 85.637,276.578 85.447 C 276.110 85.267,275.986 84.912,276.155 84.238 C 276.321 83.574,276.200 83.209,275.755 83.038 C 275.300 82.864,275.187 82.504,275.365 81.796 C 275.553 81.048,275.457 80.800,274.981 80.800 C 274.528 80.800,274.419 80.571,274.600 80.000 C 274.741 79.557,274.672 79.200,274.446 79.200 C 273.989 79.200,272.238 75.654,272.345 74.946 C 272.383 74.696,272.130 74.382,271.782 74.248 C 271.434 74.115,271.257 73.831,271.389 73.617 C 271.521 73.404,271.350 72.908,271.008 72.515 C 268.989 70.194,267.917 68.749,268.088 68.579 C 268.292 68.374,266.919 66.820,261.474 61.096 C 259.641 59.169,258.239 57.495,258.358 57.375 C 258.478 57.256,258.296 57.265,257.955 57.396 C 257.546 57.553,256.756 57.008,255.648 55.805 C 254.720 54.799,253.817 54.066,253.639 54.176 C 253.462 54.286,252.899 53.931,252.388 53.388 C 251.878 52.844,251.250 52.400,250.992 52.400 C 250.735 52.400,250.213 52.056,249.833 51.636 C 249.452 51.216,248.704 50.762,248.171 50.628 C 247.637 50.494,247.200 50.110,247.200 49.775 C 247.200 49.439,246.975 49.201,246.700 49.246 C 246.055 49.349,244.875 48.860,243.538 47.935 C 242.954 47.531,242.189 47.200,241.838 47.200 C 241.487 47.200,241.200 47.040,241.200 46.843 C 241.200 46.647,240.750 46.374,240.200 46.236 C 239.650 46.098,239.200 45.794,239.200 45.561 C 239.200 45.115,237.307 47.369,235.136 50.400 C 234.427 51.390,233.701 52.260,233.523 52.333 C 232.903 52.589,233.210 53.211,234.700 54.712 C 235.525 55.544,236.446 56.759,236.747 57.412 C 237.047 58.065,237.452 58.913,237.647 59.295 C 237.841 59.677,238.000 60.611,238.000 61.371 C 238.000 62.131,238.180 62.864,238.400 63.000 C 238.620 63.136,238.800 63.946,238.800 64.800 C 238.800 65.654,238.620 66.464,238.400 66.600 C 238.180 66.736,238.000 67.371,238.000 68.011 C 238.000 70.250,234.478 74.800,232.745 74.800 C 232.361 74.800,231.936 74.980,231.800 75.200 C 231.478 75.722,224.522 75.722,224.200 75.200 C 224.064 74.980,223.629 74.800,223.233 74.800 C 221.199 74.800,217.200 69.601,217.200 66.957 C 217.200 66.205,216.977 65.232,216.704 64.795 C 216.309 64.162,216.309 63.838,216.704 63.205 C 216.977 62.768,217.200 61.885,217.200 61.243 C 217.200 57.136,222.341 52.400,226.800 52.400 L 229.176 52.400 231.147 49.500 C 232.231 47.905,233.451 46.238,233.859 45.795 C 235.184 44.355,235.743 43.553,235.368 43.631 C 234.553 43.799,232.318 43.052,232.124 42.546 C 231.995 42.209,231.577 42.091,231.013 42.233 C 230.401 42.386,230.029 42.252,229.863 41.820 C 229.688 41.364,229.330 41.253,228.613 41.433 C 227.895 41.613,227.537 41.502,227.362 41.045 C 227.191 40.600,226.826 40.479,226.162 40.645 C 225.504 40.810,225.133 40.691,224.968 40.260 C 224.795 39.809,224.404 39.699,223.570 39.866 C 222.724 40.035,222.346 39.924,222.164 39.451 C 221.970 38.944,221.579 38.858,220.365 39.052 C 219.131 39.249,218.760 39.162,218.555 38.628 C 218.339 38.064,217.950 37.999,216.154 38.223 C 214.451 38.436,213.963 38.369,213.782 37.897 C 213.605 37.437,212.866 37.314,210.512 37.351 C 208.399 37.385,207.419 37.247,207.302 36.900 C 207.181 36.541,205.910 36.400,202.800 36.400 C 199.689 36.400,198.419 36.541,198.299 36.900 M160.320 60.480 C 161.727 61.887,159.945 65.622,156.678 68.114 C 155.903 68.705,155.029 69.419,154.735 69.701 C 154.441 69.984,153.030 71.087,151.600 72.152 C 146.841 75.698,144.462 79.776,143.639 85.800 C 142.414 94.759,139.200 95.426,139.200 86.720 C 139.201 74.685,142.328 69.746,154.272 62.905 C 159.837 59.718,159.638 59.798,160.320 60.480 M138.714 102.300 C 139.919 106.388,139.662 109.421,137.954 111.250 C 135.849 113.502,133.791 111.959,134.155 108.400 C 134.758 102.515,137.640 98.657,138.714 102.300 "
              stroke="none" fill="#74d3eb" fill-rule="evenodd"></path>
        <path id="path2"
              d="M251.200 30.400 C 251.200 30.620,250.932 30.800,250.605 30.800 C 250.057 30.800,249.122 31.430,247.784 32.700 C 247.494 32.975,247.143 33.200,247.003 33.200 C 246.782 33.200,244.765 35.075,242.052 37.800 C 237.840 42.032,230.405 51.257,230.402 52.257 C 230.401 52.509,230.149 52.811,229.842 52.929 C 229.121 53.205,227.906 56.855,228.072 58.247 C 228.405 61.040,230.466 60.252,230.963 57.142 C 231.107 56.239,231.436 55.117,231.694 54.650 C 231.952 54.182,232.171 53.576,232.182 53.303 C 232.205 52.675,235.649 47.964,237.784 45.641 C 242.793 40.187,247.044 35.977,247.771 35.747 C 248.227 35.603,248.891 35.151,249.247 34.743 C 249.603 34.334,250.098 34.000,250.347 34.000 C 250.596 34.000,250.800 33.820,250.800 33.600 C 250.800 33.380,251.160 33.200,251.600 33.200 C 252.040 33.200,252.400 33.020,252.400 32.800 C 252.400 32.580,253.120 32.400,254.000 32.400 C 255.511 32.400,255.600 32.333,255.600 31.200 C 255.600 30.012,255.578 30.000,253.400 30.000 C 252.190 30.000,251.200 30.180,251.200 30.400 "
              stroke="none" fill="#2e2b2c" fill-rule="evenodd"></path>
        <path id="path3"
              d="M245.900 32.957 C 245.169 33.512,244.984 34.000,245.504 34.000 C 245.671 34.000,246.032 33.640,246.307 33.200 C 246.889 32.268,246.844 32.240,245.900 32.957 M253.200 32.800 C 253.200 33.020,253.560 33.200,254.000 33.200 C 254.440 33.200,254.800 33.020,254.800 32.800 C 254.800 32.580,254.440 32.400,254.000 32.400 C 253.560 32.400,253.200 32.580,253.200 32.800 M243.662 39.858 C 242.706 40.848,242.019 41.752,242.134 41.867 C 242.342 42.075,246.000 38.615,246.000 38.211 C 246.000 37.680,245.265 38.198,243.662 39.858 M236.060 42.642 C 235.331 43.466,235.800 43.857,236.581 43.076 C 236.921 42.736,237.200 42.354,237.200 42.229 C 237.200 41.809,236.606 42.024,236.060 42.642 M223.700 57.452 C 224.508 57.691,224.636 58.638,223.900 58.935 C 223.611 59.052,223.708 59.150,224.128 59.168 C 225.183 59.214,224.866 57.435,223.800 57.327 C 223.177 57.264,223.155 57.292,223.700 57.452 M222.093 62.000 C 222.093 62.770,222.175 63.085,222.276 62.700 C 222.376 62.315,222.376 61.685,222.276 61.300 C 222.175 60.915,222.093 61.230,222.093 62.000 M220.467 62.476 C 220.395 64.064,220.982 64.780,221.735 64.021 C 222.089 63.664,222.040 63.614,221.526 63.809 C 220.981 64.017,220.822 63.774,220.693 62.533 L 220.534 61.000 220.467 62.476 M221.000 67.489 C 221.440 67.598,222.070 67.892,222.400 68.143 C 222.922 68.540,222.928 68.509,222.451 67.900 C 222.149 67.515,221.519 67.221,221.051 67.246 C 220.243 67.290,220.240 67.303,221.000 67.489 M220.472 68.416 C 220.851 69.554,222.240 70.078,222.842 69.310 C 223.345 68.670,223.333 68.652,222.727 69.127 C 222.153 69.575,221.924 69.524,221.177 68.777 C 220.695 68.295,220.377 68.132,220.472 68.416 M260.400 180.224 C 260.400 181.071,260.562 181.547,260.800 181.400 C 261.020 181.264,261.200 180.623,261.200 179.976 C 261.200 179.329,261.020 178.800,260.800 178.800 C 260.580 178.800,260.400 179.441,260.400 180.224 M259.600 184.600 C 259.600 185.370,259.780 186.000,260.000 186.000 C 260.220 186.000,260.400 185.370,260.400 184.600 C 260.400 183.830,260.220 183.200,260.000 183.200 C 259.780 183.200,259.600 183.830,259.600 184.600 M258.800 189.024 C 258.800 190.137,258.956 190.751,259.200 190.600 C 259.420 190.464,259.600 189.643,259.600 188.776 C 259.600 187.909,259.420 187.200,259.200 187.200 C 258.980 187.200,258.800 188.021,258.800 189.024 M258.000 194.200 C 258.000 194.530,258.180 194.800,258.400 194.800 C 258.620 194.800,258.800 194.530,258.800 194.200 C 258.800 193.870,258.620 193.600,258.400 193.600 C 258.180 193.600,258.000 193.870,258.000 194.200 M257.200 198.200 C 257.200 198.970,257.380 199.600,257.600 199.600 C 257.820 199.600,258.000 198.970,258.000 198.200 C 258.000 197.430,257.820 196.800,257.600 196.800 C 257.380 196.800,257.200 197.430,257.200 198.200 M143.811 201.565 C 143.478 202.615,143.827 203.133,144.448 202.512 C 144.741 202.219,144.755 201.848,144.489 201.373 C 144.129 200.730,144.071 200.747,143.811 201.565 M256.400 202.200 C 256.400 202.970,256.580 203.600,256.800 203.600 C 257.020 203.600,257.200 202.970,257.200 202.200 C 257.200 201.430,257.020 200.800,256.800 200.800 C 256.580 200.800,256.400 201.430,256.400 202.200 M144.400 203.800 C 144.400 204.130,144.580 204.400,144.800 204.400 C 145.020 204.400,145.200 204.130,145.200 203.800 C 145.200 203.470,145.020 203.200,144.800 203.200 C 144.580 203.200,144.400 203.470,144.400 203.800 M145.200 206.000 C 145.200 206.440,145.380 206.800,145.600 206.800 C 145.820 206.800,146.000 206.440,146.000 206.000 C 146.000 205.560,145.820 205.200,145.600 205.200 C 145.380 205.200,145.200 205.560,145.200 206.000 M255.515 205.895 C 255.297 206.948,255.641 208.422,256.046 208.172 C 256.514 207.882,256.502 205.710,256.030 205.419 C 255.827 205.293,255.595 205.507,255.515 205.895 M146.000 207.976 C 146.000 208.403,146.180 208.864,146.400 209.000 C 146.627 209.140,146.800 208.804,146.800 208.224 C 146.800 207.661,146.620 207.200,146.400 207.200 C 146.180 207.200,146.000 207.549,146.000 207.976 M147.012 209.717 C 146.841 210.112,146.813 210.547,146.951 210.684 C 147.357 211.090,147.684 210.520,147.497 209.731 C 147.332 209.033,147.310 209.032,147.012 209.717 M254.712 210.700 C 254.488 211.565,254.744 212.400,255.233 212.400 C 255.435 212.400,255.600 211.860,255.600 211.200 C 255.600 209.899,255.006 209.565,254.712 210.700 M147.600 212.176 C 147.600 212.493,147.780 212.864,148.000 213.000 C 148.220 213.136,148.400 213.597,148.400 214.024 C 148.400 214.451,148.580 214.800,148.800 214.800 C 149.431 214.800,149.266 213.311,148.607 213.058 C 148.269 212.928,148.115 212.565,148.250 212.215 C 148.379 211.877,148.286 211.600,148.043 211.600 C 147.799 211.600,147.600 211.859,147.600 212.176 M253.926 215.100 C 253.699 216.049,253.975 217.200,254.429 217.200 C 254.633 217.200,254.800 216.570,254.800 215.800 C 254.800 214.345,254.218 213.879,253.926 215.100 M149.200 215.976 C 149.200 216.403,149.380 216.864,149.600 217.000 C 149.820 217.136,150.000 217.597,150.000 218.024 C 150.000 218.451,150.180 218.800,150.400 218.800 C 150.620 218.800,150.800 218.440,150.800 218.000 C 150.800 217.560,150.620 217.200,150.400 217.200 C 150.180 217.200,150.000 216.750,150.000 216.200 C 150.000 215.650,149.820 215.200,149.600 215.200 C 149.380 215.200,149.200 215.549,149.200 215.976 M253.083 219.604 C 252.829 220.576,253.164 222.000,253.647 222.000 C 254.108 222.000,254.107 219.313,253.645 219.028 C 253.450 218.908,253.197 219.167,253.083 219.604 M150.800 219.976 C 150.800 221.130,151.417 221.299,151.511 220.171 C 151.555 219.637,151.413 219.200,151.196 219.200 C 150.978 219.200,150.800 219.549,150.800 219.976 M151.812 221.717 C 151.641 222.112,151.613 222.547,151.751 222.684 C 152.157 223.090,152.484 222.520,152.297 221.731 C 152.132 221.033,152.110 221.032,151.812 221.717 M152.400 224.176 C 152.400 224.493,152.580 224.864,152.800 225.000 C 153.020 225.136,153.200 224.877,153.200 224.424 C 153.200 223.971,153.020 223.600,152.800 223.600 C 152.580 223.600,152.400 223.859,152.400 224.176 M252.314 224.300 C 252.108 225.295,252.429 226.800,252.847 226.800 C 253.041 226.800,253.200 226.080,253.200 225.200 C 253.200 223.601,252.587 222.978,252.314 224.300 M153.200 226.200 C 153.200 226.530,153.380 226.800,153.600 226.800 C 153.820 226.800,154.000 226.530,154.000 226.200 C 154.000 225.870,153.820 225.600,153.600 225.600 C 153.380 225.600,153.200 225.870,153.200 226.200 M154.000 228.400 C 154.000 228.840,154.180 229.200,154.400 229.200 C 154.620 229.200,154.800 228.840,154.800 228.400 C 154.800 227.960,154.620 227.600,154.400 227.600 C 154.180 227.600,154.000 227.960,154.000 228.400 M154.800 230.200 C 154.800 230.530,154.980 230.800,155.200 230.800 C 155.420 230.800,155.600 230.530,155.600 230.200 C 155.600 229.870,155.420 229.600,155.200 229.600 C 154.980 229.600,154.800 229.870,154.800 230.200 M251.600 230.800 C 251.600 231.240,251.780 231.600,252.000 231.600 C 252.220 231.600,252.400 231.240,252.400 230.800 C 252.400 230.360,252.220 230.000,252.000 230.000 C 251.780 230.000,251.600 230.360,251.600 230.800 M155.600 232.176 C 155.600 232.493,155.780 232.864,156.000 233.000 C 156.220 233.136,156.400 232.877,156.400 232.424 C 156.400 231.971,156.220 231.600,156.000 231.600 C 155.780 231.600,155.600 231.859,155.600 232.176 M250.800 234.400 C 250.800 235.060,250.980 235.600,251.200 235.600 C 251.420 235.600,251.600 235.060,251.600 234.400 C 251.600 233.740,251.420 233.200,251.200 233.200 C 250.980 233.200,250.800 233.740,250.800 234.400 M157.200 236.400 C 157.200 236.840,157.380 237.200,157.600 237.200 C 157.820 237.200,158.000 236.840,158.000 236.400 C 158.000 235.960,157.820 235.600,157.600 235.600 C 157.380 235.600,157.200 235.960,157.200 236.400 M158.000 238.200 C 158.000 238.530,158.180 238.800,158.400 238.800 C 158.620 238.800,158.800 238.530,158.800 238.200 C 158.800 237.870,158.620 237.600,158.400 237.600 C 158.180 237.600,158.000 237.870,158.000 238.200 M250.000 239.000 C 250.000 239.770,250.180 240.400,250.400 240.400 C 250.620 240.400,250.800 239.770,250.800 239.000 C 250.800 238.230,250.620 237.600,250.400 237.600 C 250.180 237.600,250.000 238.230,250.000 239.000 M158.800 240.400 C 158.800 240.840,158.980 241.200,159.200 241.200 C 159.420 241.200,159.600 240.840,159.600 240.400 C 159.600 239.960,159.420 239.600,159.200 239.600 C 158.980 239.600,158.800 239.960,158.800 240.400 M159.600 242.200 C 159.600 242.530,159.780 242.800,160.000 242.800 C 160.220 242.800,160.400 242.530,160.400 242.200 C 160.400 241.870,160.220 241.600,160.000 241.600 C 159.780 241.600,159.600 241.870,159.600 242.200 M249.200 244.224 C 249.200 245.337,249.356 245.951,249.600 245.800 C 249.820 245.664,250.000 244.843,250.000 243.976 C 250.000 243.109,249.820 242.400,249.600 242.400 C 249.380 242.400,249.200 243.221,249.200 244.224 M160.400 244.400 C 160.400 244.840,160.580 245.200,160.800 245.200 C 161.020 245.200,161.200 244.840,161.200 244.400 C 161.200 243.960,161.020 243.600,160.800 243.600 C 160.580 243.600,160.400 243.960,160.400 244.400 M248.400 248.600 C 248.400 249.370,248.580 250.000,248.800 250.000 C 249.020 250.000,249.200 249.370,249.200 248.600 C 249.200 247.830,249.020 247.200,248.800 247.200 C 248.580 247.200,248.400 247.830,248.400 248.600 M162.000 248.600 C 162.000 248.930,162.180 249.200,162.400 249.200 C 162.620 249.200,162.800 248.930,162.800 248.600 C 162.800 248.270,162.620 248.000,162.400 248.000 C 162.180 248.000,162.000 248.270,162.000 248.600 M163.600 252.600 C 163.600 252.930,163.780 253.200,164.000 253.200 C 164.220 253.200,164.400 252.930,164.400 252.600 C 164.400 252.270,164.220 252.000,164.000 252.000 C 163.780 252.000,163.600 252.270,163.600 252.600 M247.600 253.400 C 247.600 254.170,247.780 254.800,248.000 254.800 C 248.220 254.800,248.400 254.170,248.400 253.400 C 248.400 252.630,248.220 252.000,248.000 252.000 C 247.780 252.000,247.600 252.630,247.600 253.400 M246.800 258.000 C 246.800 258.880,246.980 259.600,247.200 259.600 C 247.420 259.600,247.600 258.880,247.600 258.000 C 247.600 257.120,247.420 256.400,247.200 256.400 C 246.980 256.400,246.800 257.120,246.800 258.000 M166.000 258.553 C 166.000 258.883,166.180 259.264,166.400 259.400 C 166.620 259.536,166.800 259.377,166.800 259.047 C 166.800 258.717,166.620 258.336,166.400 258.200 C 166.180 258.064,166.000 258.223,166.000 258.553 M166.800 260.600 C 166.800 260.930,166.980 261.200,167.200 261.200 C 167.420 261.200,167.600 260.930,167.600 260.600 C 167.600 260.270,167.420 260.000,167.200 260.000 C 166.980 260.000,166.800 260.270,166.800 260.600 M246.000 262.800 C 246.000 263.680,246.180 264.400,246.400 264.400 C 246.620 264.400,246.800 263.680,246.800 262.800 C 246.800 261.920,246.620 261.200,246.400 261.200 C 246.180 261.200,246.000 261.920,246.000 262.800 M167.600 262.800 C 167.600 263.240,167.780 263.600,168.000 263.600 C 168.220 263.600,168.400 263.240,168.400 262.800 C 168.400 262.360,168.220 262.000,168.000 262.000 C 167.780 262.000,167.600 262.360,167.600 262.800 M168.400 264.776 C 168.400 265.203,168.580 265.664,168.800 265.800 C 169.020 265.936,169.200 266.397,169.200 266.824 C 169.200 267.251,169.380 267.600,169.600 267.600 C 170.190 267.600,170.086 266.569,169.441 266.034 C 169.134 265.779,168.975 265.217,169.088 264.785 C 169.201 264.351,169.094 264.000,168.847 264.000 C 168.601 264.000,168.400 264.349,168.400 264.776 M245.200 268.400 C 245.200 268.840,245.380 269.200,245.600 269.200 C 245.820 269.200,246.000 268.840,246.000 268.400 C 246.000 267.960,245.820 267.600,245.600 267.600 C 245.380 267.600,245.200 267.960,245.200 268.400 M170.000 268.600 C 170.000 268.930,170.180 269.200,170.400 269.200 C 170.620 269.200,170.800 268.930,170.800 268.600 C 170.800 268.270,170.620 268.000,170.400 268.000 C 170.180 268.000,170.000 268.270,170.000 268.600 M170.800 270.376 C 170.800 270.803,170.980 271.264,171.200 271.400 C 171.427 271.540,171.600 271.204,171.600 270.624 C 171.600 270.061,171.420 269.600,171.200 269.600 C 170.980 269.600,170.800 269.949,170.800 270.376 M244.353 271.500 C 244.327 271.885,244.349 272.380,244.404 272.600 C 244.458 272.820,244.509 273.217,244.518 273.482 C 244.556 274.647,245.200 273.414,245.200 272.176 C 245.200 270.794,244.441 270.189,244.353 271.500 M172.400 274.576 C 172.400 275.467,173.026 275.644,173.092 274.772 C 173.124 274.348,172.981 274.000,172.775 274.000 C 172.569 274.000,172.400 274.259,172.400 274.576 M173.200 276.600 C 173.200 276.930,173.380 277.200,173.600 277.200 C 173.820 277.200,174.000 276.930,174.000 276.600 C 174.000 276.270,173.820 276.000,173.600 276.000 C 173.380 276.000,173.200 276.270,173.200 276.600 M243.600 277.776 C 243.600 278.339,243.780 278.800,244.000 278.800 C 244.220 278.800,244.400 278.451,244.400 278.024 C 244.400 277.597,244.220 277.136,244.000 277.000 C 243.773 276.860,243.600 277.196,243.600 277.776 M174.000 278.800 C 174.000 279.240,174.180 279.600,174.400 279.600 C 174.620 279.600,174.800 279.240,174.800 278.800 C 174.800 278.360,174.620 278.000,174.400 278.000 C 174.180 278.000,174.000 278.360,174.000 278.800 M174.800 280.600 C 174.800 280.930,174.980 281.200,175.200 281.200 C 175.420 281.200,175.600 280.930,175.600 280.600 C 175.600 280.270,175.420 280.000,175.200 280.000 C 174.980 280.000,174.800 280.270,174.800 280.600 M242.853 281.742 C 242.905 282.740,243.094 283.465,243.274 283.355 C 243.750 283.060,243.673 280.493,243.180 280.187 C 242.905 280.018,242.792 280.556,242.853 281.742 M175.600 283.000 C 175.600 283.330,175.780 283.600,176.000 283.600 C 176.220 283.600,176.400 283.330,176.400 283.000 C 176.400 282.670,176.220 282.400,176.000 282.400 C 175.780 282.400,175.600 282.670,175.600 283.000 M176.400 285.200 C 176.400 285.640,176.580 286.000,176.800 286.000 C 177.020 286.000,177.200 285.640,177.200 285.200 C 177.200 284.760,177.020 284.400,176.800 284.400 C 176.580 284.400,176.400 284.760,176.400 285.200 M242.055 286.578 C 242.106 287.556,242.294 288.265,242.474 288.155 C 242.955 287.857,242.871 284.800,242.382 284.800 C 242.139 284.800,242.002 285.548,242.055 286.578 M177.200 287.176 C 177.200 287.603,177.380 288.064,177.600 288.200 C 177.820 288.336,178.000 288.797,178.000 289.224 C 178.000 289.651,178.180 290.000,178.400 290.000 C 178.620 290.000,178.800 289.640,178.800 289.200 C 178.800 288.760,178.620 288.400,178.400 288.400 C 178.180 288.400,178.000 287.950,178.000 287.400 C 178.000 286.850,177.820 286.400,177.600 286.400 C 177.380 286.400,177.200 286.749,177.200 287.176 M241.200 291.000 C 241.200 291.770,241.380 292.400,241.600 292.400 C 241.820 292.400,242.000 291.770,242.000 291.000 C 242.000 290.230,241.820 289.600,241.600 289.600 C 241.380 289.600,241.200 290.230,241.200 291.000 M179.067 290.667 C 178.652 291.082,178.753 292.400,179.200 292.400 C 179.420 292.400,179.600 291.950,179.600 291.400 C 179.600 290.353,179.508 290.226,179.067 290.667 M179.600 293.400 C 179.600 293.730,179.780 294.000,180.000 294.000 C 180.220 294.000,180.400 293.730,180.400 293.400 C 180.400 293.070,180.220 292.800,180.000 292.800 C 179.780 292.800,179.600 293.070,179.600 293.400 M240.314 294.700 C 240.108 295.695,240.429 297.200,240.847 297.200 C 241.041 297.200,241.200 296.480,241.200 295.600 C 241.200 294.001,240.587 293.378,240.314 294.700 M180.400 295.600 C 180.400 296.040,180.580 296.400,180.800 296.400 C 181.020 296.400,181.200 296.040,181.200 295.600 C 181.200 295.160,181.020 294.800,180.800 294.800 C 180.580 294.800,180.400 295.160,180.400 295.600 M181.200 297.400 C 181.200 297.730,181.380 298.000,181.600 298.000 C 181.820 298.000,182.000 297.730,182.000 297.400 C 182.000 297.070,181.820 296.800,181.600 296.800 C 181.380 296.800,181.200 297.070,181.200 297.400 M239.600 299.776 C 239.600 300.559,239.780 301.200,240.000 301.200 C 240.220 301.200,240.400 300.671,240.400 300.024 C 240.400 299.377,240.220 298.736,240.000 298.600 C 239.762 298.453,239.600 298.929,239.600 299.776 M182.000 299.600 C 182.000 300.040,182.180 300.400,182.400 300.400 C 182.620 300.400,182.800 300.040,182.800 299.600 C 182.800 299.160,182.620 298.800,182.400 298.800 C 182.180 298.800,182.000 299.160,182.000 299.600 M182.800 301.376 C 182.800 301.693,182.980 302.064,183.200 302.200 C 183.420 302.336,183.600 302.077,183.600 301.624 C 183.600 301.171,183.420 300.800,183.200 300.800 C 182.980 300.800,182.800 301.059,182.800 301.376 M238.800 304.600 C 238.800 305.370,238.980 306.000,239.200 306.000 C 239.420 306.000,239.600 305.370,239.600 304.600 C 239.600 303.830,239.420 303.200,239.200 303.200 C 238.980 303.200,238.800 303.830,238.800 304.600 M184.400 306.200 C 184.400 306.530,184.580 306.800,184.800 306.800 C 185.020 306.800,185.200 306.530,185.200 306.200 C 185.200 305.870,185.020 305.600,184.800 305.600 C 184.580 305.600,184.400 305.870,184.400 306.200 M185.200 307.800 C 185.200 308.130,185.380 308.400,185.600 308.400 C 185.820 308.400,186.000 308.130,186.000 307.800 C 186.000 307.470,185.820 307.200,185.600 307.200 C 185.380 307.200,185.200 307.470,185.200 307.800 M238.000 309.224 C 238.000 310.204,238.158 310.749,238.400 310.600 C 238.620 310.464,238.800 309.733,238.800 308.976 C 238.800 308.219,238.620 307.600,238.400 307.600 C 238.180 307.600,238.000 308.331,238.000 309.224 M186.000 310.000 C 186.000 310.440,186.180 310.800,186.400 310.800 C 186.620 310.800,186.800 310.440,186.800 310.000 C 186.800 309.560,186.620 309.200,186.400 309.200 C 186.180 309.200,186.000 309.560,186.000 310.000 M186.800 311.976 C 186.800 312.403,186.980 312.864,187.200 313.000 C 187.420 313.136,187.600 313.597,187.600 314.024 C 187.600 314.451,187.780 314.800,188.000 314.800 C 188.220 314.800,188.400 314.440,188.400 314.000 C 188.400 313.560,188.220 313.200,188.000 313.200 C 187.780 313.200,187.600 312.750,187.600 312.200 C 187.600 311.650,187.420 311.200,187.200 311.200 C 186.980 311.200,186.800 311.549,186.800 311.976 M237.200 313.400 C 237.200 314.170,237.380 314.800,237.600 314.800 C 237.820 314.800,238.000 314.170,238.000 313.400 C 238.000 312.630,237.820 312.000,237.600 312.000 C 237.380 312.000,237.200 312.630,237.200 313.400 M188.400 316.176 C 188.400 316.739,188.580 317.200,188.800 317.200 C 189.020 317.200,189.200 316.851,189.200 316.424 C 189.200 315.997,189.020 315.536,188.800 315.400 C 188.573 315.260,188.400 315.596,188.400 316.176 M236.400 317.600 C 236.400 318.260,236.580 318.800,236.800 318.800 C 237.020 318.800,237.200 318.260,237.200 317.600 C 237.200 316.940,237.020 316.400,236.800 316.400 C 236.580 316.400,236.400 316.940,236.400 317.600 M189.200 318.200 C 189.200 318.530,189.380 318.800,189.600 318.800 C 189.820 318.800,190.000 318.530,190.000 318.200 C 190.000 317.870,189.820 317.600,189.600 317.600 C 189.380 317.600,189.200 317.870,189.200 318.200 M190.000 320.176 C 190.000 320.493,190.180 320.864,190.400 321.000 C 190.620 321.136,190.800 321.597,190.800 322.024 C 190.800 322.451,190.980 322.800,191.200 322.800 C 191.420 322.800,191.600 322.440,191.600 322.000 C 191.600 321.560,191.420 321.200,191.200 321.200 C 190.980 321.200,190.800 320.840,190.800 320.400 C 190.800 319.960,190.620 319.600,190.400 319.600 C 190.180 319.600,190.000 319.859,190.000 320.176 M235.512 321.100 C 235.288 321.965,235.544 322.800,236.033 322.800 C 236.235 322.800,236.400 322.260,236.400 321.600 C 236.400 320.299,235.806 319.965,235.512 321.100 M191.600 323.800 C 191.600 324.130,191.780 324.400,192.000 324.400 C 192.220 324.400,192.400 324.130,192.400 323.800 C 192.400 323.470,192.220 323.200,192.000 323.200 C 191.780 323.200,191.600 323.470,191.600 323.800 M234.800 326.224 C 234.800 327.071,234.962 327.547,235.200 327.400 C 235.420 327.264,235.600 326.623,235.600 325.976 C 235.600 325.329,235.420 324.800,235.200 324.800 C 234.980 324.800,234.800 325.441,234.800 326.224 M192.400 326.000 C 192.400 326.440,192.580 326.800,192.800 326.800 C 193.020 326.800,193.200 326.440,193.200 326.000 C 193.200 325.560,193.020 325.200,192.800 325.200 C 192.580 325.200,192.400 325.560,192.400 326.000 M193.200 327.800 C 193.200 328.130,193.380 328.400,193.600 328.400 C 193.820 328.400,194.000 328.130,194.000 327.800 C 194.000 327.470,193.820 327.200,193.600 327.200 C 193.380 327.200,193.200 327.470,193.200 327.800 M194.000 330.000 C 194.000 330.440,194.180 330.800,194.400 330.800 C 194.620 330.800,194.800 330.440,194.800 330.000 C 194.800 329.560,194.620 329.200,194.400 329.200 C 194.180 329.200,194.000 329.560,194.000 330.000 M234.000 330.400 C 234.000 331.147,234.107 331.253,234.480 330.880 C 234.853 330.507,234.853 330.293,234.480 329.920 C 234.107 329.547,234.000 329.653,234.000 330.400 M194.800 331.800 C 194.800 332.130,194.980 332.400,195.200 332.400 C 195.420 332.400,195.600 332.130,195.600 331.800 C 195.600 331.470,195.420 331.200,195.200 331.200 C 194.980 331.200,194.800 331.470,194.800 331.800 M233.267 334.174 C 233.318 334.930,233.504 335.459,233.680 335.351 C 234.152 335.059,234.070 332.800,233.587 332.800 C 233.361 332.800,233.217 333.418,233.267 334.174 M195.600 334.000 C 195.600 334.440,195.780 334.800,196.000 334.800 C 196.220 334.800,196.400 335.160,196.400 335.600 C 196.400 336.040,196.580 336.400,196.800 336.400 C 197.020 336.400,197.200 336.141,197.200 335.824 C 197.200 335.507,197.020 335.136,196.800 335.000 C 196.580 334.864,196.400 334.403,196.400 333.976 C 196.400 333.549,196.220 333.200,196.000 333.200 C 195.780 333.200,195.600 333.560,195.600 334.000 M232.400 337.600 C 232.400 338.260,232.580 338.800,232.800 338.800 C 233.020 338.800,233.200 338.260,233.200 337.600 C 233.200 336.940,233.020 336.400,232.800 336.400 C 232.580 336.400,232.400 336.940,232.400 337.600 M197.200 337.400 C 197.200 337.730,197.380 338.000,197.600 338.000 C 197.820 338.000,198.000 337.730,198.000 337.400 C 198.000 337.070,197.820 336.800,197.600 336.800 C 197.380 336.800,197.200 337.070,197.200 337.400 M198.000 339.600 C 198.000 340.040,198.180 340.400,198.400 340.400 C 198.620 340.400,198.800 340.040,198.800 339.600 C 198.800 339.160,198.620 338.800,198.400 338.800 C 198.180 338.800,198.000 339.160,198.000 339.600 M231.600 341.424 C 231.600 342.271,231.762 342.747,232.000 342.600 C 232.220 342.464,232.400 341.823,232.400 341.176 C 232.400 340.529,232.220 340.000,232.000 340.000 C 231.780 340.000,231.600 340.641,231.600 341.424 M199.600 343.000 C 199.600 343.330,199.780 343.600,200.000 343.600 C 200.220 343.600,200.400 343.330,200.400 343.000 C 200.400 342.670,200.220 342.400,200.000 342.400 C 199.780 342.400,199.600 342.670,199.600 343.000 M230.800 344.800 C 230.800 345.460,230.980 346.000,231.200 346.000 C 231.420 346.000,231.600 345.460,231.600 344.800 C 231.600 344.140,231.420 343.600,231.200 343.600 C 230.980 343.600,230.800 344.140,230.800 344.800 M201.200 346.800 C 201.200 347.240,201.380 347.600,201.600 347.600 C 201.820 347.600,202.000 347.240,202.000 346.800 C 202.000 346.360,201.820 346.000,201.600 346.000 C 201.380 346.000,201.200 346.360,201.200 346.800 M230.000 348.200 C 230.000 348.750,230.180 349.200,230.400 349.200 C 230.620 349.200,230.800 348.750,230.800 348.200 C 230.800 347.650,230.620 347.200,230.400 347.200 C 230.180 347.200,230.000 347.650,230.000 348.200 M202.000 348.600 C 202.000 348.930,202.180 349.200,202.400 349.200 C 202.620 349.200,202.800 348.930,202.800 348.600 C 202.800 348.270,202.620 348.000,202.400 348.000 C 202.180 348.000,202.000 348.270,202.000 348.600 M229.200 351.400 C 229.200 351.950,229.380 352.400,229.600 352.400 C 229.820 352.400,230.000 351.950,230.000 351.400 C 230.000 350.850,229.820 350.400,229.600 350.400 C 229.380 350.400,229.200 350.850,229.200 351.400 M203.600 352.176 C 203.600 352.493,203.780 352.864,204.000 353.000 C 204.220 353.136,204.400 353.597,204.400 354.024 C 204.400 354.451,204.580 354.800,204.800 354.800 C 205.020 354.800,205.200 355.160,205.200 355.600 C 205.200 356.040,205.380 356.400,205.600 356.400 C 205.820 356.400,206.000 356.745,206.000 357.167 C 206.000 357.588,206.136 357.993,206.302 358.067 C 206.468 358.140,207.215 359.415,207.962 360.900 C 209.272 363.505,210.000 364.255,210.000 363.000 C 210.000 362.670,209.820 362.400,209.600 362.400 C 209.380 362.400,209.200 362.149,209.200 361.843 C 209.200 361.536,208.933 361.183,208.607 361.058 C 208.280 360.933,208.111 360.577,208.230 360.267 C 208.349 359.957,208.169 359.597,207.830 359.467 C 207.474 359.330,207.313 358.971,207.450 358.615 C 207.579 358.277,207.486 358.000,207.243 358.000 C 206.999 358.000,206.800 357.640,206.800 357.200 C 206.800 356.760,206.620 356.400,206.400 356.400 C 206.180 356.400,206.000 356.040,206.000 355.600 C 206.000 355.160,205.820 354.800,205.600 354.800 C 205.380 354.800,205.200 354.459,205.200 354.043 C 205.200 353.626,204.933 353.183,204.607 353.058 C 204.269 352.928,204.115 352.565,204.250 352.215 C 204.379 351.877,204.286 351.600,204.043 351.600 C 203.799 351.600,203.600 351.859,203.600 352.176 M228.400 354.400 C 228.400 355.060,228.580 355.600,228.800 355.600 C 229.020 355.600,229.200 355.060,229.200 354.400 C 229.200 353.740,229.020 353.200,228.800 353.200 C 228.580 353.200,228.400 353.740,228.400 354.400 M227.600 357.400 C 227.600 357.730,227.780 358.000,228.000 358.000 C 228.220 358.000,228.400 357.730,228.400 357.400 C 228.400 357.070,228.220 356.800,228.000 356.800 C 227.780 356.800,227.600 357.070,227.600 357.400 M226.800 359.800 C 226.800 360.130,226.980 360.400,227.200 360.400 C 227.420 360.400,227.600 360.130,227.600 359.800 C 227.600 359.470,227.420 359.200,227.200 359.200 C 226.980 359.200,226.800 359.470,226.800 359.800 M226.000 362.000 C 226.000 362.440,226.180 362.800,226.400 362.800 C 226.620 362.800,226.800 362.440,226.800 362.000 C 226.800 361.560,226.620 361.200,226.400 361.200 C 226.180 361.200,226.000 361.560,226.000 362.000 M210.013 364.300 C 210.057 365.343,211.600 366.413,211.600 365.400 C 211.600 365.070,211.319 364.800,210.976 364.800 C 210.633 364.800,210.464 364.620,210.600 364.400 C 210.736 364.180,210.657 364.000,210.424 364.000 C 210.191 364.000,210.006 364.135,210.013 364.300 M224.069 365.639 C 223.780 366.100,223.638 366.572,223.753 366.687 C 224.028 366.961,225.200 365.780,225.200 365.229 C 225.200 364.532,224.631 364.738,224.069 365.639 M212.400 367.538 C 212.400 368.148,213.908 369.272,214.166 368.855 C 214.301 368.636,214.046 368.342,213.600 368.200 C 213.154 368.058,212.892 367.775,213.018 367.571 C 213.144 367.367,213.057 367.200,212.824 367.200 C 212.591 367.200,212.400 367.352,212.400 367.538 M221.867 368.267 C 221.406 368.727,221.575 369.200,222.200 369.200 C 222.530 369.200,222.800 368.930,222.800 368.600 C 222.800 367.975,222.327 367.806,221.867 368.267 "
              stroke="none" fill="#d6c4ad" fill-rule="evenodd"></path>
        <path id="path4"
              d="M191.600 36.757 C 191.600 37.547,195.355 37.923,197.500 37.348 C 199.408 36.837,198.256 36.400,195.000 36.400 C 193.130 36.400,191.600 36.561,191.600 36.757 M207.200 36.753 C 207.200 37.449,210.419 37.875,211.767 37.357 C 213.147 36.828,212.269 36.400,209.800 36.400 C 208.370 36.400,207.200 36.559,207.200 36.753 M188.500 37.700 C 188.592 37.975,189.087 38.200,189.600 38.200 C 190.113 38.200,190.608 37.975,190.700 37.700 C 190.810 37.370,190.436 37.200,189.600 37.200 C 188.764 37.200,188.390 37.370,188.500 37.700 M213.700 37.700 C 213.908 38.325,214.966 38.545,216.232 38.228 C 217.843 37.823,217.319 37.200,215.367 37.200 C 214.078 37.200,213.583 37.349,213.700 37.700 M185.200 38.400 C 185.200 38.620,184.645 38.800,183.967 38.800 C 183.158 38.800,182.791 38.972,182.900 39.300 C 183.154 40.064,184.490 40.165,185.006 39.459 C 185.269 39.100,185.947 38.867,186.589 38.915 C 187.207 38.962,187.792 38.775,187.890 38.500 C 188.010 38.160,187.608 38.000,186.633 38.000 C 185.845 38.000,185.200 38.180,185.200 38.400 M218.490 38.471 C 218.695 39.085,220.751 39.194,220.900 38.600 C 220.955 38.380,220.396 38.142,219.657 38.071 C 218.683 37.978,218.363 38.088,218.490 38.471 M222.100 39.300 C 222.192 39.575,222.687 39.800,223.200 39.800 C 223.713 39.800,224.208 39.575,224.300 39.300 C 224.410 38.970,224.036 38.800,223.200 38.800 C 222.364 38.800,221.990 38.970,222.100 39.300 M180.500 40.100 C 180.592 40.375,180.997 40.600,181.400 40.600 C 181.803 40.600,182.208 40.375,182.300 40.100 C 182.406 39.783,182.076 39.600,181.400 39.600 C 180.724 39.600,180.394 39.783,180.500 40.100 M224.907 40.100 C 225.003 40.375,225.513 40.578,226.040 40.552 C 226.568 40.525,227.152 40.765,227.339 41.085 C 227.560 41.466,228.013 41.583,228.647 41.424 C 229.328 41.253,229.691 41.371,229.863 41.820 C 230.029 42.252,230.401 42.386,231.013 42.233 C 231.577 42.091,231.995 42.209,232.124 42.546 C 232.295 42.992,233.383 43.385,235.092 43.620 C 235.250 43.642,235.445 43.467,235.523 43.230 C 235.602 42.994,235.292 42.800,234.833 42.800 C 234.375 42.800,234.000 42.620,234.000 42.400 C 234.000 42.180,233.651 42.000,233.224 42.000 C 232.797 42.000,232.336 41.820,232.200 41.600 C 232.064 41.380,231.524 41.200,231.000 41.200 C 230.476 41.200,229.936 41.020,229.800 40.800 C 229.664 40.580,229.113 40.400,228.576 40.400 C 228.039 40.400,227.600 40.220,227.600 40.000 C 227.600 39.780,226.955 39.600,226.167 39.600 C 225.194 39.600,224.789 39.761,224.907 40.100 M178.000 40.800 C 178.000 41.020,177.460 41.200,176.800 41.200 C 176.140 41.200,175.600 41.380,175.600 41.600 C 175.600 41.820,175.161 42.000,174.624 42.000 C 174.087 42.000,173.536 42.180,173.400 42.400 C 173.264 42.620,172.803 42.800,172.376 42.800 C 171.949 42.800,171.600 42.980,171.600 43.200 C 171.600 43.420,171.251 43.600,170.824 43.600 C 170.397 43.600,169.936 43.780,169.800 44.000 C 169.664 44.220,169.113 44.400,168.576 44.400 C 168.039 44.400,167.600 44.580,167.600 44.800 C 167.600 45.020,167.240 45.200,166.800 45.200 C 166.360 45.200,166.000 45.380,166.000 45.600 C 166.000 45.820,165.640 46.000,165.200 46.000 C 164.760 46.000,164.400 46.180,164.400 46.400 C 164.400 46.620,164.040 46.800,163.600 46.800 C 163.160 46.800,162.800 46.980,162.800 47.200 C 162.800 47.420,162.440 47.600,162.000 47.600 C 161.560 47.600,161.200 47.780,161.200 48.000 C 161.200 48.220,160.840 48.400,160.400 48.400 C 159.960 48.400,159.600 48.580,159.600 48.800 C 159.600 49.020,159.317 49.200,158.971 49.200 C 158.253 49.200,157.200 50.134,157.200 50.771 C 157.200 51.262,158.265 51.360,158.467 50.887 C 158.540 50.715,160.715 49.527,163.300 48.247 C 165.885 46.968,168.000 45.775,168.000 45.598 C 168.000 45.420,168.360 45.369,168.800 45.484 C 169.366 45.632,169.600 45.496,169.600 45.020 C 169.600 44.538,169.818 44.415,170.366 44.589 C 170.788 44.723,171.248 44.645,171.390 44.416 C 171.531 44.187,172.002 44.000,172.436 44.000 C 172.870 44.000,173.331 43.725,173.460 43.388 C 173.608 43.001,173.972 42.864,174.449 43.016 C 174.935 43.170,175.291 43.027,175.449 42.616 C 175.603 42.214,175.966 42.062,176.422 42.207 C 176.823 42.334,177.476 42.263,177.875 42.048 C 178.274 41.834,178.915 41.561,179.300 41.442 C 180.349 41.117,180.143 40.400,179.000 40.400 C 178.450 40.400,178.000 40.580,178.000 40.800 M239.200 45.592 C 239.200 45.808,239.650 46.098,240.200 46.236 C 240.750 46.374,241.200 46.647,241.200 46.843 C 241.200 47.040,241.524 47.200,241.920 47.200 C 242.316 47.200,242.811 47.363,243.020 47.562 C 243.938 48.437,246.388 49.543,246.611 49.182 C 246.922 48.680,245.842 47.600,245.029 47.600 C 244.683 47.600,244.400 47.420,244.400 47.200 C 244.400 46.980,244.040 46.800,243.600 46.800 C 243.160 46.800,242.800 46.620,242.800 46.400 C 242.800 46.180,242.440 46.000,242.000 46.000 C 241.560 46.000,241.200 45.820,241.200 45.600 C 241.200 45.380,240.750 45.200,240.200 45.200 C 239.650 45.200,239.200 45.377,239.200 45.592 M247.200 49.792 C 247.200 50.118,247.637 50.494,248.171 50.628 C 248.704 50.762,249.452 51.216,249.833 51.636 C 250.213 52.056,250.735 52.400,250.992 52.400 C 251.250 52.400,251.878 52.844,252.388 53.388 C 252.899 53.931,253.449 54.293,253.612 54.193 C 254.081 53.903,262.898 62.322,266.152 66.167 C 267.006 67.175,267.861 68.000,268.052 68.000 C 268.811 68.000,268.322 67.063,266.800 65.600 C 265.920 64.754,265.200 63.866,265.200 63.625 C 265.200 62.821,259.178 57.123,258.574 57.355 C 258.258 57.476,258.000 57.395,258.000 57.174 C 258.000 56.679,255.360 54.000,254.873 54.000 C 254.678 54.000,253.954 53.460,253.263 52.800 C 252.572 52.140,251.775 51.600,251.492 51.600 C 251.209 51.600,250.717 51.240,250.400 50.800 C 250.083 50.360,249.503 50.000,249.112 50.000 C 248.720 50.000,248.400 49.820,248.400 49.600 C 248.400 49.380,248.130 49.200,247.800 49.200 C 247.470 49.200,247.200 49.467,247.200 49.792 M155.600 51.200 C 155.600 51.420,155.280 51.600,154.888 51.600 C 154.497 51.600,153.917 51.960,153.600 52.400 C 153.283 52.840,152.785 53.200,152.494 53.200 C 151.865 53.200,150.000 54.982,150.000 55.582 C 150.000 56.252,150.505 56.048,151.985 54.784 C 152.747 54.133,153.582 53.600,153.842 53.600 C 154.102 53.600,154.419 53.328,154.546 52.996 C 154.673 52.664,154.918 52.423,155.089 52.460 C 155.260 52.497,155.715 52.389,156.100 52.221 C 156.956 51.846,157.029 50.800,156.200 50.800 C 155.870 50.800,155.600 50.980,155.600 51.200 M147.680 56.630 C 146.340 58.060,147.028 58.715,148.444 57.358 C 149.080 56.749,149.600 56.104,149.600 55.925 C 149.600 55.291,148.587 55.663,147.680 56.630 M222.313 58.300 C 221.231 59.541,220.800 60.710,220.800 62.407 C 220.800 64.341,221.727 64.475,221.916 62.569 C 222.098 60.738,222.816 59.249,223.643 58.986 C 224.059 58.854,224.400 58.488,224.400 58.173 C 224.400 57.374,223.049 57.456,222.313 58.300 M139.432 64.130 C 136.150 67.468,133.381 70.452,133.279 70.759 C 133.177 71.067,132.578 71.858,131.947 72.518 C 131.316 73.179,130.800 73.922,130.800 74.171 C 130.800 74.420,130.440 74.883,130.000 75.200 C 129.560 75.517,129.200 76.014,129.200 76.305 C 129.200 76.596,128.840 77.220,128.400 77.692 C 127.960 78.164,127.600 78.787,127.600 79.075 C 127.600 79.364,127.420 79.600,127.200 79.600 C 126.980 79.600,126.800 79.960,126.800 80.400 C 126.800 80.840,126.620 81.200,126.400 81.200 C 126.180 81.200,126.000 81.560,126.000 82.000 C 126.000 82.440,125.820 82.800,125.600 82.800 C 125.380 82.800,125.200 83.160,125.200 83.600 C 125.200 84.040,125.020 84.400,124.800 84.400 C 124.580 84.400,124.400 84.850,124.400 85.400 C 124.400 86.041,124.625 86.400,125.027 86.400 C 125.459 86.400,125.580 86.166,125.415 85.647 C 125.260 85.160,125.406 84.806,125.830 84.644 C 126.205 84.500,126.386 84.140,126.254 83.797 C 126.128 83.468,126.204 83.200,126.422 83.200 C 126.864 83.200,127.768 81.256,127.657 80.546 C 127.618 80.296,127.878 79.979,128.234 79.842 C 128.606 79.699,128.785 79.339,128.654 78.997 C 128.520 78.648,128.651 78.400,128.970 78.400 C 129.422 78.400,130.130 77.424,129.915 77.096 C 129.881 77.043,130.515 76.100,131.324 75.000 C 132.133 73.900,133.226 72.360,133.753 71.579 C 134.280 70.797,137.338 67.557,140.550 64.379 C 143.761 61.200,146.391 58.465,146.394 58.300 C 146.413 57.327,144.757 58.713,139.432 64.130 M154.272 62.905 C 143.868 68.863,141.584 71.575,139.811 80.075 C 138.692 85.438,139.217 92.853,140.710 92.787 C 142.094 92.727,142.981 90.610,143.639 85.800 C 144.462 79.776,146.841 75.698,151.600 72.152 C 153.030 71.087,154.441 69.984,154.735 69.701 C 155.029 69.419,155.903 68.705,156.678 68.114 C 159.945 65.622,161.727 61.887,160.320 60.480 C 159.638 59.798,159.837 59.718,154.272 62.905 M220.660 68.211 C 220.989 69.069,222.282 69.714,222.610 69.184 C 222.970 68.602,222.055 67.600,221.164 67.600 C 220.666 67.600,220.501 67.799,220.660 68.211 M268.000 68.647 C 268.000 68.870,269.367 70.628,271.008 72.515 C 271.350 72.908,271.521 73.404,271.389 73.617 C 271.257 73.831,271.434 74.115,271.782 74.248 C 272.130 74.382,272.383 74.696,272.345 74.946 C 272.238 75.654,273.989 79.200,274.446 79.200 C 274.672 79.200,274.741 79.557,274.600 80.000 C 274.420 80.568,274.528 80.800,274.973 80.800 C 275.375 80.800,275.600 80.441,275.600 79.800 C 275.600 79.250,275.420 78.800,275.200 78.800 C 274.980 78.800,274.800 78.440,274.800 78.000 C 274.800 77.560,274.620 77.200,274.400 77.200 C 274.180 77.200,274.000 76.840,274.000 76.400 C 274.000 75.960,273.820 75.600,273.600 75.600 C 273.380 75.600,273.200 75.322,273.200 74.983 C 273.200 74.644,272.840 73.980,272.400 73.508 C 271.960 73.036,271.600 72.413,271.600 72.125 C 271.600 71.836,271.420 71.600,271.200 71.600 C 270.980 71.600,270.800 71.322,270.800 70.982 C 270.800 70.286,269.060 68.400,268.418 68.400 C 268.188 68.400,268.000 68.511,268.000 68.647 M275.322 81.858 C 275.178 82.235,275.329 82.705,275.677 82.960 C 276.011 83.204,276.266 83.835,276.242 84.361 C 276.219 84.888,276.425 85.397,276.700 85.493 C 277.039 85.611,277.200 85.206,277.200 84.233 C 277.200 83.445,277.020 82.800,276.800 82.800 C 276.580 82.800,276.400 82.440,276.400 82.000 C 276.400 81.035,275.675 80.939,275.322 81.858 M277.001 86.796 C 276.729 87.655,277.018 88.400,277.624 88.400 C 277.831 88.400,278.000 87.860,278.000 87.200 C 278.000 85.842,277.383 85.593,277.001 86.796 M123.600 87.600 C 123.600 88.040,123.420 88.400,123.200 88.400 C 122.980 88.400,122.800 88.940,122.800 89.600 C 122.800 90.260,122.620 90.800,122.400 90.800 C 122.180 90.800,122.000 91.329,122.000 91.976 C 122.000 92.623,121.820 93.264,121.600 93.400 C 120.997 93.772,121.091 96.105,121.700 95.890 C 121.983 95.790,122.158 95.186,122.104 94.498 C 122.040 93.689,122.222 93.200,122.646 93.038 C 123.090 92.867,123.212 92.502,123.045 91.838 C 122.879 91.174,123.000 90.809,123.444 90.638 C 123.835 90.488,123.987 90.142,123.835 89.746 C 123.689 89.367,123.865 88.895,124.258 88.607 C 124.657 88.315,124.828 87.849,124.678 87.458 C 124.325 86.539,123.600 86.635,123.600 87.600 M277.867 89.467 C 277.534 89.800,277.520 91.326,277.843 92.167 C 278.309 93.383,278.800 92.785,278.800 91.000 C 278.800 89.320,278.502 88.831,277.867 89.467 M278.657 96.300 C 278.091 99.724,278.527 107.816,279.253 107.367 C 279.707 107.087,279.706 94.800,279.252 94.800 C 279.061 94.800,278.793 95.475,278.657 96.300 M120.400 98.000 C 120.400 99.583,121.010 100.160,121.456 98.999 C 121.758 98.213,121.295 96.400,120.792 96.400 C 120.577 96.400,120.400 97.120,120.400 98.000 M119.873 100.261 C 119.467 100.666,119.542 104.000,119.957 104.000 C 120.725 104.000,121.092 101.479,120.467 100.494 C 120.290 100.216,120.023 100.111,119.873 100.261 M136.426 101.369 C 134.823 103.301,133.484 110.050,134.465 111.260 C 136.840 114.188,140.373 109.534,139.368 104.800 C 138.552 100.949,137.648 99.896,136.426 101.369 M119.085 105.049 C 118.658 105.475,118.738 125.915,119.167 126.180 C 119.844 126.598,120.007 124.260,119.932 115.200 C 119.861 106.510,119.689 104.445,119.085 105.049 M277.843 110.633 C 277.296 112.058,277.790 116.577,278.449 116.170 C 278.911 115.884,278.906 110.000,278.443 110.000 C 278.246 110.000,277.976 110.285,277.843 110.633 M276.943 117.803 C 276.630 118.620,277.142 121.200,277.618 121.200 C 277.828 121.200,278.000 120.300,278.000 119.200 C 278.000 117.282,277.432 116.531,276.943 117.803 M276.194 122.410 C 276.055 122.635,276.053 123.332,276.191 123.959 C 276.374 124.792,276.271 125.164,275.809 125.341 C 275.354 125.516,275.217 125.982,275.321 126.999 C 275.521 128.948,276.172 128.949,276.327 127.000 C 276.396 126.120,276.621 125.229,276.827 125.020 C 277.314 124.524,277.312 122.000,276.824 122.000 C 276.617 122.000,276.333 122.184,276.194 122.410 M119.600 129.943 C 119.600 132.110,120.224 133.041,120.620 131.465 C 120.965 130.087,120.688 128.291,120.100 128.098 C 119.745 127.981,119.600 128.514,119.600 129.943 M276.800 128.813 C 276.800 129.039,277.115 129.324,277.500 129.446 C 277.885 129.567,278.892 130.011,279.738 130.433 C 281.227 131.176,282.000 131.156,282.000 130.376 C 282.000 130.169,281.640 130.000,281.200 130.000 C 280.760 130.000,280.400 129.820,280.400 129.600 C 280.400 129.380,280.051 129.200,279.624 129.200 C 279.197 129.200,278.736 129.020,278.600 128.800 C 278.274 128.273,276.800 128.283,276.800 128.813 M282.400 131.433 C 282.400 132.140,283.261 132.017,283.508 131.275 C 283.595 131.014,283.382 130.800,283.033 130.800 C 282.685 130.800,282.400 131.085,282.400 131.433 M284.000 132.200 C 284.000 132.530,284.225 132.802,284.500 132.804 C 285.642 132.813,294.000 139.914,293.777 140.685 C 293.700 140.952,294.093 141.530,294.652 141.969 C 295.210 142.408,295.551 142.956,295.408 143.187 C 295.266 143.417,295.441 143.718,295.798 143.854 C 296.154 143.991,296.349 144.357,296.230 144.667 C 296.111 144.977,296.286 145.335,296.619 145.463 C 296.999 145.609,297.135 145.974,296.984 146.449 C 296.833 146.926,296.970 147.290,297.356 147.439 C 297.771 147.598,297.941 148.131,297.884 149.093 C 297.834 149.935,298.004 150.585,298.300 150.690 C 298.647 150.813,298.800 150.368,298.800 149.233 C 298.800 148.335,298.620 147.600,298.400 147.600 C 298.180 147.600,298.000 147.161,298.000 146.624 C 298.000 146.087,297.820 145.536,297.600 145.400 C 297.380 145.264,297.200 144.803,297.200 144.376 C 297.200 143.949,297.020 143.600,296.800 143.600 C 296.580 143.600,296.400 143.364,296.400 143.075 C 296.400 142.787,296.040 142.164,295.600 141.692 C 295.160 141.220,294.800 140.667,294.800 140.463 C 294.800 139.912,289.737 134.800,289.191 134.800 C 288.932 134.800,288.217 134.260,287.600 133.600 C 286.983 132.940,286.191 132.400,285.840 132.400 C 285.488 132.400,285.200 132.220,285.200 132.000 C 285.200 131.780,284.930 131.600,284.600 131.600 C 284.270 131.600,284.000 131.870,284.000 132.200 M120.400 135.167 C 120.400 137.278,121.006 137.912,121.426 136.241 C 121.756 134.922,121.502 133.496,120.900 133.298 C 120.544 133.181,120.400 133.719,120.400 135.167 M121.200 139.000 C 121.200 139.996,121.361 140.413,121.700 140.300 C 121.975 140.208,122.200 139.623,122.200 139.000 C 122.200 138.377,121.975 137.792,121.700 137.700 C 121.361 137.587,121.200 138.004,121.200 139.000 M122.000 142.800 C 122.000 143.680,122.166 144.400,122.368 144.400 C 122.833 144.400,123.345 142.159,123.006 141.610 C 122.461 140.729,122.000 141.275,122.000 142.800 M122.800 146.200 C 122.800 146.970,122.980 147.600,123.200 147.600 C 123.420 147.600,123.600 148.155,123.600 148.833 C 123.600 149.641,123.773 150.010,124.100 149.902 C 124.866 149.650,124.955 148.034,124.219 147.752 C 123.733 147.565,123.642 147.185,123.835 146.154 C 124.038 145.070,123.960 144.800,123.445 144.800 C 122.975 144.800,122.800 145.179,122.800 146.200 M124.400 151.985 C 124.400 154.039,122.157 156.400,120.205 156.400 C 119.872 156.400,119.600 156.559,119.600 156.753 C 119.600 156.948,119.222 157.206,118.760 157.326 C 118.297 157.447,118.038 157.738,118.183 157.973 C 118.573 158.604,119.590 158.491,119.860 157.788 C 120.008 157.402,120.372 157.264,120.847 157.415 C 121.380 157.584,121.600 157.458,121.600 156.984 C 121.600 156.561,121.815 156.397,122.185 156.539 C 123.225 156.938,125.658 153.654,125.519 152.037 C 125.342 149.983,124.400 149.939,124.400 151.985 M115.698 158.500 C 115.951 159.269,117.600 159.380,117.600 158.628 C 117.600 158.219,117.239 158.000,116.567 158.000 C 115.919 158.000,115.595 158.187,115.698 158.500 M297.745 158.600 C 297.459 159.346,297.835 160.400,298.387 160.400 C 298.614 160.400,298.800 159.860,298.800 159.200 C 298.800 157.944,298.140 157.569,297.745 158.600 M113.300 159.300 C 113.392 159.575,113.797 159.800,114.200 159.800 C 114.603 159.800,115.008 159.575,115.100 159.300 C 115.206 158.983,114.876 158.800,114.200 158.800 C 113.524 158.800,113.194 158.983,113.300 159.300 M111.000 160.000 C 110.864 160.220,110.403 160.400,109.976 160.400 C 109.549 160.400,109.200 160.580,109.200 160.800 C 109.200 161.020,108.975 161.200,108.700 161.200 C 108.044 161.201,106.000 162.968,106.000 163.534 C 106.000 163.776,105.735 163.873,105.410 163.749 C 104.744 163.493,103.600 164.463,103.600 165.283 C 103.600 165.580,103.240 166.083,102.800 166.400 C 102.360 166.717,102.000 167.297,102.000 167.688 C 102.000 168.080,101.820 168.400,101.600 168.400 C 101.380 168.400,101.200 168.850,101.200 169.400 C 101.200 170.022,101.427 170.400,101.800 170.400 C 102.144 170.400,102.400 170.040,102.400 169.556 C 102.400 168.714,104.701 164.800,105.195 164.800 C 105.339 164.800,106.208 164.156,107.128 163.369 C 108.048 162.582,108.806 162.087,108.813 162.269 C 108.820 162.451,109.078 162.267,109.386 161.860 C 109.694 161.453,110.140 161.239,110.376 161.385 C 110.612 161.531,110.916 161.364,111.050 161.013 C 111.207 160.605,111.564 160.462,112.047 160.615 C 112.566 160.780,112.800 160.659,112.800 160.227 C 112.800 159.535,111.397 159.358,111.000 160.000 M296.017 163.300 C 294.796 165.726,291.167 170.000,290.329 170.000 C 290.102 170.000,289.381 170.450,288.727 171.000 C 288.073 171.550,287.282 172.000,286.969 172.000 C 286.656 172.000,286.400 172.270,286.400 172.600 C 286.400 172.930,286.670 173.200,287.000 173.200 C 287.330 173.200,287.600 173.020,287.600 172.800 C 287.600 172.580,287.920 172.400,288.312 172.400 C 288.703 172.400,289.283 172.040,289.600 171.600 C 289.917 171.160,290.383 170.800,290.635 170.800 C 291.295 170.800,295.600 166.572,295.600 165.923 C 295.600 165.622,295.960 165.117,296.400 164.800 C 296.840 164.483,297.200 163.903,297.200 163.512 C 297.200 163.120,297.380 162.800,297.600 162.800 C 297.820 162.800,298.000 162.350,298.000 161.800 C 298.000 160.159,297.352 160.650,296.017 163.300 M100.667 171.467 C 100.239 171.894,100.360 178.328,100.800 178.600 C 101.056 178.758,101.200 177.471,101.200 175.024 C 101.200 171.199,101.165 170.968,100.667 171.467 M284.800 173.367 C 284.800 173.715,285.085 174.000,285.433 174.000 C 285.782 174.000,285.995 173.786,285.908 173.525 C 285.661 172.783,284.800 172.660,284.800 173.367 M283.013 173.979 C 282.870 174.210,282.398 174.400,281.964 174.400 C 281.530 174.400,281.072 174.669,280.946 174.997 C 280.791 175.401,280.407 175.517,279.758 175.354 C 279.045 175.175,278.800 175.278,278.800 175.757 C 278.800 176.476,280.584 176.673,281.000 176.000 C 281.136 175.780,281.597 175.600,282.024 175.600 C 282.451 175.600,282.800 175.420,282.800 175.200 C 282.800 174.980,283.175 174.800,283.633 174.800 C 284.099 174.800,284.397 174.590,284.308 174.325 C 284.090 173.671,283.329 173.468,283.013 173.979 M261.200 176.824 C 261.200 177.277,261.368 177.544,261.572 177.417 C 261.777 177.291,262.058 177.370,262.196 177.593 C 262.571 178.200,264.906 178.113,264.693 177.500 C 264.597 177.225,264.087 177.022,263.560 177.048 C 263.032 177.075,262.456 176.850,262.280 176.548 C 261.804 175.732,261.200 175.886,261.200 176.824 M275.884 176.250 C 275.728 176.406,275.600 176.695,275.600 176.893 C 275.600 177.381,277.602 177.104,277.712 176.600 C 277.816 176.129,276.296 175.838,275.884 176.250 M271.617 177.380 C 271.164 177.925,271.329 178.000,272.984 178.000 C 274.311 178.000,274.818 177.852,274.703 177.500 C 274.454 176.743,272.218 176.656,271.617 177.380 M101.200 180.200 C 101.200 180.750,101.380 181.200,101.600 181.200 C 101.820 181.200,102.000 181.488,102.000 181.840 C 102.000 182.701,105.539 186.000,106.464 186.000 C 106.869 186.000,107.200 185.718,107.200 185.373 C 107.200 184.928,106.968 184.820,106.400 185.000 C 105.960 185.140,105.599 185.107,105.598 184.927 C 105.597 184.747,105.095 184.060,104.483 183.400 C 103.871 182.740,103.054 181.525,102.666 180.700 C 101.856 178.973,101.200 178.750,101.200 180.200 M107.867 185.867 C 107.360 186.374,107.603 186.800,108.400 186.800 C 108.840 186.800,109.200 186.980,109.200 187.200 C 109.200 187.420,109.845 187.600,110.633 187.600 C 111.603 187.600,112.012 187.438,111.898 187.100 C 111.805 186.825,111.127 186.590,110.391 186.579 C 109.655 186.567,108.981 186.342,108.893 186.079 C 108.716 185.549,108.276 185.458,107.867 185.867 M114.500 187.457 C 113.237 187.987,114.244 188.400,116.800 188.400 L 119.600 188.400 119.600 190.576 C 119.600 193.253,120.255 193.843,120.608 191.484 C 121.174 187.711,120.971 187.410,117.800 187.323 C 116.260 187.281,114.775 187.341,114.500 187.457 M120.400 195.567 C 120.400 196.465,120.580 197.200,120.800 197.200 C 121.020 197.200,121.200 197.453,121.200 197.762 C 121.200 199.540,125.588 205.200,126.966 205.200 C 127.289 205.200,127.664 205.380,127.800 205.600 C 128.172 206.203,130.505 206.109,130.290 205.500 C 130.192 205.225,129.637 205.034,129.056 205.075 C 128.475 205.117,128.000 204.976,128.000 204.762 C 128.000 204.549,127.661 204.245,127.247 204.087 C 126.079 203.642,122.748 200.408,123.014 199.978 C 123.144 199.767,122.959 199.482,122.602 199.346 C 122.229 199.202,122.052 198.842,122.184 198.498 C 122.310 198.168,122.186 197.623,121.907 197.286 C 121.628 196.950,121.400 196.134,121.400 195.474 C 121.400 194.814,121.175 194.198,120.900 194.104 C 120.554 193.986,120.400 194.436,120.400 195.567 M142.241 202.031 C 141.604 202.674,140.839 203.200,140.541 203.200 C 140.244 203.200,140.000 203.380,140.000 203.600 C 140.000 203.820,139.649 204.000,139.220 204.000 C 138.791 204.000,138.296 204.235,138.120 204.522 C 137.944 204.809,137.187 205.034,136.438 205.022 C 135.689 205.010,134.999 205.225,134.905 205.500 C 134.786 205.846,135.235 206.000,136.367 206.000 C 137.265 206.000,138.000 205.820,138.000 205.600 C 138.000 205.380,138.500 205.200,139.112 205.200 C 139.765 205.200,140.461 204.870,140.800 204.400 C 141.117 203.960,141.682 203.600,142.055 203.600 C 142.428 203.600,142.809 203.375,142.902 203.100 C 143.033 202.710,143.216 202.721,143.735 203.149 C 144.167 203.506,144.400 203.541,144.400 203.249 C 144.400 203.002,144.200 202.800,143.957 202.800 C 143.683 202.800,143.610 202.416,143.764 201.800 C 144.087 200.515,143.683 200.577,142.241 202.031 M223.300 367.398 C 222.731 368.045,222.661 368.400,223.104 368.400 C 223.271 368.400,223.632 368.040,223.907 367.600 C 224.478 366.687,224.051 366.545,223.300 367.398 M217.000 370.400 C 217.136 370.620,217.676 370.800,218.200 370.800 C 218.724 370.800,219.264 370.620,219.400 370.400 C 219.547 370.161,219.063 370.000,218.200 370.000 C 217.337 370.000,216.853 370.161,217.000 370.400 "
              stroke="none" fill="#b0e3f3" fill-rule="evenodd"></path>
        <path id="path5"
              d="M244.388 38.700 L 241.800 41.400 244.590 38.800 C 246.124 37.370,247.459 36.155,247.556 36.100 C 247.654 36.045,247.563 36.000,247.355 36.000 C 247.147 36.000,245.812 37.215,244.388 38.700 M238.312 41.340 C 233.448 46.516,228.875 52.800,229.974 52.800 C 230.208 52.800,230.401 52.575,230.402 52.300 C 230.404 51.570,236.007 44.277,238.800 41.368 C 240.120 39.994,241.200 38.764,241.200 38.635 C 241.200 38.272,241.168 38.302,238.312 41.340 M236.839 46.700 C 234.776 49.204,232.009 52.981,232.004 53.300 C 231.993 54.079,232.728 53.357,234.070 51.268 C 234.878 50.010,236.288 48.130,237.204 47.091 C 238.119 46.051,238.689 45.200,238.471 45.200 C 238.253 45.200,237.518 45.875,236.839 46.700 "
              stroke="none" fill="#64a4b4" fill-rule="evenodd"></path>
        <path id="path6"
              d="M243.800 34.933 C 241.902 37.031,241.697 37.441,243.000 36.528 C 244.731 35.314,245.871 33.994,245.162 34.024 C 244.853 34.038,244.240 34.447,243.800 34.933 M246.600 36.822 C 245.940 37.470,245.633 37.999,245.918 38.000 C 246.420 38.000,248.400 36.260,248.400 35.818 C 248.400 35.337,247.739 35.705,246.600 36.822 M239.064 39.760 C 238.039 40.729,237.200 41.752,237.200 42.035 C 237.200 42.620,239.275 40.754,240.464 39.100 C 241.572 37.558,241.219 37.725,239.064 39.760 M240.623 42.776 C 239.982 43.445,239.569 44.103,239.705 44.238 C 240.042 44.576,242.093 42.478,241.923 41.969 C 241.848 41.745,241.263 42.108,240.623 42.776 M224.590 53.216 C 224.421 53.489,224.723 53.538,225.466 53.360 C 226.999 52.992,227.144 52.800,225.890 52.800 C 225.317 52.800,224.732 52.987,224.590 53.216 M222.154 54.497 C 220.612 55.694,219.707 56.753,218.986 58.200 C 218.658 58.860,218.616 59.057,218.894 58.638 C 219.987 56.992,221.858 55.031,223.000 54.335 C 223.660 53.932,223.999 53.602,223.754 53.601 C 223.509 53.601,222.789 54.003,222.154 54.497 M233.661 55.000 C 234.464 55.880,235.499 57.230,235.959 58.000 C 236.902 59.576,237.104 59.340,236.233 57.680 C 235.921 57.086,234.886 55.880,233.933 55.000 L 232.200 53.400 233.661 55.000 M222.031 57.836 C 221.354 58.405,220.800 59.054,220.800 59.278 C 220.800 59.502,221.335 59.111,221.990 58.411 C 223.325 56.981,224.532 56.934,224.728 58.304 C 224.820 58.952,224.653 59.200,224.124 59.200 C 223.386 59.200,222.158 60.691,222.563 61.096 C 222.683 61.216,222.900 61.005,223.045 60.627 C 223.190 60.248,223.735 59.777,224.255 59.579 C 225.270 59.193,225.500 58.060,224.720 57.280 C 224.003 56.563,223.393 56.689,222.031 57.836 M236.812 60.000 C 236.812 60.330,236.987 60.870,237.200 61.200 C 237.545 61.733,237.588 61.733,237.588 61.200 C 237.588 60.870,237.413 60.330,237.200 60.000 C 236.855 59.467,236.812 59.467,236.812 60.000 M220.252 60.900 C 219.582 63.401,220.501 65.478,221.800 64.400 C 222.130 64.126,222.400 63.710,222.400 63.475 C 222.400 63.239,222.157 63.379,221.861 63.785 C 220.930 65.057,220.271 64.145,220.532 61.946 C 220.777 59.880,220.651 59.411,220.252 60.900 M237.701 64.600 C 237.705 65.480,237.787 65.793,237.883 65.295 C 237.979 64.798,237.975 64.078,237.875 63.695 C 237.775 63.313,237.696 63.720,237.701 64.600 M220.267 67.067 C 219.718 67.615,220.032 68.691,221.008 69.608 C 221.994 70.533,222.032 70.538,222.708 69.799 C 223.199 69.263,223.218 69.179,222.773 69.511 C 221.961 70.114,220.400 69.106,220.400 67.977 C 220.400 66.898,221.793 66.970,222.577 68.089 C 222.920 68.578,223.200 68.786,223.200 68.551 C 223.200 67.482,220.976 66.357,220.267 67.067 M237.029 68.229 C 236.881 68.815,236.851 69.384,236.961 69.494 C 237.071 69.604,237.281 69.215,237.429 68.629 C 237.576 68.042,237.606 67.473,237.496 67.363 C 237.386 67.253,237.176 67.642,237.029 68.229 M218.401 68.920 C 218.398 69.588,219.556 71.434,220.459 72.201 C 221.400 73.000,221.400 73.000,220.744 72.200 C 220.383 71.760,219.708 70.770,219.245 70.000 C 218.782 69.230,218.402 68.744,218.401 68.920 M235.026 71.913 C 233.615 73.603,233.588 73.675,234.760 72.600 C 235.871 71.582,237.088 69.970,236.714 70.013 C 236.651 70.020,235.892 70.875,235.026 71.913 M222.344 73.576 C 222.864 74.029,223.479 74.400,223.711 74.400 C 224.203 74.400,224.179 74.380,222.600 73.455 L 221.400 72.753 222.344 73.576 M225.115 74.872 C 226.047 75.242,230.090 75.258,230.662 74.894 C 230.916 74.732,229.618 74.600,227.777 74.600 C 225.936 74.600,224.738 74.722,225.115 74.872 M247.614 161.574 C 247.386 161.999,247.206 162.584,247.214 162.874 C 247.222 163.163,247.463 162.976,247.751 162.458 C 248.264 161.532,248.290 161.551,249.384 163.658 C 251.645 168.019,255.834 172.952,259.200 175.219 C 259.970 175.737,260.732 176.350,260.894 176.581 C 261.088 176.858,261.190 176.835,261.194 176.514 C 261.197 176.247,260.593 175.616,259.850 175.112 C 256.135 172.587,251.929 167.641,249.800 163.294 C 248.489 160.617,248.234 160.416,247.614 161.574 M246.233 165.684 C 245.865 166.848,245.212 168.745,244.782 169.900 C 244.352 171.055,243.613 173.035,243.141 174.300 C 240.543 181.258,238.646 184.192,234.600 187.514 C 233.720 188.236,233.360 188.659,233.800 188.453 C 235.148 187.822,238.358 184.806,239.545 183.057 C 241.474 180.214,247.689 164.356,247.104 163.770 C 246.993 163.660,246.601 164.521,246.233 165.684 M193.394 175.210 C 193.044 175.776,192.627 180.257,192.952 179.960 C 193.096 179.828,193.346 178.688,193.507 177.428 L 193.800 175.136 196.422 178.468 C 201.817 185.325,211.315 192.180,215.115 191.960 C 215.492 191.939,215.051 191.685,214.136 191.396 C 208.373 189.579,200.161 183.154,195.769 177.027 C 194.145 174.762,193.823 174.515,193.394 175.210 M191.713 183.845 C 191.225 185.800,190.704 187.850,190.554 188.400 C 190.404 188.950,190.401 189.292,190.547 189.160 C 191.015 188.737,192.849 181.944,192.722 181.102 C 192.655 180.656,192.201 181.890,191.713 183.845 M229.200 190.446 C 227.550 191.296,226.448 191.993,226.751 191.995 C 227.347 192.000,231.959 189.761,232.580 189.165 C 233.289 188.484,232.239 188.882,229.200 190.446 M150.369 193.690 C 149.409 195.059,147.590 197.196,146.328 198.439 C 145.065 199.682,144.126 200.793,144.241 200.908 C 144.503 201.169,148.879 196.491,150.973 193.712 L 152.546 191.624 155.471 194.773 C 159.283 198.876,166.324 204.012,168.114 203.995 C 168.381 203.993,167.454 203.353,166.052 202.573 C 162.302 200.486,159.799 198.502,156.048 194.646 C 152.054 190.539,152.524 190.618,150.369 193.690 M216.600 192.400 C 217.040 192.589,218.120 192.735,219.000 192.725 C 220.529 192.706,220.547 192.692,219.400 192.400 C 217.621 191.947,215.547 191.947,216.600 192.400 M222.200 192.400 L 221.000 192.705 222.400 192.713 C 223.170 192.717,224.250 192.576,224.800 192.400 C 226.199 191.952,223.961 191.952,222.200 192.400 M186.713 196.300 C 184.438 199.738,180.751 202.643,176.972 203.977 C 175.324 204.558,175.028 204.749,176.000 204.601 C 179.461 204.073,185.620 199.441,187.377 196.045 C 188.254 194.349,187.920 194.478,186.713 196.300 M169.400 204.380 C 170.161 204.726,173.117 204.964,172.767 204.651 C 172.675 204.569,171.700 204.393,170.600 204.259 C 169.254 204.095,168.861 204.135,169.400 204.380 "
              stroke="none" fill="#a6b68a" fill-rule="evenodd"></path>
        <path id="path7"
              d="M233.986 45.666 C 232.086 47.950,229.114 52.401,229.492 52.397 C 229.661 52.395,230.210 51.677,230.710 50.800 C 231.211 49.923,232.389 48.260,233.329 47.103 C 234.268 45.946,235.174 44.775,235.342 44.500 C 235.941 43.518,235.350 44.027,233.986 45.666 M237.131 47.155 C 235.113 49.513,233.108 52.400,233.489 52.400 C 233.675 52.400,234.165 51.829,234.577 51.131 C 234.989 50.433,235.888 49.218,236.574 48.431 C 238.312 46.437,238.934 45.600,238.680 45.600 C 238.560 45.600,237.863 46.300,237.131 47.155 M221.829 53.809 C 221.405 54.129,221.135 54.468,221.229 54.561 C 221.323 54.655,221.825 54.387,222.344 53.966 C 223.438 53.079,222.979 52.939,221.829 53.809 M234.000 54.198 C 234.000 54.333,234.563 55.019,235.252 55.722 L 236.504 57.000 235.634 55.712 C 234.773 54.439,234.000 53.723,234.000 54.198 M216.667 63.067 C 216.305 63.428,216.328 64.709,216.700 64.937 C 216.865 65.038,217.019 64.599,217.043 63.961 C 217.089 62.709,217.070 62.664,216.667 63.067 M238.198 64.803 C 238.197 65.861,238.332 66.642,238.498 66.539 C 238.890 66.297,238.892 63.303,238.500 63.063 C 238.335 62.962,238.199 63.745,238.198 64.803 M236.281 71.439 C 235.886 71.968,235.708 72.400,235.885 72.400 C 236.234 72.400,237.338 70.801,237.128 70.600 C 237.057 70.533,236.677 70.911,236.281 71.439 M220.715 73.100 C 221.684 74.035,222.680 74.800,222.928 74.800 C 223.175 74.800,222.933 74.503,222.389 74.140 C 221.845 73.776,220.849 73.011,220.177 72.440 C 219.504 71.868,219.746 72.165,220.715 73.100 M233.594 74.018 C 233.047 74.439,232.780 74.780,233.000 74.778 C 233.529 74.773,234.991 73.658,234.765 73.431 C 234.668 73.334,234.141 73.598,233.594 74.018 M247.471 160.722 C 247.102 161.129,246.800 161.604,246.800 161.776 C 246.800 161.948,247.156 161.664,247.592 161.144 C 248.274 160.331,248.445 160.283,248.822 160.800 C 249.180 161.290,249.232 161.294,249.105 160.825 C 248.867 159.944,248.212 159.902,247.471 160.722 M192.809 174.383 C 192.559 174.851,192.424 175.901,192.510 176.717 L 192.666 178.200 192.733 176.580 C 192.770 175.689,193.013 174.747,193.273 174.487 C 193.534 174.226,193.638 173.905,193.506 173.772 C 193.373 173.640,193.060 173.915,192.809 174.383 M200.000 181.464 C 200.000 181.682,200.495 182.297,201.100 182.830 L 202.200 183.800 201.200 182.600 C 200.650 181.940,200.155 181.325,200.100 181.233 C 200.045 181.142,200.000 181.245,200.000 181.464 M236.975 184.900 L 235.800 186.200 237.100 185.025 C 237.815 184.379,238.400 183.794,238.400 183.725 C 238.400 183.416,238.070 183.688,236.975 184.900 M207.600 188.020 C 208.987 188.961,209.778 189.235,208.800 188.436 C 208.250 187.986,207.620 187.617,207.400 187.615 C 207.180 187.613,207.270 187.796,207.600 188.020 M232.000 188.433 L 231.000 189.248 232.300 188.614 C 233.015 188.265,233.600 187.894,233.600 187.790 C 233.600 187.392,232.963 187.648,232.000 188.433 M217.633 191.743 C 217.725 191.821,218.430 192.001,219.200 192.142 C 220.185 192.323,220.422 192.282,220.000 192.006 C 219.458 191.650,217.237 191.403,217.633 191.743 M221.600 192.006 C 221.178 192.282,221.415 192.323,222.400 192.142 C 224.125 191.825,224.451 191.598,223.167 191.606 C 222.635 191.609,221.930 191.789,221.600 192.006 M148.434 195.353 L 147.469 196.600 148.613 195.512 C 149.243 194.914,149.677 194.353,149.579 194.265 C 149.480 194.177,148.965 194.667,148.434 195.353 M157.486 196.003 C 158.414 196.970,159.235 197.680,159.312 197.580 C 159.388 197.481,158.629 196.690,157.625 195.822 L 155.800 194.244 157.486 196.003 M185.944 196.300 C 184.675 197.832,184.219 198.542,184.681 198.265 C 185.193 197.958,186.969 195.600,186.689 195.600 C 186.598 195.600,186.263 195.915,185.944 196.300 M145.978 198.300 L 144.600 199.800 146.100 198.422 C 146.925 197.663,147.600 196.988,147.600 196.922 C 147.600 196.616,147.262 196.904,145.978 198.300 M160.000 198.125 C 160.000 198.224,160.661 198.809,161.468 199.425 C 162.276 200.041,162.811 200.341,162.656 200.091 C 162.340 199.579,160.000 197.847,160.000 198.125 M170.800 204.000 C 172.168 204.438,173.219 204.438,172.200 204.000 C 171.760 203.811,171.040 203.662,170.600 203.668 C 169.957 203.677,169.996 203.743,170.800 204.000 "
              stroke="none" fill="#6cc4dc" fill-rule="evenodd"></path>
        <path id="path8"
              d="M223.800 53.102 C 212.859 58.727,215.994 75.633,227.971 75.594 C 236.028 75.567,240.787 66.816,237.104 58.800 C 236.183 56.796,233.610 53.600,232.918 53.600 C 232.761 53.600,233.380 54.365,234.293 55.300 C 241.487 62.667,237.503 75.163,227.950 75.194 C 214.295 75.238,213.957 53.561,227.600 52.689 L 229.800 52.548 227.400 52.516 C 225.964 52.498,224.518 52.733,223.800 53.102 M247.457 161.300 C 246.785 162.377,246.143 164.944,246.782 164.000 C 247.005 163.670,247.191 163.085,247.194 162.700 C 247.197 162.315,247.560 161.640,248.000 161.200 C 248.440 160.760,248.624 160.400,248.409 160.400 C 248.194 160.400,247.766 160.805,247.457 161.300 M193.280 174.480 C 193.016 174.744,192.818 175.419,192.840 175.980 L 192.880 177.000 193.151 176.030 C 193.578 174.502,194.089 174.687,195.719 176.960 C 196.554 178.126,197.897 179.691,198.705 180.439 C 200.089 181.723,200.078 181.695,198.512 179.937 C 197.599 178.913,196.194 177.158,195.389 176.037 C 193.722 173.718,193.906 173.854,193.280 174.480 M192.493 179.200 C 192.493 179.970,192.575 180.285,192.676 179.900 C 192.776 179.515,192.776 178.885,192.676 178.500 C 192.575 178.115,192.493 178.430,192.493 179.200 M190.151 188.300 C 189.697 190.194,187.242 195.084,185.790 196.986 C 183.976 199.362,183.984 199.835,185.799 197.556 C 187.869 194.959,191.477 187.200,190.615 187.200 C 190.505 187.200,190.297 187.695,190.151 188.300 M226.800 191.200 C 226.470 191.413,225.660 191.617,225.000 191.654 C 223.915 191.714,223.897 191.735,224.811 191.878 C 225.367 191.965,226.447 191.765,227.211 191.434 C 227.975 191.102,228.330 190.827,228.000 190.822 C 227.670 190.817,227.130 190.987,226.800 191.200 M153.600 192.125 C 153.600 192.194,154.185 192.779,154.900 193.425 L 156.200 194.600 155.025 193.300 C 153.930 192.088,153.600 191.816,153.600 192.125 M182.994 200.009 C 182.855 200.234,181.812 201.044,180.676 201.809 C 179.540 202.574,178.760 203.200,178.944 203.200 C 179.317 203.200,181.225 201.920,182.931 200.525 C 183.553 200.016,183.878 199.600,183.654 199.600 C 183.430 199.600,183.133 199.784,182.994 200.009 M167.600 203.400 C 168.150 203.714,168.960 203.970,169.400 203.968 C 169.840 203.966,169.480 203.705,168.600 203.388 C 166.596 202.666,166.322 202.670,167.600 203.400 "
              stroke="none" fill="#84acc4" fill-rule="evenodd"></path>
    </g>
</svg>