<svg id="svg" version="1.1" xmlns="http://www.w3.org/2000/svg" width="400"
     height="400" viewBox="0, 0, 400,400">
    <g id="svgg">
        <path id="path0"
              d="M195.034 48.255 C 194.827 48.796,194.368 48.872,192.392 48.693 C 190.432 48.515,190.000 48.585,190.000 49.078 C 190.000 49.547,189.600 49.649,188.200 49.537 C 186.945 49.438,186.400 49.547,186.400 49.897 C 186.400 50.216,185.823 50.400,184.824 50.400 C 183.957 50.400,183.136 50.580,183.000 50.800 C 182.864 51.020,182.324 51.200,181.800 51.200 C 181.276 51.200,180.736 51.380,180.600 51.600 C 180.464 51.820,179.823 52.000,179.176 52.000 C 178.529 52.000,178.000 52.180,178.000 52.400 C 178.000 52.620,177.550 52.800,177.000 52.800 C 176.450 52.800,176.000 52.980,176.000 53.200 C 176.000 53.420,175.640 53.600,175.200 53.600 C 174.760 53.600,174.400 53.780,174.400 54.000 C 174.400 54.220,173.950 54.400,173.400 54.400 C 172.850 54.400,172.400 54.580,172.400 54.800 C 172.400 55.020,172.113 55.200,171.762 55.200 C 171.411 55.200,170.646 55.532,170.062 55.937 C 169.478 56.343,168.415 56.927,167.700 57.235 C 166.985 57.543,166.400 57.931,166.400 58.098 C 166.400 58.264,166.207 58.400,165.972 58.400 C 165.465 58.400,161.859 60.809,161.667 61.277 C 161.593 61.455,161.323 61.601,161.067 61.602 C 160.810 61.603,160.055 62.114,159.389 62.739 C 158.723 63.363,157.958 63.947,157.688 64.037 C 156.931 64.290,146.400 74.912,146.400 75.424 C 146.400 75.673,146.040 76.202,145.600 76.600 C 145.160 76.998,144.800 77.484,144.800 77.679 C 144.800 77.874,144.440 78.420,144.000 78.892 C 143.560 79.364,143.200 79.987,143.200 80.275 C 143.200 80.564,143.053 80.800,142.874 80.800 C 142.695 80.800,142.183 81.475,141.736 82.300 C 141.289 83.125,140.535 84.480,140.062 85.312 C 139.588 86.144,139.200 87.089,139.200 87.412 C 139.200 87.735,139.020 88.000,138.800 88.000 C 138.580 88.000,138.400 88.360,138.400 88.800 C 138.400 89.240,138.220 89.600,138.000 89.600 C 137.780 89.600,137.600 89.949,137.600 90.376 C 137.600 90.803,137.420 91.264,137.200 91.400 C 136.980 91.536,136.800 92.087,136.800 92.624 C 136.800 93.161,136.620 93.600,136.400 93.600 C 136.180 93.600,136.000 94.140,136.000 94.800 C 136.000 95.460,135.820 96.000,135.600 96.000 C 135.380 96.000,135.200 96.630,135.200 97.400 C 135.200 98.170,135.020 98.800,134.800 98.800 C 134.580 98.800,134.400 99.419,134.400 100.176 C 134.400 100.933,134.220 101.664,134.000 101.800 C 133.780 101.936,133.600 103.032,133.600 104.236 C 133.600 105.618,133.416 106.496,133.100 106.617 C 132.704 106.769,132.622 114.500,132.704 143.804 C 132.787 173.350,132.707 180.800,132.304 180.800 C 131.927 180.800,131.836 181.660,131.942 184.215 C 132.098 187.973,131.769 190.551,131.180 190.188 C 130.571 189.811,130.742 190.800,131.400 191.457 C 131.848 191.905,132.000 193.007,132.000 195.805 C 132.000 197.872,132.179 199.664,132.400 199.800 C 132.620 199.936,132.800 200.566,132.800 201.200 C 132.800 201.834,132.980 202.464,133.200 202.600 C 133.420 202.736,133.600 203.287,133.600 203.824 C 133.600 204.361,133.780 204.800,134.000 204.800 C 134.220 204.800,134.400 205.160,134.400 205.600 C 134.400 206.040,134.580 206.400,134.800 206.400 C 135.020 206.400,135.200 206.588,135.200 206.817 C 135.200 207.257,135.278 207.368,137.161 209.624 C 142.080 215.518,152.876 213.355,154.735 206.104 C 155.106 204.656,155.203 199.425,155.116 185.581 L 155.000 167.000 155.982 164.000 C 157.806 158.428,160.005 155.496,163.722 153.686 C 172.021 149.643,178.050 153.965,180.380 165.629 C 180.952 168.492,180.965 184.696,180.398 189.400 C 179.357 198.046,179.051 200.289,178.017 206.846 C 176.238 218.131,179.296 229.493,186.084 236.820 C 197.450 249.086,214.276 239.169,213.468 220.682 C 213.227 215.181,212.786 212.548,210.339 202.000 C 209.545 198.577,209.196 196.992,208.800 195.000 C 208.581 193.900,208.221 192.190,208.000 191.200 C 207.590 189.366,207.131 187.012,206.380 182.900 C 204.230 171.127,203.412 158.882,204.444 153.931 C 206.085 146.057,210.184 142.400,217.365 142.400 C 226.647 142.400,232.638 150.459,231.847 161.881 C 231.504 166.836,231.268 168.376,229.561 176.800 C 228.766 180.722,228.714 181.664,229.195 183.382 C 230.827 189.210,240.354 193.077,246.544 190.424 C 249.528 189.145,249.526 189.152,249.996 173.337 C 250.609 152.703,251.673 147.430,255.639 145.380 C 257.898 144.212,261.814 146.462,262.539 149.345 C 263.862 154.609,263.972 155.763,263.986 164.481 C 264.000 173.864,264.148 174.887,265.746 176.700 C 266.958 178.075,271.175 177.053,271.195 175.380 C 271.203 174.714,272.169 172.807,272.500 172.803 C 272.665 172.801,272.800 172.451,272.800 172.024 C 272.800 171.597,272.980 171.136,273.200 171.000 C 273.420 170.864,273.600 169.975,273.600 169.025 C 273.600 167.978,273.836 167.102,274.200 166.800 C 275.022 166.118,275.121 112.736,274.300 112.900 C 273.930 112.974,273.800 112.067,273.800 109.400 C 273.800 106.957,273.639 105.697,273.300 105.480 C 273.012 105.296,272.800 104.332,272.800 103.204 C 272.800 102.128,272.620 101.136,272.400 101.000 C 272.180 100.864,272.000 100.144,272.000 99.400 C 272.000 98.656,271.820 97.936,271.600 97.800 C 271.380 97.664,271.200 97.023,271.200 96.376 C 271.200 95.729,271.000 95.200,270.755 95.200 C 270.489 95.200,270.379 94.724,270.482 94.021 C 270.577 93.373,270.507 92.934,270.325 93.046 C 270.143 93.159,269.889 92.924,269.761 92.525 C 269.456 91.579,268.798 89.980,268.353 89.105 C 268.159 88.723,268.000 88.138,268.000 87.805 C 268.000 87.472,267.820 87.200,267.600 87.200 C 267.380 87.200,267.200 86.840,267.200 86.400 C 267.200 85.960,267.020 85.600,266.800 85.600 C 266.580 85.600,266.400 85.407,266.400 85.172 C 266.400 84.937,265.860 83.959,265.200 83.000 C 264.540 82.041,264.000 81.017,264.000 80.724 C 264.000 80.432,263.640 79.968,263.200 79.693 C 262.760 79.418,262.400 78.953,262.400 78.659 C 262.400 78.365,262.040 77.798,261.600 77.400 C 261.160 77.002,260.798 76.479,260.795 76.238 C 260.792 75.997,259.927 74.900,258.872 73.800 C 257.818 72.700,256.695 71.428,256.377 70.973 C 255.074 69.105,245.342 60.800,244.458 60.800 C 244.274 60.800,243.798 60.440,243.400 60.000 C 243.002 59.560,242.434 59.200,242.138 59.200 C 241.842 59.200,241.600 59.048,241.600 58.863 C 241.600 58.677,240.745 58.092,239.700 57.563 C 238.655 57.033,237.740 56.465,237.667 56.300 C 237.593 56.135,237.188 56.000,236.767 56.000 C 236.345 56.000,236.000 55.820,236.000 55.600 C 236.000 55.380,235.640 55.200,235.200 55.200 C 234.760 55.200,234.400 55.020,234.400 54.800 C 234.400 54.580,234.128 54.400,233.795 54.400 C 233.462 54.400,232.832 54.220,232.395 54.000 C 231.958 53.780,231.242 53.420,230.805 53.200 C 230.368 52.980,229.738 52.800,229.405 52.800 C 229.072 52.800,228.800 52.561,228.800 52.269 C 228.800 51.907,228.419 51.794,227.600 51.915 C 226.741 52.041,226.400 51.927,226.400 51.515 C 226.400 51.107,226.062 50.988,225.247 51.108 C 224.613 51.201,223.973 51.080,223.824 50.838 C 223.675 50.597,222.928 50.400,222.164 50.400 C 221.400 50.400,220.688 50.174,220.582 49.898 C 220.455 49.566,219.779 49.444,218.595 49.538 C 217.200 49.649,216.800 49.546,216.800 49.078 C 216.800 48.585,216.368 48.515,214.408 48.693 C 212.432 48.872,211.973 48.796,211.766 48.255 C 211.385 47.262,195.415 47.262,195.034 48.255 M183.777 55.689 C 185.060 57.521,183.960 59.141,180.800 60.069 C 179.464 60.462,178.296 61.311,176.266 63.366 C 172.665 67.010,169.991 67.120,170.004 63.624 C 170.021 59.175,181.562 52.526,183.777 55.689 M221.412 56.500 C 224.335 59.869,225.273 64.019,223.530 65.874 C 221.669 67.856,219.801 66.803,219.140 63.400 C 218.780 61.545,218.325 60.616,217.137 59.309 C 215.403 57.401,215.343 57.164,216.246 55.786 C 217.358 54.089,219.588 54.397,221.412 56.500 M201.600 73.864 C 203.454 74.350,204.278 75.913,203.516 77.500 C 202.989 78.599,202.983 78.600,198.594 78.623 C 194.548 78.645,191.717 79.162,190.620 80.082 C 189.446 81.065,186.800 79.461,186.800 77.766 C 186.800 76.599,188.596 75.115,190.825 74.440 C 191.801 74.145,193.050 73.752,193.600 73.568 C 194.794 73.169,199.632 73.348,201.600 73.864 M169.339 75.700 C 170.287 76.132,170.406 76.371,170.209 77.454 C 170.038 78.395,170.147 78.771,170.645 78.962 C 171.200 79.175,171.274 79.640,171.100 81.808 C 170.936 83.850,171.010 84.400,171.446 84.400 C 172.392 84.400,172.157 87.582,171.130 88.674 C 169.302 90.621,166.987 88.761,167.291 85.590 C 167.428 84.170,167.329 83.582,166.929 83.428 C 166.107 83.113,166.327 76.385,167.181 75.713 C 167.963 75.097,168.015 75.097,169.339 75.700 M249.691 77.531 C 252.170 80.276,254.399 85.907,253.599 87.402 C 251.919 90.541,249.528 89.346,247.993 84.600 C 247.709 83.720,246.874 82.125,246.138 81.055 C 243.354 77.008,246.446 73.940,249.691 77.531 M218.492 89.354 C 224.131 92.976,227.084 96.696,225.835 98.603 C 224.625 100.450,223.306 99.982,219.057 96.200 C 216.957 94.330,215.127 92.800,214.991 92.800 C 213.520 92.800,213.141 89.617,214.500 88.670 C 215.780 87.777,216.131 87.837,218.492 89.354 M148.700 92.317 C 149.454 93.276,149.316 94.147,148.000 96.738 C 147.340 98.036,146.800 99.488,146.800 99.964 C 146.800 101.523,145.637 102.800,144.216 102.800 C 142.236 102.800,141.444 101.671,141.770 99.316 C 142.601 93.322,146.441 89.443,148.700 92.317 M199.520 98.880 C 200.100 99.460,200.160 102.254,199.600 102.600 C 199.380 102.736,199.200 103.377,199.200 104.024 C 199.200 104.671,199.020 105.200,198.800 105.200 C 198.580 105.200,198.400 105.729,198.400 106.376 C 198.400 107.023,198.220 107.664,198.000 107.800 C 197.780 107.936,197.600 108.397,197.600 108.824 C 197.600 109.251,197.420 109.600,197.200 109.600 C 196.980 109.600,196.800 109.960,196.800 110.400 C 196.800 110.840,196.620 111.200,196.400 111.200 C 196.180 111.200,196.000 111.560,196.000 112.000 C 196.000 112.440,195.820 112.800,195.600 112.800 C 195.380 112.800,195.200 113.083,195.200 113.429 C 195.200 115.309,192.634 115.763,191.217 114.134 C 190.464 113.268,190.376 112.931,190.745 112.339 C 190.995 111.939,191.200 111.338,191.200 111.005 C 191.200 110.672,191.380 110.400,191.600 110.400 C 191.820 110.400,192.000 110.040,192.000 109.600 C 192.000 109.160,192.180 108.800,192.400 108.800 C 192.620 108.800,192.800 108.440,192.800 108.000 C 192.800 107.560,192.980 107.200,193.200 107.200 C 193.420 107.200,193.600 106.761,193.600 106.224 C 193.600 105.687,193.780 105.136,194.000 105.000 C 194.220 104.864,194.400 104.313,194.400 103.776 C 194.400 103.239,194.580 102.800,194.800 102.800 C 195.020 102.800,195.200 102.170,195.200 101.400 C 195.200 100.630,195.380 100.000,195.600 100.000 C 195.820 100.000,196.000 99.640,196.000 99.200 C 196.000 98.267,198.665 98.025,199.520 98.880 M249.798 99.855 C 251.948 100.680,253.051 112.327,251.092 113.520 C 248.313 115.213,247.486 113.544,246.155 103.555 C 245.753 100.544,247.355 98.917,249.798 99.855 M164.600 110.400 C 165.906 111.720,167.206 112.800,167.487 112.800 C 167.769 112.800,168.000 112.980,168.000 113.200 C 168.000 113.420,168.324 113.600,168.720 113.600 C 169.830 113.600,170.400 114.419,170.400 116.012 C 170.400 117.804,168.900 118.904,167.581 118.081 C 167.157 117.816,166.538 117.600,166.205 117.600 C 165.872 117.600,165.600 117.420,165.600 117.200 C 165.600 116.980,165.317 116.800,164.971 116.800 C 163.603 116.800,159.200 111.805,159.200 110.253 C 159.200 109.626,160.904 108.052,161.613 108.024 C 161.949 108.011,163.294 109.080,164.600 110.400 "
              stroke="none" fill="#bc34a4" fill-rule="evenodd"></path>
        <path id="path1"
              d="M186.700 280.832 C 185.880 281.310,185.585 338.896,186.400 339.400 C 186.620 339.536,186.800 340.177,186.800 340.824 C 186.800 341.471,186.980 342.000,187.200 342.000 C 187.420 342.000,187.600 342.500,187.600 343.112 C 187.600 343.765,187.930 344.461,188.400 344.800 C 188.840 345.117,189.200 345.612,189.200 345.899 C 189.200 346.627,192.645 350.000,193.389 350.000 C 193.725 350.000,194.000 350.180,194.000 350.400 C 194.000 350.620,194.360 350.800,194.800 350.800 C 195.240 350.800,195.601 350.935,195.603 351.100 C 195.608 351.580,197.660 352.400,198.856 352.400 C 199.459 352.400,200.064 352.580,200.200 352.800 C 200.336 353.020,201.697 353.200,203.224 353.200 C 204.808 353.200,206.000 353.028,206.000 352.800 C 206.000 352.580,206.900 352.400,208.000 352.400 C 209.100 352.400,210.000 352.220,210.000 352.000 C 210.000 351.780,210.360 351.600,210.800 351.600 C 211.240 351.600,211.600 351.420,211.600 351.200 C 211.600 350.980,211.873 350.800,212.207 350.800 C 212.889 350.800,218.000 345.851,218.000 345.191 C 218.000 344.957,218.360 344.380,218.800 343.908 C 219.240 343.436,219.600 342.644,219.600 342.148 C 219.600 341.653,219.780 341.136,220.000 341.000 C 220.758 340.532,220.528 280.935,219.767 280.643 C 218.647 280.213,187.457 280.391,186.700 280.832 "
              stroke="none" fill="#fbb675" fill-rule="evenodd"></path>
        <path id="path2"
              d="M193.652 48.249 C 193.175 48.789,193.222 48.851,194.021 48.734 C 194.525 48.660,195.011 48.375,195.102 48.100 C 195.333 47.399,194.312 47.504,193.652 48.249 M211.698 48.100 C 211.789 48.375,212.283 48.661,212.796 48.736 C 213.650 48.861,213.675 48.818,213.093 48.236 C 212.336 47.479,211.465 47.394,211.698 48.100 M188.847 49.055 C 188.369 49.595,188.391 49.660,189.014 49.539 C 189.410 49.463,189.809 49.175,189.900 48.900 C 190.130 48.210,189.516 48.300,188.847 49.055 M216.892 48.875 C 216.979 49.136,217.264 49.421,217.525 49.508 C 217.818 49.606,217.907 49.423,217.757 49.033 C 217.478 48.306,216.652 48.155,216.892 48.875 M185.443 49.833 C 185.293 50.223,185.382 50.406,185.675 50.308 C 186.273 50.109,186.602 49.200,186.076 49.200 C 185.861 49.200,185.576 49.485,185.443 49.833 M220.492 49.675 C 220.579 49.936,220.864 50.221,221.125 50.308 C 221.418 50.406,221.507 50.223,221.357 49.833 C 221.078 49.106,220.252 48.955,220.492 49.675 M182.255 50.600 C 181.967 51.352,182.372 51.347,183.376 50.587 C 184.139 50.010,184.138 50.000,183.319 50.000 C 182.861 50.000,182.382 50.270,182.255 50.600 M223.300 50.276 C 223.685 50.376,224.000 50.625,224.000 50.829 C 224.000 51.033,224.174 51.200,224.387 51.200 C 224.601 51.200,224.671 50.930,224.545 50.600 C 224.418 50.270,223.929 50.021,223.457 50.046 C 222.781 50.083,222.748 50.131,223.300 50.276 M179.855 51.400 C 179.729 51.730,179.722 52.000,179.841 52.000 C 179.960 52.000,180.327 51.730,180.657 51.400 C 181.178 50.880,181.179 50.800,180.671 50.800 C 180.349 50.800,179.982 51.070,179.855 51.400 M177.455 52.200 C 177.329 52.530,177.322 52.800,177.441 52.800 C 177.560 52.800,177.927 52.530,178.257 52.200 C 178.778 51.680,178.779 51.600,178.271 51.600 C 177.949 51.600,177.582 51.870,177.455 52.200 M230.492 52.875 C 230.579 53.136,230.864 53.421,231.125 53.508 C 231.418 53.606,231.507 53.423,231.357 53.033 C 231.078 52.306,230.252 52.155,230.492 52.875 M173.600 53.800 C 173.600 54.130,173.780 54.400,174.000 54.400 C 174.220 54.400,174.400 54.130,174.400 53.800 C 174.400 53.470,174.220 53.200,174.000 53.200 C 173.780 53.200,173.600 53.470,173.600 53.800 M234.143 54.600 C 234.473 54.930,234.970 55.200,235.248 55.200 C 235.531 55.200,235.412 54.942,234.976 54.613 C 233.958 53.842,233.376 53.833,234.143 54.600 M181.192 55.097 C 182.178 55.184,183.258 55.468,183.592 55.728 C 184.123 56.140,184.131 56.112,183.651 55.500 C 183.252 54.991,182.598 54.819,181.251 54.870 L 179.400 54.940 181.192 55.097 M216.392 55.700 C 216.022 56.463,216.035 56.504,216.478 55.965 C 216.765 55.616,217.270 55.225,217.600 55.096 C 218.086 54.907,218.070 54.857,217.514 54.832 C 217.137 54.814,216.632 55.205,216.392 55.700 M219.000 55.085 C 219.440 55.191,220.340 55.755,221.000 56.339 L 222.200 57.400 221.025 56.100 C 220.363 55.367,219.490 54.820,219.025 54.846 C 218.221 54.892,218.221 54.898,219.000 55.085 M236.000 55.613 C 236.000 55.826,236.360 56.000,236.800 56.000 C 237.240 56.000,237.601 56.135,237.603 56.300 C 237.605 56.465,238.040 56.801,238.570 57.047 C 239.325 57.397,239.492 57.384,239.339 56.986 C 239.232 56.707,238.842 56.374,238.472 56.246 C 238.103 56.118,237.395 55.836,236.900 55.619 C 236.324 55.368,236.000 55.365,236.000 55.613 M174.861 57.517 C 172.018 59.654,169.994 62.304,170.064 63.800 L 170.120 65.000 170.294 63.800 C 170.532 62.158,172.577 59.583,175.100 57.750 C 176.255 56.911,177.200 56.174,177.200 56.112 C 177.200 55.829,176.741 56.105,174.861 57.517 M167.043 57.033 C 166.893 57.423,166.982 57.606,167.275 57.508 C 167.873 57.309,168.202 56.400,167.676 56.400 C 167.461 56.400,167.176 56.685,167.043 57.033 M184.046 57.020 C 184.021 57.471,183.821 58.057,183.601 58.321 C 183.382 58.586,183.490 58.553,183.840 58.249 C 184.190 57.944,184.390 57.358,184.285 56.947 C 184.112 56.274,184.088 56.281,184.046 57.020 M215.612 57.106 C 215.605 57.384,216.185 58.202,216.900 58.924 C 217.615 59.646,217.819 59.779,217.354 59.219 C 216.888 58.658,216.308 57.840,216.066 57.400 C 215.823 56.960,215.619 56.828,215.612 57.106 M165.049 58.255 L 164.299 59.285 165.346 58.599 C 165.922 58.221,166.294 57.752,166.173 57.556 C 165.883 57.088,165.914 57.069,165.049 58.255 M222.655 58.600 C 223.580 60.179,223.600 60.203,223.600 59.711 C 223.600 59.479,223.229 58.864,222.776 58.344 L 221.953 57.400 222.655 58.600 M241.603 58.500 C 241.605 58.775,242.100 59.221,242.703 59.490 L 243.800 59.981 242.917 59.240 C 242.431 58.833,242.146 58.387,242.284 58.250 C 242.421 58.112,242.323 58.000,242.067 58.000 C 241.810 58.000,241.601 58.225,241.603 58.500 M162.649 59.855 L 161.899 60.885 162.949 60.196 C 163.527 59.818,164.000 59.349,164.000 59.154 C 164.000 58.506,163.409 58.813,162.649 59.855 M244.000 60.351 C 244.000 60.598,244.178 60.800,244.397 60.800 C 245.172 60.800,256.000 69.775,256.000 70.417 C 256.000 70.554,257.075 71.821,258.389 73.233 C 259.703 74.645,260.783 75.997,260.789 76.238 C 260.795 76.479,261.160 77.002,261.600 77.400 C 262.040 77.798,262.400 78.366,262.400 78.662 C 262.400 79.226,262.889 79.378,263.320 78.947 C 263.459 78.808,263.140 78.353,262.610 77.936 C 262.081 77.520,261.525 76.794,261.376 76.323 C 261.226 75.853,260.586 75.031,259.952 74.498 C 259.318 73.965,258.798 73.320,258.796 73.064 C 258.794 72.809,256.949 70.842,254.696 68.693 C 249.110 63.365,247.837 62.245,246.741 61.689 C 246.224 61.427,245.395 60.918,244.900 60.557 C 244.357 60.162,244.000 60.081,244.000 60.351 M159.816 61.929 C 158.798 63.194,158.773 63.274,159.642 62.500 C 160.197 62.005,160.865 61.600,161.126 61.600 C 161.387 61.600,161.600 61.330,161.600 61.000 C 161.600 60.070,161.105 60.328,159.816 61.929 M175.689 63.400 C 174.357 64.830,173.366 66.000,173.486 66.000 C 173.607 66.000,174.809 64.830,176.157 63.400 C 177.505 61.970,178.496 60.800,178.359 60.800 C 178.223 60.800,177.021 61.970,175.689 63.400 M224.070 63.220 C 224.031 64.221,223.776 65.301,223.503 65.620 C 223.215 65.956,223.310 65.930,223.729 65.560 C 224.276 65.075,224.414 64.492,224.296 63.160 L 224.140 61.400 224.070 63.220 M155.995 64.756 C 155.002 65.770,153.439 67.320,152.522 68.200 C 149.409 71.188,146.003 74.960,145.777 75.671 C 145.654 76.061,145.113 76.725,144.576 77.147 C 143.456 78.029,143.344 78.400,144.200 78.400 C 144.530 78.400,144.800 78.158,144.800 77.862 C 144.800 77.566,145.160 76.998,145.600 76.600 C 146.040 76.202,146.400 75.670,146.400 75.418 C 146.400 74.925,156.652 64.539,157.741 63.929 C 158.398 63.561,158.670 62.749,158.100 62.856 C 157.935 62.888,156.988 63.743,155.995 64.756 M193.800 73.572 C 193.357 73.746,194.427 73.809,196.200 73.712 C 200.358 73.486,200.946 73.264,197.400 73.260 C 195.860 73.258,194.240 73.398,193.800 73.572 M190.000 74.668 C 188.099 75.486,186.800 76.760,186.800 77.808 C 186.800 78.285,187.205 79.019,187.700 79.438 C 188.599 80.199,188.599 80.199,187.900 79.369 C 186.356 77.535,187.293 76.082,190.842 74.805 C 192.029 74.378,192.640 74.037,192.200 74.047 C 191.760 74.057,190.770 74.336,190.000 74.668 M167.600 75.600 C 167.600 75.820,167.330 76.000,167.000 76.000 C 166.631 76.000,166.418 76.346,166.446 76.900 C 166.481 77.577,166.538 77.627,166.676 77.100 C 166.810 76.586,167.268 76.400,168.400 76.400 C 169.532 76.400,169.990 76.586,170.124 77.100 C 170.278 77.689,170.314 77.673,170.350 77.000 C 170.378 76.497,169.994 76.014,169.317 75.700 C 168.016 75.096,167.600 75.071,167.600 75.600 M248.339 76.642 C 248.844 76.996,249.784 78.013,250.428 78.902 C 251.073 79.792,251.600 80.338,251.600 80.116 C 251.600 79.526,248.411 76.000,247.877 76.000 C 247.627 76.000,247.835 76.289,248.339 76.642 M203.070 77.761 C 202.919 78.156,202.126 78.407,200.721 78.504 L 198.600 78.652 200.651 78.726 C 202.543 78.794,204.161 78.028,203.506 77.373 C 203.392 77.259,203.196 77.434,203.070 77.761 M194.100 78.676 C 194.485 78.776,195.115 78.776,195.500 78.676 C 195.885 78.575,195.570 78.493,194.800 78.493 C 194.030 78.493,193.715 78.575,194.100 78.676 M142.900 79.577 C 141.954 80.366,141.761 80.800,142.354 80.800 C 142.549 80.800,143.003 80.350,143.363 79.800 C 144.141 78.614,144.087 78.588,142.900 79.577 M170.240 79.506 C 170.482 79.668,170.783 80.070,170.908 80.400 C 171.061 80.801,171.147 80.701,171.168 80.100 C 171.190 79.495,170.970 79.202,170.500 79.206 C 170.068 79.210,169.969 79.325,170.240 79.506 M141.771 81.506 C 141.238 81.871,140.720 83.201,141.113 83.197 C 141.271 83.195,141.608 82.745,141.862 82.197 C 142.117 81.649,142.297 81.203,142.262 81.206 C 142.228 81.209,142.007 81.344,141.771 81.506 M166.432 82.300 C 166.410 82.905,166.630 83.198,167.100 83.194 C 167.532 83.190,167.631 83.075,167.360 82.894 C 167.118 82.732,166.817 82.330,166.692 82.000 C 166.539 81.599,166.453 81.699,166.432 82.300 M140.000 84.000 C 139.683 84.196,139.556 84.489,139.718 84.652 C 139.881 84.814,140.223 84.737,140.480 84.480 C 141.084 83.876,140.747 83.538,140.000 84.000 M170.800 84.629 C 170.800 84.754,171.070 85.127,171.400 85.457 C 171.933 85.990,172.000 85.965,172.000 85.229 C 172.000 84.759,171.740 84.400,171.400 84.400 C 171.070 84.400,170.800 84.503,170.800 84.629 M266.400 84.933 C 266.400 85.300,266.580 85.600,266.800 85.600 C 267.020 85.600,267.200 85.883,267.200 86.229 C 267.200 86.574,267.470 87.127,267.800 87.457 C 268.622 88.279,268.553 87.898,267.557 86.112 C 266.499 84.214,266.400 84.113,266.400 84.933 M139.200 85.600 C 138.883 85.796,138.756 86.089,138.918 86.252 C 139.081 86.414,139.423 86.337,139.680 86.080 C 140.284 85.476,139.947 85.138,139.200 85.600 M170.812 88.449 C 170.218 88.943,169.765 89.096,169.678 88.833 C 169.512 88.335,168.800 88.651,168.800 89.224 C 168.800 89.965,170.278 89.581,171.200 88.600 C 172.333 87.394,172.160 87.327,170.812 88.449 M249.944 88.376 C 250.464 88.829,251.079 89.200,251.311 89.200 C 251.803 89.200,251.779 89.180,250.200 88.255 L 249.000 87.553 249.944 88.376 M214.443 88.823 C 213.917 89.261,213.570 89.704,213.672 89.806 C 213.775 89.908,214.259 89.618,214.750 89.161 C 215.240 88.704,215.902 88.430,216.221 88.553 C 216.539 88.675,216.800 88.601,216.800 88.387 C 216.800 87.733,215.453 87.983,214.443 88.823 M217.404 89.206 C 217.542 89.429,218.227 89.860,218.927 90.163 C 219.627 90.465,221.550 91.920,223.200 93.394 L 226.200 96.076 223.400 93.383 C 220.198 90.304,216.483 87.716,217.404 89.206 M215.200 92.819 C 219.342 96.490,220.756 97.456,217.600 94.458 C 215.730 92.681,214.020 91.227,213.800 91.226 C 213.580 91.225,214.210 91.942,215.200 92.819 M144.723 92.300 C 144.392 92.685,143.991 93.270,143.831 93.600 C 143.671 93.930,143.828 93.840,144.179 93.400 C 144.530 92.960,145.118 92.375,145.485 92.100 C 145.852 91.825,145.966 91.600,145.738 91.600 C 145.510 91.600,145.053 91.915,144.723 92.300 M148.658 93.200 C 148.975 94.925,149.202 95.251,149.194 93.967 C 149.191 93.435,149.011 92.730,148.794 92.400 C 148.518 91.978,148.477 92.215,148.658 93.200 M136.100 93.088 C 135.825 93.186,135.600 93.535,135.600 93.862 C 135.600 94.367,135.698 94.359,136.248 93.810 C 136.952 93.106,136.890 92.806,136.100 93.088 M270.400 94.641 C 270.400 94.760,270.670 95.127,271.000 95.457 C 271.520 95.978,271.600 95.979,271.600 95.471 C 271.600 95.149,271.330 94.782,271.000 94.655 C 270.670 94.529,270.400 94.522,270.400 94.641 M135.300 95.488 C 135.025 95.586,134.800 95.935,134.800 96.262 C 134.800 96.767,134.898 96.759,135.448 96.210 C 136.152 95.506,136.090 95.206,135.300 95.488 M147.904 96.100 C 147.355 96.939,146.483 99.242,146.881 98.800 C 147.209 98.435,148.790 95.200,148.640 95.200 C 148.558 95.200,148.227 95.605,147.904 96.100 M142.249 96.615 C 142.112 96.973,142.015 97.566,142.034 97.933 C 142.053 98.300,142.227 98.069,142.421 97.420 C 142.798 96.158,142.665 95.533,142.249 96.615 M271.213 97.113 C 271.251 97.984,272.400 98.958,272.400 98.119 C 272.400 97.661,272.130 97.182,271.800 97.055 C 271.470 96.929,271.206 96.954,271.213 97.113 M134.500 97.888 C 134.225 97.986,134.000 98.452,134.000 98.922 C 134.000 99.772,134.005 99.772,134.641 98.863 C 135.331 97.878,135.291 97.605,134.500 97.888 M196.116 99.200 C 196.001 99.640,195.748 100.000,195.553 100.000 C 195.359 100.000,195.200 100.174,195.200 100.387 C 195.200 100.601,195.425 100.687,195.700 100.580 C 196.357 100.325,197.262 98.400,196.725 98.400 C 196.505 98.400,196.231 98.760,196.116 99.200 M225.380 98.769 C 225.171 98.972,224.460 99.215,223.800 99.309 L 222.600 99.480 223.851 99.540 C 224.541 99.573,225.326 99.331,225.600 99.000 C 226.145 98.343,225.988 98.178,225.380 98.769 M141.600 100.376 C 141.600 101.023,141.742 101.641,141.916 101.748 C 142.090 101.856,142.161 101.327,142.073 100.572 C 141.876 98.891,141.600 98.777,141.600 100.376 M146.442 100.000 C 146.342 101.486,145.524 102.317,143.979 102.505 L 142.600 102.672 144.054 102.736 C 145.715 102.809,146.981 101.430,146.679 99.876 C 146.524 99.076,146.503 99.087,146.442 100.000 M246.646 100.586 C 245.959 101.634,245.833 104.074,246.396 105.400 C 246.609 105.900,246.651 105.406,246.510 104.082 C 246.223 101.389,246.851 100.101,248.556 99.885 L 249.800 99.728 248.546 99.664 C 247.613 99.616,247.127 99.852,246.646 100.586 M272.013 100.313 C 272.051 101.184,273.200 102.158,273.200 101.319 C 273.200 100.861,272.930 100.382,272.600 100.255 C 272.270 100.129,272.006 100.154,272.013 100.313 M133.600 101.200 C 133.283 101.396,133.156 101.689,133.318 101.852 C 133.481 102.014,133.823 101.937,134.080 101.680 C 134.684 101.076,134.347 100.738,133.600 101.200 M195.246 102.067 C 195.221 102.433,194.975 102.814,194.700 102.912 C 194.425 103.010,194.295 103.195,194.412 103.323 C 194.838 103.793,195.673 102.882,195.486 102.152 C 195.331 101.548,195.284 101.531,195.246 102.067 M199.600 101.957 C 199.600 102.227,199.420 102.336,199.200 102.200 C 198.978 102.063,198.800 102.359,198.800 102.865 L 198.800 103.778 199.441 102.863 C 199.793 102.360,199.973 101.840,199.841 101.707 C 199.708 101.575,199.600 101.687,199.600 101.957 M251.309 104.800 C 251.309 105.790,251.387 106.195,251.482 105.700 C 251.578 105.205,251.578 104.395,251.482 103.900 C 251.387 103.405,251.309 103.810,251.309 104.800 M272.800 104.371 C 272.800 104.841,273.060 105.200,273.400 105.200 C 273.730 105.200,274.000 105.097,274.000 104.971 C 274.000 104.846,273.730 104.473,273.400 104.143 C 272.867 103.610,272.800 103.635,272.800 104.371 M198.500 104.688 C 198.225 104.786,198.000 105.135,198.000 105.462 C 198.000 105.967,198.098 105.959,198.648 105.410 C 199.352 104.706,199.290 104.406,198.500 104.688 M133.200 105.557 C 133.200 105.827,133.020 105.936,132.800 105.800 C 132.580 105.664,132.400 105.833,132.400 106.176 C 132.400 106.519,132.586 106.800,132.813 106.800 C 133.312 106.800,133.799 105.665,133.449 105.316 C 133.312 105.179,133.200 105.287,133.200 105.557 M197.600 107.200 C 197.283 107.396,197.156 107.689,197.318 107.852 C 197.481 108.014,197.823 107.937,198.080 107.680 C 198.684 107.076,198.347 106.738,197.600 107.200 M246.901 108.200 C 246.905 109.080,246.987 109.393,247.083 108.895 C 247.179 108.398,247.175 107.678,247.075 107.295 C 246.975 106.913,246.896 107.320,246.901 108.200 M160.902 108.500 C 160.994 108.775,161.470 109.005,161.959 109.010 C 162.467 109.016,163.491 109.702,164.349 110.610 C 166.815 113.221,171.815 116.387,169.980 114.176 C 169.717 113.859,169.164 113.600,168.751 113.600 C 168.338 113.600,168.000 113.420,168.000 113.200 C 168.000 112.980,167.769 112.800,167.487 112.800 C 167.206 112.800,165.906 111.720,164.600 110.400 C 162.455 108.233,160.468 107.212,160.902 108.500 M252.074 110.432 C 251.998 112.716,251.767 113.025,249.600 113.739 C 249.192 113.874,249.255 113.944,249.800 113.960 C 251.576 114.010,252.460 112.743,252.298 110.380 L 252.148 108.200 252.074 110.432 M159.680 109.280 C 159.072 109.888,159.076 110.373,159.700 111.717 C 160.436 113.303,160.735 113.034,160.382 111.103 C 160.212 110.170,160.157 109.270,160.260 109.103 C 160.545 108.642,160.219 108.741,159.680 109.280 M273.660 110.467 C 273.590 112.184,273.934 113.288,274.442 112.974 C 274.639 112.852,274.800 112.303,274.800 111.753 C 274.800 111.203,274.632 110.856,274.427 110.983 C 274.222 111.110,273.979 110.716,273.887 110.107 C 273.748 109.187,273.710 109.248,273.660 110.467 M196.140 110.890 C 195.935 111.171,195.504 111.940,195.183 112.600 C 194.863 113.260,194.366 114.046,194.081 114.348 C 193.795 114.649,193.652 114.985,193.762 115.095 C 194.082 115.415,195.200 114.119,195.200 113.429 C 195.200 113.083,195.380 112.800,195.600 112.800 C 195.820 112.800,196.000 112.455,196.000 112.033 C 196.000 111.612,196.225 111.186,196.500 111.088 C 196.775 110.990,196.891 110.791,196.757 110.645 C 196.623 110.500,196.346 110.610,196.140 110.890 M190.900 112.265 C 190.197 112.549,190.275 113.600,191.000 113.600 C 191.333 113.600,191.600 113.244,191.600 112.800 C 191.600 112.360,191.555 112.014,191.500 112.032 C 191.445 112.049,191.175 112.154,190.900 112.265 M162.000 114.600 C 162.746 115.370,163.447 116.000,163.557 116.000 C 163.667 116.000,163.146 115.370,162.400 114.600 C 161.654 113.830,160.953 113.200,160.843 113.200 C 160.733 113.200,161.254 113.830,162.000 114.600 M170.000 116.200 C 170.000 117.074,169.826 117.200,168.613 117.200 C 167.544 117.200,167.278 117.338,167.455 117.800 C 167.710 118.464,169.200 118.635,169.200 118.000 C 169.200 117.780,169.470 117.600,169.800 117.600 C 170.200 117.600,170.400 117.200,170.400 116.400 C 170.400 115.740,170.310 115.200,170.200 115.200 C 170.090 115.200,170.000 115.650,170.000 116.200 M164.092 116.075 C 164.179 116.336,164.464 116.621,164.725 116.708 C 165.018 116.806,165.107 116.623,164.957 116.233 C 164.678 115.506,163.852 115.355,164.092 116.075 M213.726 142.995 C 206.167 144.843,203.264 151.934,204.357 165.877 C 205.025 174.394,205.322 176.446,207.437 187.200 C 208.021 190.170,208.637 193.320,208.805 194.200 C 209.167 196.083,209.940 199.623,210.422 201.600 C 211.380 205.527,211.754 207.273,212.822 212.800 C 214.863 223.363,213.875 229.828,209.284 235.938 C 199.316 249.204,183.369 241.660,178.005 221.142 C 177.438 218.971,177.683 206.841,178.371 203.000 C 184.733 167.518,178.767 146.829,164.146 153.671 C 156.905 157.059,154.945 162.972,155.216 180.600 C 155.609 206.172,155.463 207.646,152.264 210.545 C 148.102 214.314,140.415 213.986,136.969 209.891 L 136.000 208.739 136.000 236.537 C 136.000 251.825,135.891 264.619,135.757 264.967 C 135.598 265.382,135.735 265.600,136.157 265.600 C 136.577 265.600,136.800 265.949,136.800 266.605 C 136.800 267.158,136.959 267.923,137.153 268.305 C 137.348 268.687,137.753 269.534,138.053 270.186 C 139.373 273.051,145.485 278.400,147.438 278.400 C 147.747 278.400,148.000 278.580,148.000 278.800 C 148.000 279.020,148.540 279.200,149.200 279.200 C 149.893 279.200,150.400 279.411,150.400 279.700 C 150.400 280.098,161.212 280.179,203.400 280.097 C 238.138 280.030,256.400 279.857,256.400 279.597 C 256.400 279.379,256.762 279.200,257.205 279.200 C 257.648 279.200,258.323 279.035,258.705 278.834 C 259.087 278.632,260.107 278.158,260.971 277.781 C 263.964 276.474,268.615 271.021,269.760 267.475 C 269.889 267.076,270.131 266.834,270.297 266.936 C 270.684 267.175,270.842 263.497,270.894 253.118 C 270.916 248.563,271.084 244.929,271.267 245.042 C 271.450 245.155,271.600 230.826,271.600 213.200 C 271.600 189.115,271.485 181.224,271.139 181.438 C 270.802 181.646,270.756 181.249,270.969 179.961 C 271.746 175.254,271.832 174.400,271.528 174.400 C 271.348 174.400,271.200 174.694,271.200 175.053 C 271.200 176.033,269.155 177.599,267.874 177.600 C 264.471 177.601,264.003 176.243,263.986 166.320 C 263.959 150.788,262.236 145.502,257.176 145.429 C 252.523 145.362,250.544 152.533,250.342 170.200 C 250.247 178.546,249.833 186.590,249.412 188.285 C 248.596 191.570,239.488 192.273,234.141 189.464 C 229.463 187.006,228.069 182.924,229.543 176.000 C 232.947 160.007,232.328 152.501,227.112 146.561 C 224.234 143.282,218.643 141.793,213.726 142.995 M273.867 167.067 C 273.353 167.581,273.599 168.375,274.200 168.145 C 274.530 168.018,274.800 167.664,274.800 167.357 C 274.800 166.769,274.315 166.618,273.867 167.067 M132.432 179.324 C 132.414 179.722,132.220 179.936,132.000 179.800 C 131.780 179.664,131.600 179.833,131.600 180.176 C 131.600 180.519,131.786 180.800,132.013 180.800 C 132.540 180.800,132.937 179.780,132.669 179.113 C 132.543 178.800,132.451 178.882,132.432 179.324 M131.646 186.324 C 131.621 186.832,131.420 187.136,131.200 187.000 C 130.959 186.851,130.800 187.388,130.800 188.353 C 130.800 189.233,130.968 190.057,131.174 190.184 C 131.607 190.452,132.170 187.256,131.885 186.147 C 131.729 185.541,131.684 185.574,131.646 186.324 M130.800 193.024 C 130.800 194.038,130.964 194.746,131.170 194.619 C 131.373 194.493,131.622 194.707,131.723 195.095 C 131.824 195.483,131.926 195.170,131.948 194.400 C 131.998 192.687,131.629 191.200,131.153 191.200 C 130.959 191.200,130.800 192.021,130.800 193.024 M131.600 199.924 C 131.600 200.139,131.885 200.424,132.233 200.557 C 132.623 200.707,132.806 200.618,132.708 200.325 C 132.509 199.727,131.600 199.398,131.600 199.924 M132.400 202.508 C 132.400 202.842,132.670 203.218,133.000 203.345 C 133.330 203.471,133.600 203.423,133.600 203.236 C 133.600 203.050,133.330 202.674,133.000 202.400 C 132.512 201.995,132.400 202.015,132.400 202.508 M133.213 204.271 C 133.235 204.834,134.400 206.185,134.400 205.648 C 134.400 205.370,134.130 204.873,133.800 204.543 C 133.470 204.213,133.206 204.091,133.213 204.271 M134.832 207.057 C 134.814 207.529,135.095 208.028,135.457 208.166 C 135.948 208.355,136.012 208.290,135.710 207.909 C 135.489 207.629,135.207 207.130,135.085 206.800 C 134.934 206.390,134.853 206.472,134.832 207.057 "
              stroke="none" fill="#d35bb3" fill-rule="evenodd"></path>
        <path id="path3"
              d="M132.501 115.800 C 132.505 116.680,132.587 116.993,132.683 116.495 C 132.779 115.998,132.775 115.278,132.675 114.895 C 132.575 114.513,132.496 114.920,132.501 115.800 M132.590 148.600 C 132.590 165.320,132.640 172.102,132.700 163.670 C 132.760 155.239,132.760 141.559,132.700 133.270 C 132.639 124.982,132.590 131.880,132.590 148.600 M271.105 178.800 C 270.647 180.357,270.718 181.842,271.227 181.333 C 271.462 181.098,271.597 180.207,271.527 179.353 C 271.414 177.973,271.367 177.911,271.105 178.800 M271.076 253.293 C 271.153 257.944,271.302 261.836,271.408 261.941 C 271.514 262.047,271.600 258.334,271.600 253.690 C 271.600 249.047,271.450 245.155,271.268 245.042 C 271.085 244.929,270.998 248.642,271.076 253.293 M186.800 280.300 C 186.800 280.465,194.270 280.600,203.400 280.600 C 212.530 280.600,220.000 280.465,220.000 280.300 C 220.000 280.135,212.530 280.000,203.400 280.000 C 194.270 280.000,186.800 280.135,186.800 280.300 "
              stroke="none" fill="#d674ac" fill-rule="evenodd"></path>
        <path id="path4"
              d="M190.800 47.957 C 190.800 48.440,192.585 48.857,193.368 48.557 C 194.532 48.110,194.016 47.600,192.400 47.600 C 191.520 47.600,190.800 47.760,190.800 47.957 M212.800 47.957 C 212.800 48.549,213.865 48.772,215.460 48.513 C 216.683 48.314,216.819 48.211,216.183 47.962 C 215.083 47.532,212.800 47.529,212.800 47.957 M186.800 48.757 C 186.800 49.263,187.888 49.618,188.600 49.345 C 189.617 48.955,189.264 48.400,188.000 48.400 C 187.340 48.400,186.800 48.561,186.800 48.757 M217.600 48.776 C 217.600 49.404,218.307 49.639,219.382 49.369 C 220.863 48.997,220.628 48.400,219.000 48.400 C 218.230 48.400,217.600 48.569,217.600 48.776 M182.800 49.553 C 182.800 50.015,184.319 50.406,185.039 50.130 C 186.084 49.729,185.607 49.200,184.200 49.200 C 183.430 49.200,182.800 49.359,182.800 49.553 M221.200 49.557 C 221.200 50.063,222.288 50.418,223.000 50.145 C 224.017 49.755,223.664 49.200,222.400 49.200 C 221.740 49.200,221.200 49.361,221.200 49.557 M181.026 50.358 C 180.904 50.555,181.056 50.813,181.363 50.931 C 181.950 51.156,182.400 50.896,182.400 50.333 C 182.400 49.887,181.305 49.906,181.026 50.358 M224.500 50.500 C 224.592 50.775,224.907 51.000,225.200 51.000 C 225.493 51.000,225.808 50.775,225.900 50.500 C 225.999 50.203,225.716 50.000,225.200 50.000 C 224.684 50.000,224.401 50.203,224.500 50.500 M178.000 51.157 C 178.000 51.624,179.168 52.067,179.636 51.778 C 180.341 51.342,179.988 50.800,179.000 50.800 C 178.450 50.800,178.000 50.961,178.000 51.157 M226.900 51.300 C 226.992 51.575,227.307 51.800,227.600 51.800 C 227.893 51.800,228.208 51.575,228.300 51.300 C 228.399 51.003,228.116 50.800,227.600 50.800 C 227.084 50.800,226.801 51.003,226.900 51.300 M175.600 52.000 C 175.600 52.220,175.240 52.400,174.800 52.400 C 173.943 52.400,173.727 52.984,174.425 53.416 C 174.659 53.560,175.177 53.383,175.575 53.022 C 175.974 52.662,176.525 52.419,176.800 52.483 C 177.075 52.547,177.383 52.375,177.483 52.100 C 177.600 51.782,177.291 51.600,176.633 51.600 C 176.065 51.600,175.600 51.780,175.600 52.000 M229.300 52.100 C 229.392 52.375,229.707 52.600,230.000 52.600 C 230.293 52.600,230.608 52.375,230.700 52.100 C 230.799 51.803,230.516 51.600,230.000 51.600 C 229.484 51.600,229.201 51.803,229.300 52.100 M231.308 52.900 C 231.404 53.175,231.779 53.347,232.141 53.282 C 232.504 53.218,232.800 53.353,232.800 53.582 C 232.800 53.812,233.014 54.000,233.276 54.000 C 233.894 54.000,238.959 56.508,239.133 56.900 C 239.207 57.065,239.592 57.200,239.991 57.200 C 240.389 57.200,240.830 57.500,240.970 57.867 C 241.157 58.353,241.346 58.414,241.667 58.093 C 242.199 57.561,241.213 56.400,240.229 56.400 C 239.883 56.400,239.600 56.220,239.600 56.000 C 239.600 55.780,239.240 55.600,238.800 55.600 C 238.360 55.600,238.000 55.420,238.000 55.200 C 238.000 54.980,237.640 54.800,237.200 54.800 C 236.760 54.800,236.400 54.620,236.400 54.400 C 236.400 54.180,236.040 54.000,235.600 54.000 C 235.160 54.000,234.800 53.820,234.800 53.600 C 234.800 53.380,234.451 53.200,234.024 53.200 C 233.597 53.200,233.136 53.020,233.000 52.800 C 232.636 52.212,231.099 52.303,231.308 52.900 M172.477 53.630 C 172.556 53.867,172.791 54.060,173.000 54.060 C 173.209 54.060,173.445 53.867,173.523 53.630 C 173.602 53.394,173.367 53.200,173.000 53.200 C 172.633 53.200,172.398 53.394,172.477 53.630 M169.680 54.620 C 169.393 54.945,169.286 55.415,169.441 55.666 C 169.636 55.982,169.873 55.914,170.216 55.446 C 170.488 55.074,170.933 54.822,171.205 54.885 C 171.477 54.948,171.783 54.775,171.883 54.500 C 172.144 53.790,170.325 53.889,169.680 54.620 M217.585 55.137 C 215.657 55.774,215.653 57.151,217.575 59.371 C 218.737 60.713,219.222 61.690,219.426 63.095 C 219.907 66.409,221.638 67.548,223.338 65.669 C 225.887 62.852,221.048 53.993,217.585 55.137 M178.514 55.730 C 173.552 57.543,169.027 63.370,171.029 65.371 C 172.166 66.509,173.193 66.079,175.653 63.438 C 177.432 61.529,178.620 60.647,180.320 59.974 C 186.287 57.612,184.549 53.526,178.514 55.730 M167.677 56.030 C 167.756 56.267,167.991 56.460,168.200 56.460 C 168.409 56.460,168.644 56.267,168.723 56.030 C 168.802 55.794,168.567 55.600,168.200 55.600 C 167.833 55.600,167.598 55.794,167.677 56.030 M166.077 56.830 C 166.156 57.066,166.391 57.260,166.600 57.260 C 166.809 57.260,167.044 57.066,167.123 56.830 C 167.202 56.594,166.967 56.400,166.600 56.400 C 166.233 56.400,165.998 56.594,166.077 56.830 M164.080 57.820 C 163.276 58.731,163.939 59.379,164.840 58.564 C 165.258 58.186,165.600 57.724,165.600 57.538 C 165.600 56.999,164.648 57.176,164.080 57.820 M242.498 58.495 C 242.671 59.013,246.771 61.998,247.312 61.999 C 247.484 62.000,248.186 62.639,248.872 63.421 C 249.681 64.342,250.256 64.704,250.509 64.451 C 250.905 64.055,249.203 62.000,248.478 62.000 C 248.280 62.000,247.554 61.460,246.863 60.800 C 246.172 60.140,245.375 59.600,245.092 59.600 C 244.809 59.600,244.317 59.240,244.000 58.800 C 243.371 57.928,242.232 57.696,242.498 58.495 M161.680 59.420 C 160.876 60.331,161.539 60.979,162.440 60.164 C 162.858 59.786,163.200 59.324,163.200 59.138 C 163.200 58.599,162.248 58.776,161.680 59.420 M158.900 61.410 C 157.864 62.517,157.789 62.800,158.530 62.800 C 159.068 62.800,160.800 61.178,160.800 60.674 C 160.800 60.090,159.758 60.493,158.900 61.410 M150.900 68.638 C 147.765 71.811,145.200 74.635,145.200 74.915 C 145.200 75.195,144.840 75.683,144.400 76.000 C 143.579 76.592,143.309 77.600,143.971 77.600 C 144.372 77.600,146.000 75.677,146.000 75.203 C 146.000 74.934,147.374 73.408,151.459 69.135 C 152.372 68.181,154.127 66.534,155.359 65.475 C 157.555 63.588,158.098 62.766,157.100 62.835 C 156.825 62.854,154.035 65.465,150.900 68.638 M250.800 64.509 C 250.800 64.570,252.692 66.595,255.005 69.009 C 260.166 74.399,261.200 75.560,261.200 75.971 C 261.200 76.469,262.813 78.400,263.229 78.400 C 263.891 78.400,263.621 77.392,262.800 76.800 C 262.360 76.483,262.000 76.015,262.000 75.760 C 262.000 75.505,261.280 74.555,260.400 73.648 C 259.520 72.741,258.800 71.817,258.800 71.594 C 258.800 70.945,252.073 64.400,251.406 64.400 C 251.073 64.400,250.800 64.449,250.800 64.509 M192.800 74.188 C 187.572 75.686,185.877 77.479,187.931 79.338 C 188.891 80.206,189.543 80.174,191.867 79.142 C 193.495 78.418,194.512 78.289,198.318 78.320 C 202.739 78.356,202.846 78.336,203.283 77.379 C 204.657 74.362,198.610 72.522,192.800 74.188 M246.000 76.800 C 244.888 77.912,244.991 78.703,246.564 81.145 C 247.888 83.199,248.298 84.097,249.051 86.588 C 250.173 90.296,254.210 88.685,253.203 84.930 C 251.656 79.158,247.891 74.909,246.000 76.800 M166.800 77.200 C 166.800 77.640,166.980 78.000,167.200 78.000 C 167.420 78.000,167.600 77.640,167.600 77.200 C 167.600 76.760,167.420 76.400,167.200 76.400 C 166.980 76.400,166.800 76.760,166.800 77.200 M168.400 76.629 C 168.400 76.925,169.475 78.000,169.771 78.000 C 169.897 78.000,170.000 77.640,170.000 77.200 C 170.000 76.667,169.733 76.400,169.200 76.400 C 168.760 76.400,168.400 76.503,168.400 76.629 M142.500 78.598 C 141.927 79.249,141.840 80.000,142.338 80.000 C 142.873 80.000,144.030 78.564,143.734 78.268 C 143.348 77.881,143.065 77.957,142.500 78.598 M166.597 79.609 C 166.269 80.642,166.748 82.879,167.233 82.580 C 167.715 82.281,167.710 78.800,167.227 78.800 C 167.022 78.800,166.738 79.164,166.597 79.609 M263.398 79.203 C 263.261 79.424,263.431 79.714,263.775 79.846 C 264.119 79.978,264.400 80.336,264.400 80.643 C 264.400 80.949,264.767 81.567,265.215 82.015 C 265.663 82.463,265.929 82.992,265.806 83.190 C 265.684 83.388,265.822 83.697,266.113 83.875 C 266.705 84.238,268.190 87.114,268.200 87.917 C 268.204 88.201,268.440 88.577,268.725 88.753 C 269.009 88.929,269.188 89.304,269.121 89.587 C 269.055 89.869,269.225 90.183,269.500 90.283 C 270.098 90.503,270.190 88.964,269.600 88.600 C 269.380 88.464,269.200 88.003,269.200 87.576 C 269.200 87.149,269.020 86.800,268.800 86.800 C 268.580 86.800,268.400 86.440,268.400 86.000 C 268.400 85.560,268.220 85.200,268.000 85.200 C 267.780 85.200,267.600 84.840,267.600 84.400 C 267.600 83.960,267.420 83.600,267.200 83.600 C 266.980 83.600,266.800 83.364,266.800 83.075 C 266.800 82.787,266.440 82.164,266.000 81.692 C 265.560 81.220,265.200 80.633,265.200 80.388 C 265.200 79.412,263.827 78.509,263.398 79.203 M170.000 81.376 C 170.000 83.219,170.530 84.079,170.966 82.944 C 171.285 82.114,170.825 79.600,170.355 79.600 C 170.160 79.600,170.000 80.399,170.000 81.376 M140.900 80.998 C 140.625 81.311,140.400 81.844,140.400 82.183 C 140.400 82.522,140.220 82.800,140.000 82.800 C 139.780 82.800,139.600 83.070,139.600 83.400 C 139.600 84.382,140.381 84.082,140.900 82.900 C 141.166 82.295,141.616 81.654,141.900 81.475 C 142.184 81.297,142.312 80.982,142.185 80.775 C 141.867 80.261,141.491 80.327,140.900 80.998 M167.428 84.989 C 167.161 86.417,168.024 88.800,168.810 88.800 C 169.320 88.800,169.313 88.117,168.800 87.800 C 168.580 87.664,168.400 86.663,168.400 85.576 C 168.400 83.300,167.812 82.944,167.428 84.989 M138.800 85.000 C 138.800 85.367,138.994 85.602,139.230 85.523 C 139.466 85.445,139.660 85.209,139.660 85.000 C 139.660 84.791,139.466 84.556,139.230 84.477 C 138.994 84.398,138.800 84.633,138.800 85.000 M170.800 86.229 C 170.800 86.794,170.530 87.527,170.200 87.857 C 169.346 88.711,169.429 89.320,170.333 88.836 C 171.590 88.163,172.103 87.266,171.837 86.205 C 171.508 84.893,170.800 84.909,170.800 86.229 M138.000 86.576 C 138.000 86.893,138.161 87.252,138.358 87.374 C 138.770 87.629,139.266 86.600,138.906 86.239 C 138.477 85.810,138.000 85.987,138.000 86.576 M137.200 88.400 C 137.200 88.840,137.020 89.200,136.800 89.200 C 136.580 89.200,136.400 89.549,136.400 89.976 C 136.400 90.403,136.580 90.864,136.800 91.000 C 137.020 91.136,137.200 90.864,137.200 90.395 C 137.200 89.926,137.472 89.271,137.804 88.939 C 138.136 88.607,138.305 88.170,138.180 87.968 C 137.779 87.319,137.200 87.575,137.200 88.400 M214.500 89.338 C 213.269 90.555,213.065 90.247,218.230 94.968 C 223.791 100.051,226.000 100.589,226.000 96.859 C 226.000 95.989,220.865 91.020,219.200 90.278 C 218.650 90.032,217.771 89.510,217.246 89.116 C 216.034 88.206,215.610 88.240,214.500 89.338 M216.400 89.573 C 216.400 89.778,216.734 90.052,217.143 90.182 C 217.916 90.427,217.909 92.400,217.135 92.400 C 216.186 92.400,214.759 90.410,215.283 89.816 C 215.877 89.143,216.400 89.029,216.400 89.573 M269.800 91.200 C 269.508 91.672,269.887 92.400,270.424 92.400 C 270.631 92.400,270.800 92.040,270.800 91.600 C 270.800 90.756,270.218 90.524,269.800 91.200 M135.600 92.376 C 135.600 92.803,135.420 93.264,135.200 93.400 C 134.612 93.764,134.703 95.301,135.300 95.092 C 135.575 94.996,135.743 94.604,135.674 94.222 C 135.605 93.839,135.857 93.300,136.235 93.024 C 136.613 92.747,136.794 92.314,136.638 92.061 C 136.192 91.340,135.600 91.520,135.600 92.376 M144.971 92.593 C 142.947 94.617,141.307 100.483,142.398 101.797 C 143.634 103.287,146.359 102.125,146.387 100.096 C 146.401 99.110,147.877 95.723,148.446 95.371 C 149.030 95.011,148.845 92.903,148.171 92.229 C 147.265 91.322,146.110 91.454,144.971 92.593 M270.620 93.568 C 270.495 93.770,270.664 94.207,270.997 94.539 C 271.329 94.872,271.555 95.541,271.500 96.028 C 271.445 96.514,271.625 96.992,271.900 97.089 C 272.504 97.304,272.597 95.369,272.000 95.000 C 271.780 94.864,271.600 94.403,271.600 93.976 C 271.600 93.170,271.016 92.927,270.620 93.568 M134.000 96.800 C 134.000 97.933,134.508 98.395,134.957 97.669 C 135.246 97.202,134.778 95.600,134.353 95.600 C 134.159 95.600,134.000 96.140,134.000 96.800 M272.396 98.808 C 271.950 99.641,272.157 100.400,272.830 100.400 C 273.040 100.400,273.172 99.860,273.121 99.200 C 273.013 97.780,272.961 97.752,272.396 98.808 M196.812 98.948 C 196.586 99.174,196.400 99.529,196.400 99.736 C 196.400 99.943,196.133 100.312,195.806 100.556 C 195.434 100.834,195.302 101.335,195.453 101.900 C 195.780 103.124,196.400 103.039,196.400 101.771 C 196.400 100.614,197.227 99.600,198.171 99.600 C 198.607 99.600,198.800 99.979,198.800 100.833 C 198.800 102.327,199.739 102.244,199.920 100.735 C 200.110 99.149,197.889 97.871,196.812 98.948 M133.200 100.000 C 133.200 101.181,133.713 101.588,134.202 100.796 C 134.524 100.276,134.059 98.800,133.573 98.800 C 133.368 98.800,133.200 99.340,133.200 100.000 M246.813 100.976 C 246.484 101.591,246.378 102.590,246.527 103.676 C 247.413 110.118,247.641 111.376,248.096 112.326 C 249.478 115.209,252.155 113.569,251.874 110.011 C 251.557 105.981,250.865 101.669,250.396 100.792 C 249.754 99.593,247.491 99.708,246.813 100.976 M273.000 102.000 C 272.704 102.933,273.087 104.400,273.627 104.400 C 273.832 104.400,274.000 103.680,274.000 102.800 C 274.000 101.110,273.428 100.652,273.000 102.000 M132.400 103.776 C 132.400 104.753,132.561 105.652,132.757 105.774 C 133.256 106.082,133.667 104.206,133.364 103.000 C 132.961 101.395,132.400 101.847,132.400 103.776 M198.000 103.800 C 198.000 104.350,198.165 104.800,198.367 104.800 C 198.835 104.800,199.137 103.949,198.898 103.300 C 198.580 102.434,198.000 102.757,198.000 103.800 M194.622 103.564 C 194.333 104.032,194.776 105.200,195.243 105.200 C 195.439 105.200,195.600 104.750,195.600 104.200 C 195.600 103.212,195.058 102.859,194.622 103.564 M197.487 105.446 C 197.068 105.865,197.136 107.200,197.576 107.200 C 198.148 107.200,198.329 106.680,198.037 105.879 C 197.893 105.483,197.646 105.288,197.487 105.446 M193.953 105.900 C 193.927 106.065,193.934 106.358,193.969 106.550 C 194.005 106.743,193.790 107.193,193.492 107.550 C 192.619 108.598,191.491 111.484,191.728 112.065 C 191.873 112.422,192.037 112.300,192.220 111.700 C 192.370 111.205,192.652 110.800,192.847 110.800 C 193.041 110.800,193.200 110.440,193.200 110.000 C 193.200 109.560,193.380 109.200,193.600 109.200 C 193.820 109.200,194.000 108.840,194.000 108.400 C 194.000 107.960,194.180 107.600,194.400 107.600 C 194.620 107.600,194.800 107.150,194.800 106.600 C 194.800 105.719,194.076 105.121,193.953 105.900 M273.795 106.817 C 273.469 107.842,273.945 110.800,274.435 110.800 C 274.636 110.800,274.800 109.720,274.800 108.400 C 274.800 106.027,274.297 105.235,273.795 106.817 M131.600 143.176 C 131.600 166.996,131.738 179.638,132.000 179.800 C 132.265 179.964,132.409 169.697,132.428 149.324 C 132.444 132.426,132.541 116.710,132.645 114.400 C 132.848 109.874,132.577 106.800,131.975 106.800 C 131.744 106.800,131.600 120.775,131.600 143.176 M196.400 108.400 C 196.400 108.840,196.561 109.200,196.757 109.200 C 197.207 109.200,197.626 108.160,197.306 107.839 C 196.824 107.358,196.400 107.620,196.400 108.400 M160.267 109.067 C 159.806 109.527,159.975 110.000,160.600 110.000 C 160.930 110.000,161.200 109.730,161.200 109.400 C 161.200 108.775,160.727 108.606,160.267 109.067 M162.241 109.133 C 161.905 109.678,166.124 114.000,166.991 114.000 C 167.326 114.000,167.600 114.180,167.600 114.400 C 167.600 114.620,167.960 114.800,168.400 114.800 C 169.022 114.800,169.200 115.067,169.200 116.000 C 169.200 116.660,169.380 117.200,169.600 117.200 C 169.820 117.200,170.000 116.750,170.000 116.200 C 170.000 115.650,170.045 115.069,170.100 114.910 C 170.155 114.750,169.660 114.435,169.000 114.210 C 167.596 113.730,166.480 112.857,164.187 110.443 C 163.135 109.335,162.416 108.851,162.241 109.133 M195.600 110.000 C 195.600 110.440,195.420 110.800,195.200 110.800 C 194.980 110.800,194.800 111.160,194.800 111.600 C 194.800 112.040,194.620 112.400,194.400 112.400 C 194.180 112.400,194.000 112.760,194.000 113.200 C 194.000 114.077,192.584 114.353,192.310 113.529 C 192.221 113.262,191.935 113.193,191.650 113.369 C 191.083 113.719,192.153 115.200,192.973 115.200 C 193.837 115.200,197.046 109.980,196.511 109.444 C 196.025 108.958,195.600 109.217,195.600 110.000 M160.400 111.376 C 160.400 111.693,160.583 112.066,160.807 112.204 C 161.030 112.342,161.128 112.594,161.023 112.763 C 160.919 112.932,161.525 113.746,162.371 114.571 C 163.340 115.518,164.009 115.909,164.181 115.631 C 164.331 115.387,163.724 114.488,162.827 113.626 C 161.932 112.766,161.200 111.779,161.200 111.431 C 161.200 111.084,161.020 110.800,160.800 110.800 C 160.580 110.800,160.400 111.059,160.400 111.376 M274.800 116.000 C 274.800 116.730,274.966 117.145,275.200 117.000 C 275.420 116.864,275.600 116.414,275.600 116.000 C 275.600 115.586,275.420 115.136,275.200 115.000 C 274.966 114.855,274.800 115.270,274.800 116.000 M164.800 115.990 C 164.800 116.492,167.019 117.648,167.349 117.317 C 167.842 116.825,167.587 116.400,166.800 116.400 C 166.360 116.400,166.000 116.220,166.000 116.000 C 166.000 115.780,165.730 115.600,165.400 115.600 C 165.070 115.600,164.800 115.775,164.800 115.990 M274.800 141.400 C 274.800 156.930,274.935 164.764,275.200 164.600 C 275.459 164.440,275.600 156.270,275.600 141.400 C 275.600 126.530,275.459 118.360,275.200 118.200 C 274.935 118.036,274.800 125.870,274.800 141.400 M273.818 168.744 C 273.548 169.595,273.914 170.800,274.443 170.800 C 274.639 170.800,274.800 170.170,274.800 169.400 C 274.800 167.906,274.209 167.511,273.818 168.744 M273.000 172.000 C 272.674 172.528,273.152 173.277,273.628 172.983 C 274.113 172.683,274.110 171.600,273.624 171.600 C 273.417 171.600,273.136 171.780,273.000 172.000 M272.014 174.374 C 271.488 175.357,271.481 176.400,272.000 176.400 C 272.220 176.400,272.400 176.040,272.400 175.600 C 272.400 175.160,272.580 174.800,272.800 174.800 C 273.020 174.800,273.200 174.530,273.200 174.200 C 273.200 173.353,272.506 173.455,272.014 174.374 M130.800 184.000 C 130.800 185.540,130.964 186.800,131.165 186.800 C 131.686 186.800,132.116 183.839,131.802 182.409 C 131.333 180.272,130.800 181.118,130.800 184.000 M130.800 196.976 C 130.800 198.173,130.965 199.255,131.167 199.380 C 131.689 199.702,132.114 197.429,131.800 196.000 C 131.374 194.061,130.800 194.622,130.800 196.976 M131.600 201.600 C 131.600 202.901,132.194 203.235,132.488 202.100 C 132.712 201.235,132.456 200.400,131.967 200.400 C 131.765 200.400,131.600 200.940,131.600 201.600 M132.400 204.167 C 132.400 204.735,132.580 205.200,132.800 205.200 C 133.020 205.200,133.200 205.560,133.200 206.000 C 133.200 206.440,133.380 206.800,133.600 206.800 C 133.820 206.800,134.000 207.145,134.000 207.567 C 134.000 207.988,134.178 208.393,134.395 208.467 C 134.651 208.553,134.796 218.620,134.806 236.883 C 134.819 261.634,134.894 265.139,135.410 264.941 C 136.311 264.595,136.301 208.490,135.400 208.145 C 135.070 208.018,134.800 207.574,134.800 207.157 C 134.800 206.741,134.641 206.400,134.447 206.400 C 134.088 206.400,133.521 205.067,133.441 204.033 C 133.358 202.966,132.400 203.089,132.400 204.167 M270.642 262.235 C 270.123 263.588,270.375 266.800,271.000 266.800 C 271.466 266.800,271.600 266.269,271.600 264.424 C 271.600 262.090,271.119 260.992,270.642 262.235 M135.600 266.967 C 135.600 267.755,135.780 268.400,136.000 268.400 C 136.220 268.400,136.400 268.816,136.400 269.325 C 136.400 269.833,136.760 270.636,137.200 271.108 C 137.640 271.580,138.000 272.157,138.000 272.391 C 138.000 273.051,143.111 278.000,143.793 278.000 C 144.127 278.000,144.400 278.180,144.400 278.400 C 144.400 278.620,144.760 278.800,145.200 278.800 C 145.640 278.800,146.000 278.980,146.000 279.200 C 146.000 279.420,146.360 279.600,146.800 279.600 C 147.240 279.600,147.600 279.780,147.600 280.000 C 147.600 280.220,148.104 280.400,148.720 280.400 C 149.336 280.400,150.022 280.582,150.244 280.804 C 150.890 281.450,186.485 281.145,186.703 280.492 C 186.838 280.085,183.238 280.006,168.640 280.092 C 154.344 280.177,150.367 280.092,150.217 279.700 C 150.111 279.425,149.569 279.200,149.013 279.200 C 148.456 279.200,148.000 279.020,148.000 278.800 C 148.000 278.580,147.747 278.400,147.438 278.400 C 145.554 278.400,139.361 273.054,138.154 270.386 C 137.114 268.090,136.835 267.358,136.721 266.633 C 136.492 265.179,135.600 265.444,135.600 266.967 M269.600 267.762 C 269.600 269.638,262.958 277.600,261.394 277.600 C 261.067 277.600,260.800 277.780,260.800 278.000 C 260.800 278.220,260.361 278.400,259.824 278.400 C 259.287 278.400,258.736 278.580,258.600 278.800 C 258.464 279.020,257.913 279.200,257.376 279.200 C 256.775 279.200,256.400 279.431,256.400 279.800 C 256.400 280.480,258.202 280.644,258.600 280.000 C 258.736 279.780,259.377 279.600,260.024 279.600 C 260.671 279.600,261.200 279.420,261.200 279.200 C 261.200 278.980,261.520 278.800,261.912 278.800 C 262.303 278.800,262.883 278.440,263.200 278.000 C 263.517 277.560,264.013 277.200,264.302 277.200 C 264.984 277.200,267.600 274.584,267.600 273.902 C 267.600 273.613,267.960 273.117,268.400 272.800 C 268.840 272.483,269.200 271.903,269.200 271.512 C 269.200 271.120,269.380 270.800,269.600 270.800 C 269.820 270.800,270.000 270.451,270.000 270.024 C 270.000 269.597,270.180 269.136,270.400 269.000 C 271.026 268.613,270.869 267.200,270.200 267.200 C 269.870 267.200,269.600 267.453,269.600 267.762 M220.313 283.896 C 220.479 289.664,220.672 290.388,220.740 285.500 L 220.800 281.200 238.633 281.200 C 252.722 281.200,256.432 281.095,256.300 280.700 C 256.171 280.312,252.110 280.177,238.167 280.096 L 220.200 279.991 220.313 283.896 M214.860 348.651 C 214.343 349.202,214.019 349.752,214.141 349.874 C 214.362 350.095,214.917 349.612,215.949 348.298 C 216.784 347.235,215.928 347.513,214.860 348.651 M199.000 352.800 C 199.136 353.020,199.517 353.200,199.847 353.200 C 200.177 353.200,200.336 353.020,200.200 352.800 C 200.064 352.580,199.683 352.400,199.353 352.400 C 199.023 352.400,198.864 352.580,199.000 352.800 M206.000 352.800 C 206.000 353.020,206.360 353.200,206.800 353.200 C 207.240 353.200,207.600 353.020,207.600 352.800 C 207.600 352.580,207.240 352.400,206.800 352.400 C 206.360 352.400,206.000 352.580,206.000 352.800 "
              stroke="none" fill="#d57cc4" fill-rule="evenodd"></path>
        <path id="path5"
              d="M218.833 142.544 C 218.925 142.623,219.540 142.808,220.200 142.956 C 221.076 143.152,221.238 143.115,220.800 142.818 C 220.260 142.453,218.432 142.198,218.833 142.544 M263.693 156.000 C 263.693 156.770,263.775 157.085,263.876 156.700 C 263.976 156.315,263.976 155.685,263.876 155.300 C 263.775 154.915,263.693 155.230,263.693 156.000 M204.093 156.400 C 204.093 157.170,204.175 157.485,204.276 157.100 C 204.376 156.715,204.376 156.085,204.276 155.700 C 204.175 155.315,204.093 155.630,204.093 156.400 M231.709 158.000 C 231.709 158.990,231.787 159.395,231.882 158.900 C 231.978 158.405,231.978 157.595,231.882 157.100 C 231.787 156.605,231.709 157.010,231.709 158.000 M250.493 159.200 C 250.493 159.970,250.575 160.285,250.676 159.900 C 250.776 159.515,250.776 158.885,250.676 158.500 C 250.575 158.115,250.493 158.430,250.493 159.200 M231.709 162.400 C 231.709 163.390,231.787 163.795,231.882 163.300 C 231.978 162.805,231.978 161.995,231.882 161.500 C 231.787 161.005,231.709 161.410,231.709 162.400 M204.101 165.000 C 204.105 165.880,204.187 166.193,204.283 165.695 C 204.379 165.198,204.375 164.478,204.275 164.095 C 204.175 163.713,204.096 164.120,204.101 165.000 M250.155 171.800 C 250.156 174.660,250.220 175.778,250.297 174.283 C 250.374 172.789,250.374 170.449,250.296 169.083 C 250.218 167.718,250.155 168.940,250.155 171.800 M204.501 169.400 C 204.505 170.280,204.587 170.593,204.683 170.095 C 204.779 169.598,204.775 168.878,204.675 168.495 C 204.575 168.113,204.496 168.520,204.501 169.400 M154.901 171.400 C 154.905 172.280,154.987 172.593,155.083 172.095 C 155.179 171.598,155.175 170.878,155.075 170.495 C 154.975 170.113,154.896 170.520,154.901 171.400 M154.934 182.800 C 154.934 184.450,155.005 185.125,155.091 184.300 C 155.178 183.475,155.178 182.125,155.091 181.300 C 155.005 180.475,154.934 181.150,154.934 182.800 M249.720 183.200 C 249.720 184.410,249.795 184.905,249.887 184.300 C 249.978 183.695,249.978 182.705,249.887 182.100 C 249.795 181.495,249.720 181.990,249.720 183.200 M180.493 186.400 C 180.493 187.170,180.575 187.485,180.676 187.100 C 180.776 186.715,180.776 186.085,180.676 185.700 C 180.575 185.315,180.493 185.630,180.493 186.400 M155.350 197.000 C 155.351 199.420,155.416 200.358,155.496 199.085 C 155.576 197.812,155.575 195.832,155.494 194.685 C 155.414 193.538,155.349 194.580,155.350 197.000 M213.734 221.600 C 213.734 223.250,213.805 223.925,213.891 223.100 C 213.978 222.275,213.978 220.925,213.891 220.100 C 213.805 219.275,213.734 219.950,213.734 221.600 "
              stroke="none" fill="#dc4ca8" fill-rule="evenodd"></path>
        <path id="path6"
              d="M218.833 142.544 C 218.925 142.623,219.540 142.808,220.200 142.956 C 221.076 143.152,221.238 143.115,220.800 142.818 C 220.260 142.453,218.432 142.198,218.833 142.544 M263.693 156.000 C 263.693 156.770,263.775 157.085,263.876 156.700 C 263.976 156.315,263.976 155.685,263.876 155.300 C 263.775 154.915,263.693 155.230,263.693 156.000 M204.093 156.400 C 204.093 157.170,204.175 157.485,204.276 157.100 C 204.376 156.715,204.376 156.085,204.276 155.700 C 204.175 155.315,204.093 155.630,204.093 156.400 M231.709 158.000 C 231.709 158.990,231.787 159.395,231.882 158.900 C 231.978 158.405,231.978 157.595,231.882 157.100 C 231.787 156.605,231.709 157.010,231.709 158.000 M250.493 159.200 C 250.493 159.970,250.575 160.285,250.676 159.900 C 250.776 159.515,250.776 158.885,250.676 158.500 C 250.575 158.115,250.493 158.430,250.493 159.200 M231.709 162.400 C 231.709 163.390,231.787 163.795,231.882 163.300 C 231.978 162.805,231.978 161.995,231.882 161.500 C 231.787 161.005,231.709 161.410,231.709 162.400 M204.101 165.000 C 204.105 165.880,204.187 166.193,204.283 165.695 C 204.379 165.198,204.375 164.478,204.275 164.095 C 204.175 163.713,204.096 164.120,204.101 165.000 M250.155 171.800 C 250.156 174.660,250.220 175.778,250.297 174.283 C 250.374 172.789,250.374 170.449,250.296 169.083 C 250.218 167.718,250.155 168.940,250.155 171.800 M204.501 169.400 C 204.505 170.280,204.587 170.593,204.683 170.095 C 204.779 169.598,204.775 168.878,204.675 168.495 C 204.575 168.113,204.496 168.520,204.501 169.400 M154.901 171.400 C 154.905 172.280,154.987 172.593,155.083 172.095 C 155.179 171.598,155.175 170.878,155.075 170.495 C 154.975 170.113,154.896 170.520,154.901 171.400 M154.934 182.800 C 154.934 184.450,155.005 185.125,155.091 184.300 C 155.178 183.475,155.178 182.125,155.091 181.300 C 155.005 180.475,154.934 181.150,154.934 182.800 M249.720 183.200 C 249.720 184.410,249.795 184.905,249.887 184.300 C 249.978 183.695,249.978 182.705,249.887 182.100 C 249.795 181.495,249.720 181.990,249.720 183.200 M180.493 186.400 C 180.493 187.170,180.575 187.485,180.676 187.100 C 180.776 186.715,180.776 186.085,180.676 185.700 C 180.575 185.315,180.493 185.630,180.493 186.400 M155.350 197.000 C 155.351 199.420,155.416 200.358,155.496 199.085 C 155.576 197.812,155.575 195.832,155.494 194.685 C 155.414 193.538,155.349 194.580,155.350 197.000 M213.734 221.600 C 213.734 223.250,213.805 223.925,213.891 223.100 C 213.978 222.275,213.978 220.925,213.891 220.100 C 213.805 219.275,213.734 219.950,213.734 221.600 "
              stroke="none" fill="#dc4ca8" fill-rule="evenodd"></path>
        <path id="path7"
              d="M218.833 142.544 C 218.925 142.623,219.540 142.808,220.200 142.956 C 221.076 143.152,221.238 143.115,220.800 142.818 C 220.260 142.453,218.432 142.198,218.833 142.544 M263.693 156.000 C 263.693 156.770,263.775 157.085,263.876 156.700 C 263.976 156.315,263.976 155.685,263.876 155.300 C 263.775 154.915,263.693 155.230,263.693 156.000 M204.093 156.400 C 204.093 157.170,204.175 157.485,204.276 157.100 C 204.376 156.715,204.376 156.085,204.276 155.700 C 204.175 155.315,204.093 155.630,204.093 156.400 M231.709 158.000 C 231.709 158.990,231.787 159.395,231.882 158.900 C 231.978 158.405,231.978 157.595,231.882 157.100 C 231.787 156.605,231.709 157.010,231.709 158.000 M250.493 159.200 C 250.493 159.970,250.575 160.285,250.676 159.900 C 250.776 159.515,250.776 158.885,250.676 158.500 C 250.575 158.115,250.493 158.430,250.493 159.200 M231.709 162.400 C 231.709 163.390,231.787 163.795,231.882 163.300 C 231.978 162.805,231.978 161.995,231.882 161.500 C 231.787 161.005,231.709 161.410,231.709 162.400 M204.101 165.000 C 204.105 165.880,204.187 166.193,204.283 165.695 C 204.379 165.198,204.375 164.478,204.275 164.095 C 204.175 163.713,204.096 164.120,204.101 165.000 M250.155 171.800 C 250.156 174.660,250.220 175.778,250.297 174.283 C 250.374 172.789,250.374 170.449,250.296 169.083 C 250.218 167.718,250.155 168.940,250.155 171.800 M204.501 169.400 C 204.505 170.280,204.587 170.593,204.683 170.095 C 204.779 169.598,204.775 168.878,204.675 168.495 C 204.575 168.113,204.496 168.520,204.501 169.400 M154.901 171.400 C 154.905 172.280,154.987 172.593,155.083 172.095 C 155.179 171.598,155.175 170.878,155.075 170.495 C 154.975 170.113,154.896 170.520,154.901 171.400 M154.934 182.800 C 154.934 184.450,155.005 185.125,155.091 184.300 C 155.178 183.475,155.178 182.125,155.091 181.300 C 155.005 180.475,154.934 181.150,154.934 182.800 M249.720 183.200 C 249.720 184.410,249.795 184.905,249.887 184.300 C 249.978 183.695,249.978 182.705,249.887 182.100 C 249.795 181.495,249.720 181.990,249.720 183.200 M180.493 186.400 C 180.493 187.170,180.575 187.485,180.676 187.100 C 180.776 186.715,180.776 186.085,180.676 185.700 C 180.575 185.315,180.493 185.630,180.493 186.400 M155.350 197.000 C 155.351 199.420,155.416 200.358,155.496 199.085 C 155.576 197.812,155.575 195.832,155.494 194.685 C 155.414 193.538,155.349 194.580,155.350 197.000 M213.734 221.600 C 213.734 223.250,213.805 223.925,213.891 223.100 C 213.978 222.275,213.978 220.925,213.891 220.100 C 213.805 219.275,213.734 219.950,213.734 221.600 "
              stroke="none" fill="#dc4ca8" fill-rule="evenodd"></path>
        <path id="path8"
              d="M218.833 142.544 C 218.925 142.623,219.540 142.808,220.200 142.956 C 221.076 143.152,221.238 143.115,220.800 142.818 C 220.260 142.453,218.432 142.198,218.833 142.544 M263.693 156.000 C 263.693 156.770,263.775 157.085,263.876 156.700 C 263.976 156.315,263.976 155.685,263.876 155.300 C 263.775 154.915,263.693 155.230,263.693 156.000 M204.093 156.400 C 204.093 157.170,204.175 157.485,204.276 157.100 C 204.376 156.715,204.376 156.085,204.276 155.700 C 204.175 155.315,204.093 155.630,204.093 156.400 M231.709 158.000 C 231.709 158.990,231.787 159.395,231.882 158.900 C 231.978 158.405,231.978 157.595,231.882 157.100 C 231.787 156.605,231.709 157.010,231.709 158.000 M250.493 159.200 C 250.493 159.970,250.575 160.285,250.676 159.900 C 250.776 159.515,250.776 158.885,250.676 158.500 C 250.575 158.115,250.493 158.430,250.493 159.200 M231.709 162.400 C 231.709 163.390,231.787 163.795,231.882 163.300 C 231.978 162.805,231.978 161.995,231.882 161.500 C 231.787 161.005,231.709 161.410,231.709 162.400 M204.101 165.000 C 204.105 165.880,204.187 166.193,204.283 165.695 C 204.379 165.198,204.375 164.478,204.275 164.095 C 204.175 163.713,204.096 164.120,204.101 165.000 M250.155 171.800 C 250.156 174.660,250.220 175.778,250.297 174.283 C 250.374 172.789,250.374 170.449,250.296 169.083 C 250.218 167.718,250.155 168.940,250.155 171.800 M204.501 169.400 C 204.505 170.280,204.587 170.593,204.683 170.095 C 204.779 169.598,204.775 168.878,204.675 168.495 C 204.575 168.113,204.496 168.520,204.501 169.400 M154.901 171.400 C 154.905 172.280,154.987 172.593,155.083 172.095 C 155.179 171.598,155.175 170.878,155.075 170.495 C 154.975 170.113,154.896 170.520,154.901 171.400 M154.934 182.800 C 154.934 184.450,155.005 185.125,155.091 184.300 C 155.178 183.475,155.178 182.125,155.091 181.300 C 155.005 180.475,154.934 181.150,154.934 182.800 M249.720 183.200 C 249.720 184.410,249.795 184.905,249.887 184.300 C 249.978 183.695,249.978 182.705,249.887 182.100 C 249.795 181.495,249.720 181.990,249.720 183.200 M180.493 186.400 C 180.493 187.170,180.575 187.485,180.676 187.100 C 180.776 186.715,180.776 186.085,180.676 185.700 C 180.575 185.315,180.493 185.630,180.493 186.400 M155.350 197.000 C 155.351 199.420,155.416 200.358,155.496 199.085 C 155.576 197.812,155.575 195.832,155.494 194.685 C 155.414 193.538,155.349 194.580,155.350 197.000 M213.734 221.600 C 213.734 223.250,213.805 223.925,213.891 223.100 C 213.978 222.275,213.978 220.925,213.891 220.100 C 213.805 219.275,213.734 219.950,213.734 221.600 "
              stroke="none" fill="#dc4ca8" fill-rule="evenodd"></path>
    </g>
</svg>