<svg style="display: none" xmlns="http://www.w3.org/2000/svg">
    <symbol id="icon-daily" viewBox="0 0 35 35">
        <path d="M28.5833 22.1667H24.5V12.8333H28.5833C32.1213 12.8333 35 9.95458 35 6.41667C35 2.87875 32.1213 0 28.5833 0C25.0454 0 22.1667 2.87875 22.1667 6.41667V10.5H12.8333V6.41667C12.8333 2.87875 9.95458 0 6.41667 0C2.87875 0 0 2.87875 0 6.41667C0 9.95458 2.87875 12.8333 6.41667 12.8333H10.5V22.1667H6.41667C2.87875 22.1667 0 25.0454 0 28.5833C0 32.1213 2.87875 35 6.41667 35C9.95458 35 12.8333 32.1213 12.8333 28.5833V24.5H22.1667V28.5833C22.1667 32.1213 25.0454 35 28.5833 35C32.1213 35 35 32.1213 35 28.5833C35 25.0454 32.1213 22.1667 28.5833 22.1667ZM24.5 6.41667C24.5 4.16558 26.3317 2.33333 28.5833 2.33333C30.835 2.33333 32.6667 4.16558 32.6667 6.41667C32.6667 8.66775 30.835 10.5 28.5833 10.5H24.5V6.41667ZM6.41667 10.5C4.165 10.5 2.33333 8.66775 2.33333 6.41667C2.33333 4.16558 4.165 2.33333 6.41667 2.33333C8.66833 2.33333 10.5 4.16558 10.5 6.41667V10.5H6.41667ZM10.5 28.5833C10.5 30.8344 8.66833 32.6667 6.41667 32.6667C4.165 32.6667 2.33333 30.8344 2.33333 28.5833C2.33333 26.3322 4.165 24.5 6.41667 24.5H10.5V28.5833ZM12.8333 22.1667V12.8333H22.1667V22.1667H12.8333ZM28.5833 32.6667C26.3317 32.6667 24.5 30.8344 24.5 28.5833V24.5H28.5833C30.835 24.5 32.6667 26.3322 32.6667 28.5833C32.6667 30.8344 30.835 32.6667 28.5833 32.6667Z" fill="currentColor"/>
    </symbol>
    <symbol id="icon-treasury" viewBox="0 0 45 45">
        <path d="M38.6629 37.7438H6.37539C5.52332 37.7438 4.70585 37.4066 4.10158 36.8059C3.4973 36.2051 3.15534 35.3895 3.15039 34.5375V14.2875C3.15534 12.4242 3.89773 10.6387 5.21527 9.32112C6.53282 8.00358 8.31836 7.26119 10.1816 7.25626H34.8567C36.7215 7.25626 38.5099 7.99703 39.8284 9.31564C41.1471 10.6343 41.8879 12.4227 41.8879 14.2875V34.5375C41.883 35.3895 41.541 36.2051 40.9367 36.8059C40.3324 37.4066 39.5149 37.7438 38.6629 37.7438ZM10.1816 10.0688C9.06277 10.0688 7.98971 10.5132 7.19853 11.3044C6.40738 12.0956 5.96289 13.1686 5.96289 14.2875V34.5375C5.96283 34.5908 5.97362 34.6436 5.99456 34.6926C6.0155 34.7417 6.0462 34.7859 6.08477 34.8227C6.12333 34.8596 6.16899 34.8881 6.21894 34.9069C6.26891 34.9254 6.32214 34.9337 6.37539 34.9313H38.6629C38.7162 34.9337 38.7694 34.9254 38.8193 34.9069C38.8693 34.8881 38.9149 34.8596 38.9535 34.8227C38.9922 34.7859 39.0227 34.7417 39.0437 34.6926C39.0647 34.6436 39.0754 34.5908 39.0754 34.5375V14.2875C39.0754 13.1686 38.6308 12.0956 37.8398 11.3044C37.0485 10.5132 35.9755 10.0688 34.8567 10.0688H10.1816Z" fill="currentColor"/>
        <path d="M22.4996 29.1375C21.1877 29.1338 19.9061 28.7413 18.8171 28.0099C17.7281 27.2783 16.8802 26.2403 16.3807 25.0271C15.8812 23.814 15.7525 22.4799 16.0107 21.1937C16.2689 19.9073 16.9025 18.7264 17.8316 17.8C18.7607 16.8736 19.9432 16.2433 21.2304 15.9887C22.5174 15.7341 23.8509 15.8667 25.0627 16.3696C26.2745 16.8725 27.3101 17.7233 28.0385 18.8143C28.767 19.9056 29.1559 21.1881 29.1559 22.5C29.151 24.2621 28.4475 25.9504 27.1997 27.1946C25.9518 28.4389 24.2617 29.1375 22.4996 29.1375ZM22.4996 18.75C21.7579 18.75 21.033 18.9699 20.4163 19.3821C19.7996 19.794 19.3189 20.3798 19.035 21.0649C18.7513 21.7502 18.677 22.5041 18.8216 23.2316C18.9664 23.9591 19.3235 24.6272 19.848 25.1516C20.3724 25.6761 21.0407 26.0333 21.768 26.178C22.4955 26.3228 23.2494 26.2483 23.9347 25.9646C24.6199 25.6808 25.2056 25.2 25.6175 24.5833C26.0297 23.9668 26.2496 23.2418 26.2496 22.5C26.2496 21.5055 25.8545 20.5517 25.1512 19.8484C24.4479 19.1451 23.4941 18.75 22.4996 18.75Z" fill="currentColor"/>
        <path d="M40.4627 23.9062H27.7314C27.3585 23.9062 27.0008 23.7581 26.7369 23.4943C26.4733 23.2307 26.3252 22.8729 26.3252 22.5C26.3252 22.1271 26.4733 21.7693 26.7369 21.5057C27.0008 21.2419 27.3585 21.0938 27.7314 21.0938H40.4627C40.8356 21.0938 41.1934 21.2419 41.457 21.5057C41.7208 21.7693 41.8689 22.1271 41.8689 22.5C41.8689 22.8729 41.7208 23.2307 41.457 23.4943C41.1934 23.7581 40.8356 23.9062 40.4627 23.9062Z" fill="currentColor"/>
        <path d="M17.2879 23.9062H4.55664C4.18368 23.9062 3.82599 23.7581 3.56227 23.4943C3.29855 23.2307 3.15039 22.8729 3.15039 22.5C3.15039 22.1271 3.29855 21.7693 3.56227 21.5057C3.82599 21.2419 4.18368 21.0938 4.55664 21.0938H17.2879C17.6609 21.0938 18.0185 21.2419 18.2823 21.5057C18.546 21.7693 18.6941 22.1271 18.6941 22.5C18.6941 22.8729 18.546 23.2307 18.2823 23.4943C18.0185 23.7581 17.6609 23.9062 17.2879 23.9062Z" fill="currentColor"/>
    </symbol>
    <symbol id="icon-transactions" viewBox="0 0 40 40">
        <path d="M25.75 5.5L30.25 10L5 10L5 12.5L30.25 12.5L25.75 17L27.5 18.75L35 11.25L27.5 3.75L25.75 5.5Z" fill="currentColor" stroke="currentColor" stroke-width="0.5"/>
        <path d="M5 28.75L12.5 36.25L14.25 34.5L9.75 30H35V27.5H9.75L14.25 23L12.5 21.25L5 28.75Z" fill="currentColor" stroke="currentColor" stroke-width="0.5"/>
    </symbol>
    <symbol id="icon-purchase" viewBox="-5 0 45 35">
        <path d="M13.1123 8.72728L12.3623 7.42824C11.7746 7.76754 11.4879 8.45914 11.6632 9.11472C11.8385 9.7703 12.432 10.2265 13.1106 10.2273L13.1123 8.72728ZM23.1767 2.91663L24.4757 2.16663C24.0615 1.44919 23.1441 1.20337 22.4267 1.61759L23.1767 2.91663ZM26.5399 8.74187L26.5382 10.2419C27.0744 10.2424 27.5702 9.95678 27.8385 9.49257C28.1069 9.02836 28.107 8.45622 27.8389 7.99186L26.5399 8.74187ZM32.0837 24.0625V25.5625C32.9121 25.5625 33.5837 24.8909 33.5837 24.0625H32.0837ZM32.0837 16.7708H33.5837C33.5837 15.9424 32.9121 15.2708 32.0837 15.2708V16.7708ZM33.5837 12.0312C33.5837 11.2028 32.9121 10.5312 32.0837 10.5312C31.2552 10.5312 30.5837 11.2028 30.5837 12.0312H33.5837ZM30.5837 29.5312C30.5837 30.3596 31.2552 31.0312 32.0837 31.0312C32.9121 31.0312 33.5837 30.3596 33.5837 29.5312H30.5837ZM13.8623 10.0263L23.9267 4.21567L22.4267 1.61759L12.3623 7.42824L13.8623 10.0263ZM21.8776 3.66663L25.2408 9.49187L27.8389 7.99186L24.4757 2.16663L21.8776 3.66663ZM26.5415 7.24187L13.1139 7.22728L13.1106 10.2273L26.5382 10.2419L26.5415 7.24187ZM4.41699 10.2083C4.41699 10.2113 4.41609 10.2179 4.4131 10.225C4.41053 10.231 4.40747 10.2351 4.40478 10.2378C4.4021 10.2404 4.39806 10.2435 4.39199 10.2461C4.38492 10.2491 4.3783 10.25 4.37533 10.25V7.24996C2.7415 7.24996 1.41699 8.57441 1.41699 10.2083H4.41699ZM4.37533 10.25H30.6253V7.24996H4.37533V10.25ZM30.6253 10.25C30.6224 10.25 30.6157 10.2491 30.6087 10.2461C30.6026 10.2435 30.5986 10.2404 30.5959 10.2377C30.5932 10.2351 30.5901 10.231 30.5875 10.2249C30.5846 10.2179 30.5837 10.2113 30.5837 10.2083H33.5837C33.5837 8.57443 32.2592 7.24996 30.6253 7.24996V10.25ZM30.5837 10.2083V30.625H33.5837V10.2083H30.5837ZM30.5837 30.625C30.5837 30.622 30.5846 30.6154 30.5875 30.6083C30.5901 30.6022 30.5932 30.5982 30.5959 30.5955C30.5986 30.5928 30.6026 30.5897 30.6087 30.5872C30.6157 30.5842 30.6224 30.5833 30.6253 30.5833V33.5833C32.2592 33.5833 33.5837 32.2588 33.5837 30.625H30.5837ZM30.6253 30.5833H4.37533V33.5833H30.6253V30.5833ZM4.37533 30.5833C4.3783 30.5833 4.38492 30.5842 4.39199 30.5872C4.39806 30.5897 4.4021 30.5928 4.40478 30.5955C4.40747 30.5982 4.41053 30.6022 4.4131 30.6083C4.41609 30.6154 4.41699 30.622 4.41699 30.625H1.41699C1.41699 32.2588 2.7415 33.5833 4.37533 33.5833V30.5833ZM4.41699 30.625V10.2083H1.41699V30.625H4.41699ZM25.7034 25.5625H32.0837V22.5625H25.7034V25.5625ZM33.5837 24.0625V16.7708H30.5837V24.0625H33.5837ZM32.0837 15.2708H25.7034V18.2708H32.0837V15.2708ZM25.7034 15.2708C22.8306 15.2708 20.3753 17.5066 20.3753 20.4166H23.3753C23.3753 19.2997 24.3479 18.2708 25.7034 18.2708V15.2708ZM20.3753 20.4166C20.3753 23.3267 22.8306 25.5625 25.7034 25.5625V22.5625C24.3479 22.5625 23.3753 21.5336 23.3753 20.4166H20.3753ZM30.5837 12.0312V29.5312H33.5837V12.0312H30.5837Z" fill="currentColor"/>
    </symbol>
    <symbol id="icon-create" viewBox="0 0 50 50">
        <path fill-rule="evenodd" clip-rule="evenodd" d="M23.3 10.6998H39.5V29.8998H36.2999V33.0999H39.5C41.2673 33.0999 42.6998 31.6635 42.6998 29.8998V10.6998C42.6998 8.9325 41.2637 7.5 39.5 7.5H20.3C18.5327 7.5 17.0999 8.93607 17.0999 10.6998V13.8999H20.3V10.6998H23.3ZM7.5 20.3034C7.5 18.5341 8.93107 17.0999 10.7034 17.0999H29.8963C31.6656 17.0999 33.0997 18.531 33.0997 20.3034V39.4962C33.0997 41.2655 31.6686 42.6996 29.8963 42.6996H10.7034C8.93414 42.6996 7.5 41.2686 7.5 39.4962V20.3034ZM10.6998 20.3H29.8998V39.5H10.6998V20.3ZM21.8998 23.5001H18.6997V28.3H13.8998V31.5001H18.6997V36.3H21.8998V31.5001H26.6997V28.3H21.8998V23.5001Z" fill="currentColor"/>
    </symbol>
    <symbol id="icon-deposit" viewBox="0 0 40 40">
        <path d="M5.00195 15C5.00195 16.8417 8.73195 18.3333 13.3353 18.3333" stroke="currentColor" stroke-width="2.5" stroke-linecap="round" stroke-linejoin="round"/>
        <path d="M13.3336 25C8.73195 25 5.00195 23.5083 5.00195 21.6666" stroke="currentColor" stroke-width="2.5" stroke-linecap="round" stroke-linejoin="round"/>
        <path d="M21.6645 8.33337H21.6662V13.3334" stroke="currentColor" stroke-width="2.5" stroke-linecap="round" stroke-linejoin="round"/>
        <path d="M18.335 26.6666C18.335 28.5083 22.065 30 26.6683 30C31.2716 30 35.0016 28.5083 35.0016 26.6666" stroke="currentColor" stroke-width="2.5" stroke-linecap="round" stroke-linejoin="round"/>
        <path d="M18.335 20C18.335 21.8417 22.065 23.3333 26.6683 23.3333C31.2716 23.3333 35.0016 21.8417 35.0016 20" stroke="currentColor" stroke-width="2.5" stroke-linecap="round" stroke-linejoin="round"/>
        <path d="M26.6669 16.6666C22.0669 16.6666 18.3336 18.1583 18.3369 20" stroke="currentColor" stroke-width="2.5" stroke-linecap="round" stroke-linejoin="round"/>
        <path d="M18.335 20V33.3333C18.335 35.175 22.065 36.6667 26.6683 36.6667" stroke="currentColor" stroke-width="2.5" stroke-linecap="round" stroke-linejoin="round"/>
        <path d="M26.667 16.6666C31.267 16.6666 35.0003 18.1583 34.997 20" stroke="currentColor" stroke-width="2.5" stroke-linecap="round" stroke-linejoin="round"/>
        <path d="M35.0003 20V33.3333C35.0003 35.175 31.2703 36.6667 26.667 36.6667" stroke="currentColor" stroke-width="2.5" stroke-linecap="round" stroke-linejoin="round"/>
        <path d="M13.3333 31.6667C8.73167 31.6667 5 30.175 5 28.3334" stroke="currentColor" stroke-width="2.5" stroke-linecap="round" stroke-linejoin="round"/>
        <path fill-rule="evenodd" clip-rule="evenodd" d="M13.3333 11.6667C17.9357 11.6667 21.6667 10.1743 21.6667 8.33333C21.6667 6.49238 17.9357 5 13.3333 5C8.73096 5 5 6.49238 5 8.33333C5 10.1743 8.73096 11.6667 13.3333 11.6667Z" stroke="currentColor" stroke-width="2.5" stroke-linecap="round" stroke-linejoin="round"/>
        <path d="M5.00033 8.33337V28.3334" stroke="currentColor" stroke-width="2.5" stroke-linecap="round" stroke-linejoin="round"/>
    </symbol>
    <symbol id="icon-claim" viewBox="0 0 47 47">
        <path d="M5.17724 16.3555H11.3098V23.9908L10.4163 23.0973C9.96953 22.6505 9.19781 22.6505 8.75107 23.0973C8.30431 23.5441 8.30431 24.3158 8.75107 24.7625L11.6752 27.6867C11.8784 27.8898 12.2033 28.0521 12.5283 28.0521C12.8532 28.0521 13.1373 27.9303 13.3813 27.6867L16.3054 24.7625C16.7522 24.3158 16.7522 23.544 16.3054 23.0973C15.8587 22.6505 15.087 22.6505 14.6402 23.0973L13.7467 23.9908V15.1777C13.7467 14.5278 13.2187 14.0001 12.5691 14.0001H5.25868C4.6088 14.0001 4.08104 14.5281 4.08104 15.1777C3.99973 15.8276 4.5278 16.3556 5.17738 16.3556L5.17724 16.3555Z" fill="currentColor"/>
        <path d="M22.4383 27.6866C22.6414 27.8897 22.9664 28.0521 23.2913 28.0521C23.6163 28.0521 23.9004 27.9303 24.1444 27.6866L27.0685 24.7625C27.5153 24.3157 27.5153 23.544 27.0685 23.0972C26.6218 22.6505 25.85 22.6505 25.4033 23.0972L24.5098 23.9907V15.1776C24.5098 14.5278 23.9817 14 23.3322 14C22.6823 14 22.1545 14.5281 22.1545 15.1776V23.9907L21.261 23.0972C20.8143 22.6505 20.0426 22.6505 19.5958 23.0972C19.1491 23.544 19.1491 24.3157 19.5958 24.7625L22.4383 27.6866Z" fill="currentColor"/>
        <path d="M33.2408 27.6866C33.4439 27.8897 33.7688 28.0521 34.0938 28.0521C34.4188 28.0521 34.7029 27.9302 34.9468 27.6866L37.871 24.7624C38.3178 24.3157 38.3178 23.544 37.871 23.0972C37.4242 22.6505 36.6525 22.6505 36.2058 23.0972L35.3123 23.9907V16.3554H41.4448C42.0947 16.3554 42.6225 15.8273 42.6225 15.1778C42.6225 14.5279 42.0944 14.0001 41.4448 14.0001H34.1344C33.4845 14.0001 32.9568 14.5282 32.9568 15.1778V23.9909L32.0633 23.0974C31.6165 22.6506 30.8448 22.6506 30.3981 23.0974C29.9513 23.5441 29.9513 24.3158 30.3981 24.7626L33.2408 27.6866Z" fill="currentColor"/>
        <path d="M41.4045 27.3211C40.7546 27.3211 40.2268 27.8491 40.2268 28.4987V31.5042H6.35528V28.4987C6.35528 27.8488 5.82722 27.3211 5.17764 27.3211C4.52776 27.3211 4 27.8491 4 28.4987V32.7223C4 33.3722 4.52806 33.9 5.17764 33.9H41.4047C42.0546 33.9 42.5824 33.3719 42.5824 32.7223V28.5395C42.5824 27.8896 42.0543 27.321 41.4047 27.321L41.4045 27.3211Z" fill="currentColor"/>
    </symbol>
    <symbol id="icon-convert" viewBox="0 0 39 39">
        <path d="M12.9971 6.49451L10.5586 8.93302" stroke="currentColor" stroke-width="2.5" stroke-linecap="round" stroke-linejoin="round"/>
        <path d="M10.5586 4.05603L12.9971 6.49455" stroke="currentColor" stroke-width="2.5" stroke-linecap="round" stroke-linejoin="round"/>
        <path d="M9.74568 6.49451C7.05217 6.49451 4.86865 8.67803 4.86865 11.3715" stroke="currentColor" stroke-width="2.5" stroke-linecap="round" stroke-linejoin="round"/>
        <path d="M9.74561 6.49448H12.997" stroke="currentColor" stroke-width="2.5" stroke-linecap="round" stroke-linejoin="round"/>
        <path d="M26.0024 32.5054L28.441 30.0669" stroke="currentColor" stroke-width="2.5" stroke-linecap="round" stroke-linejoin="round"/>
        <path d="M28.441 34.9439L26.0024 32.5054" stroke="currentColor" stroke-width="2.5" stroke-linecap="round" stroke-linejoin="round"/>
        <path d="M29.2539 32.5053C31.9474 32.5053 34.1309 30.3218 34.1309 27.6283" stroke="currentColor" stroke-width="2.5" stroke-linecap="round" stroke-linejoin="round"/>
        <path d="M29.2538 32.5053H26.0024" stroke="currentColor" stroke-width="2.5" stroke-linecap="round" stroke-linejoin="round"/>
        <path fill-rule="evenodd" clip-rule="evenodd" d="M15.4359 32.5054C20.374 32.5054 24.3771 28.5023 24.3771 23.5641C24.3771 18.626 20.374 14.6229 15.4359 14.6229C10.4978 14.6229 6.49463 18.626 6.49463 23.5641C6.52304 28.4904 10.5096 32.477 15.4359 32.5054Z" stroke="currentColor" stroke-width="2.5" stroke-linecap="round" stroke-linejoin="round"/>
        <path d="M17.9654 22.301L14.805 25.4613L12.9062 23.5642" stroke="currentColor" stroke-width="2.5" stroke-linecap="round" stroke-linejoin="round"/>
        <path d="M29.8863 9.11353C33.3636 12.6112 33.3636 18.2604 29.8863 21.758C29.6091 22.0258 29.3118 22.272 28.9971 22.4945" stroke="currentColor" stroke-width="2.5" stroke-linecap="round" stroke-linejoin="round"/>
        <path d="M29.8861 9.11346C26.3885 5.63617 20.7393 5.63617 17.2416 9.11346C16.9736 9.38984 16.7249 9.68423 16.4971 9.99457" stroke="currentColor" stroke-width="2.5" stroke-linecap="round" stroke-linejoin="round"/>
    </symbol>
    <symbol id="icon-hold" viewBox="0 0 47 47">
        <path d="M26.3489 19.1197C26.5745 19.3453 26.8378 19.4205 27.1008 19.4205C27.3642 19.4205 27.6647 19.3078 27.8528 19.1197L32.2144 14.758C32.6281 14.3444 32.6281 13.6678 32.2144 13.2542C31.8008 12.8406 31.1242 12.8406 30.7106 13.2542L27.1008 16.8639L25.672 15.435C25.2584 15.0214 24.5817 15.0214 24.1681 15.435C23.7545 15.8487 23.7545 16.5253 24.1681 16.9389L26.3489 19.1197Z" fill="currentColor"/>
        <path d="M41.2386 23.9701C40.8625 22.5037 39.5467 21.5262 38.1178 21.4884V11.75C38.1178 9.68192 36.4259 7.98999 34.3578 7.98999H22.1002C20.0322 7.98999 18.3402 9.68192 18.3402 11.75V21.4884C17.325 21.6387 16.385 22.0148 15.5578 22.6539L10.2939 26.7523L5.93223 31.3397C5.51862 31.7533 5.55612 32.43 5.96974 32.8061L12.3242 38.8223C12.7378 39.2359 13.4145 39.1984 13.7906 38.7848L17.5881 34.7992L24.1681 35.4384C26.4243 35.664 28.6801 35.0623 30.5601 33.8217L39.9225 27.4673C41.0505 26.7148 41.577 25.2862 41.2386 23.9701L41.2386 23.9701ZM22.1002 10.1333H34.3578C35.2603 10.1333 36.0123 10.8852 36.0123 11.7877V21.9021L31.0868 23.0302C30.5604 22.3535 29.7706 21.9021 28.8684 21.8647L20.446 21.4886V11.7502C20.446 10.8477 21.198 10.1332 22.1005 10.1332L22.1002 10.1333ZM13.001 36.6037L8.1505 32.0165L10.8202 29.1965L15.633 33.7837L13.001 36.6037ZM38.7194 25.7373L29.357 32.0917C27.8906 33.107 26.0859 33.5581 24.3187 33.3701L17.5883 32.7309L12.3994 27.7301L16.7986 24.3084C17.4753 23.782 18.3403 23.5187 19.205 23.5187L28.7554 23.9326C29.1691 23.9701 29.5074 24.2709 29.5452 24.6845C29.5827 25.0981 29.3196 25.4742 28.9435 25.5492L26.6124 26.1884C25.7099 26.414 24.7699 26.5267 23.8676 26.4892L21.1604 26.414C20.5966 26.414 20.1076 26.8651 20.0702 27.4292C20.0702 28.0309 20.5213 28.482 21.0854 28.5195L23.7926 28.5948C24.9207 28.6323 26.0488 28.482 27.1015 28.2187L29.4326 27.617C30.6735 27.3162 31.5382 26.2634 31.6134 25.0225L37.7799 23.6314C38.419 23.4811 39.0207 23.857 39.2087 24.4961C39.3212 24.9475 39.1332 25.4739 38.7196 25.7372L38.7194 25.7373Z" fill="currentColor"/>
    </symbol>
    <symbol id="icon-redeem" viewBox="0 0 45 45">
        <path d="M17.6538 6.75H10.3846C8.38045 6.75 6.75 8.38045 6.75 10.3846V17.6538C6.75 19.658 8.38045 21.2885 10.3846 21.2885H17.6538C19.658 21.2885 21.2885 19.658 21.2885 17.6538V10.3846C21.2885 8.38045 19.658 6.75 17.6538 6.75ZM18.8654 17.6538C18.8654 18.3224 18.3224 18.8654 17.6538 18.8654H10.3846C9.71611 18.8654 9.17308 18.3224 9.17308 17.6538V10.3846C9.17308 9.71611 9.71611 9.17308 10.3846 9.17308H17.6538C18.3224 9.17308 18.8654 9.71611 18.8654 10.3846V17.6538Z" fill="currentColor"/>
        <path d="M34.6153 23.7115H27.346C25.3419 23.7115 23.7114 25.342 23.7114 27.3462V34.6154C23.7114 36.6195 25.3419 38.25 27.346 38.25H34.6153C36.6194 38.25 38.2499 36.6195 38.2499 34.6154V27.3462C38.2499 25.342 36.6194 23.7115 34.6153 23.7115ZM35.8268 34.6154C35.8268 35.2839 35.2838 35.8269 34.6153 35.8269H27.346C26.6775 35.8269 26.1345 35.2839 26.1345 34.6154V27.3462C26.1345 26.6777 26.6775 26.1346 27.346 26.1346H34.6153C35.2838 26.1346 35.8268 26.6777 35.8268 27.3462V34.6154Z" fill="currentColor"/>
        <path d="M28.4844 18.081C28.7211 18.3173 29.1045 18.3173 29.3412 18.081L30.1976 17.2245C30.4343 16.9879 30.4343 16.6044 30.1976 16.3678L27.8484 14.0191H32.1923C32.8614 14.0191 33.4038 14.5615 33.4038 15.2306V20.6825C33.4038 21.017 33.6751 21.2883 34.0096 21.2883H35.2212C35.5557 21.2883 35.8269 21.017 35.8269 20.6825V15.2306C35.8269 13.2232 34.1997 11.596 32.1923 11.596H27.8475L30.1965 9.24622C30.4329 9.00959 30.4329 8.62612 30.1965 8.38976L29.3401 7.53331C29.1034 7.29668 28.72 7.29668 28.4833 7.53331L24.0666 11.9511C23.5936 12.424 23.5936 13.191 24.0669 13.664L28.4844 18.081Z" fill="currentColor"/>
        <path d="M16.5158 26.919C16.2792 26.6824 15.8957 26.6826 15.6591 26.919L14.8026 27.7754C14.566 28.0121 14.566 28.3955 14.8026 28.6322L17.1519 30.9809H12.808C12.1389 30.9809 11.5964 30.4384 11.5964 29.7694V24.3174C11.5964 23.9829 11.3252 23.7117 10.9906 23.7117H9.77911C9.44459 23.7117 9.17334 23.9829 9.17334 24.3174V29.7694C9.17334 31.7768 10.8005 33.404 12.808 33.404H17.1527L14.8037 35.7537C14.5674 35.9904 14.5674 36.3738 14.8037 36.6105L15.6602 37.4669C15.8968 37.7036 16.2803 37.7036 16.5169 37.4669L20.9336 33.0492C21.4066 32.5762 21.4066 31.8093 20.9334 31.3363L16.5158 26.919Z" fill="currentColor"/>
    </symbol>
    <symbol id="icon-mode-night" viewBox="0 0 16 16">
        <path d="M8.84375 16C11.3125 16 13.5625 14.9062 15.0625 13.0625C15.2812 12.7812 15.0312 12.375 14.6875 12.4375C10.8125 13.1875 7.25 10.2188 7.25 6.28125C7.25 4.03125 8.4375 1.96875 10.4062 0.84375C10.7188 0.65625 10.625 0.21875 10.2812 0.15625C9.8125 0.0625 9.34375 0.03125 8.84375 0C4.40625 0 0.84375 3.59375 0.84375 8C0.84375 12.4375 4.40625 16 8.84375 16Z" fill="currentColor"/>
    </symbol>
    <symbol id="icon-mode-light" viewBox="0 0 18 18">
        <path d="M9 6C7.34375 6 6 7.375 6 9C6 10.6562 7.34375 12 9 12C10.625 12 12 10.6562 12 9C12 7.375 10.625 6 9 6ZM16.6875 8.53125L13.7188 7.0625L14.7812 3.90625C14.9062 3.5 14.5 3.09375 14.0938 3.21875L10.9375 4.28125L9.46875 1.3125C9.28125 0.90625 8.6875 0.90625 8.5 1.3125L7.03125 4.28125L3.875 3.21875C3.46875 3.09375 3.0625 3.5 3.1875 3.90625L4.25 7.0625L1.28125 8.53125C0.875 8.71875 0.875 9.3125 1.28125 9.5L4.25 10.9688L3.1875 14.125C3.0625 14.5312 3.46875 14.9375 3.875 14.8125L7.03125 13.75L8.5 16.7188C8.6875 17.125 9.28125 17.125 9.46875 16.7188L10.9375 13.75L14.0938 14.8125C14.5 14.9375 14.9062 14.5312 14.7812 14.125L13.7188 10.9688L16.6875 9.5C17.0938 9.3125 17.0938 8.71875 16.6875 8.53125ZM11.8125 11.8438C10.25 13.4062 7.71875 13.4062 6.15625 11.8438C4.59375 10.2812 4.59375 7.75 6.15625 6.1875C7.71875 4.625 10.25 4.625 11.8125 6.1875C13.375 7.75 13.375 10.2812 11.8125 11.8438Z" fill="currentColor"/>
    </symbol>
    <symbol id="icon-info" viewBox="0 0 23 22">
        <path d="M11.5 0.09375C5.61328 0.09375 0.84375 4.90625 0.84375 10.75C0.84375 16.6367 5.61328 21.4062 11.5 21.4062C17.3438 21.4062 22.1562 16.6367 22.1562 10.75C22.1562 4.90625 17.3438 0.09375 11.5 0.09375ZM11.5 4.82031C12.4883 4.82031 13.3047 5.63672 13.3047 6.625C13.3047 7.65625 12.4883 8.42969 11.5 8.42969C10.4688 8.42969 9.69531 7.65625 9.69531 6.625C9.69531 5.63672 10.4688 4.82031 11.5 4.82031ZM13.9062 15.7344C13.9062 16.0352 13.6484 16.25 13.3906 16.25H9.60938C9.30859 16.25 9.09375 16.0352 9.09375 15.7344V14.7031C9.09375 14.4453 9.30859 14.1875 9.60938 14.1875H10.125V11.4375H9.60938C9.30859 11.4375 9.09375 11.2227 9.09375 10.9219V9.89062C9.09375 9.63281 9.30859 9.375 9.60938 9.375H12.3594C12.6172 9.375 12.875 9.63281 12.875 9.89062V14.1875H13.3906C13.6484 14.1875 13.9062 14.4453 13.9062 14.7031V15.7344Z" fill="currentColor"/>
    </symbol>
    <svg id="icon-tooltip" viewBox="0 0 21 21">
        <path d="M20.1875 10.5C20.1875 5.1875 15.8125 0.8125 10.5 0.8125C5.14844 0.8125 0.8125 5.1875 0.8125 10.5C0.8125 15.8516 5.14844 20.1875 10.5 20.1875C15.8125 20.1875 20.1875 15.8516 20.1875 10.5ZM10.7344 4.01562C12.9609 4.01562 15.3047 5.73438 15.3047 8C15.3047 11.0469 12.0625 11.0859 12.0625 12.1797V12.2188C12.0625 12.4922 11.8281 12.6875 11.5938 12.6875H9.40625C9.13281 12.6875 8.9375 12.4922 8.9375 12.2188V12.0625C8.9375 10.4609 10.1484 9.83594 11.0469 9.32812C11.8281 8.89844 12.3359 8.58594 12.3359 8C12.3359 7.21875 11.3203 6.71094 10.5391 6.71094C9.48438 6.71094 9.01562 7.21875 8.3125 8.11719C8.15625 8.3125 7.84375 8.35156 7.64844 8.19531L6.28125 7.17969C6.08594 7.02344 6.04688 6.75 6.20312 6.51562C7.25781 4.91406 8.625 4.01562 10.7344 4.01562ZM10.5 13.7031C11.4766 13.7031 12.2969 14.5234 12.2969 15.5C12.2969 16.5156 11.4766 17.2969 10.5 17.2969C9.48438 17.2969 8.70312 16.5156 8.70312 15.5C8.70312 14.5234 9.48438 13.7031 10.5 13.7031Z" fill="currentColor"/>
    </svg>
</svg>
